%TF.GenerationSoftware,KiCad,Pcbnew,(6.0.0-0)*%
%TF.CreationDate,2022-04-29T14:29:20-04:00*%
%TF.ProjectId,satshakitmodifiedv4,73617473-6861-46b6-9974-6d6f64696669,rev?*%
%TF.SameCoordinates,Original*%
%TF.FileFunction,Copper,L1,Top*%
%TF.FilePolarity,Positive*%
%FSLAX46Y46*%
G04 Gerber Fmt 4.6, Leading zero omitted, Abs format (unit mm)*
G04 Created by KiCad (PCBNEW (6.0.0-0)) date 2022-04-29 14:29:20*
%MOMM*%
%LPD*%
G01*
G04 APERTURE LIST*
%TA.AperFunction,NonConductor*%
%ADD10C,0.500000*%
%TD*%
%TA.AperFunction,NonConductor*%
%ADD11C,0.200000*%
%TD*%
%TA.AperFunction,SMDPad,CuDef*%
%ADD12R,1.700000X2.500000*%
%TD*%
%TA.AperFunction,SMDPad,CuDef*%
%ADD13R,1.803000X1.600000*%
%TD*%
%TA.AperFunction,SMDPad,CuDef*%
%ADD14R,1.800000X1.600000*%
%TD*%
%TA.AperFunction,SMDPad,CuDef*%
%ADD15R,1.117600X1.803400*%
%TD*%
%TA.AperFunction,SMDPad,CuDef*%
%ADD16R,2.000000X5.500000*%
%TD*%
%TA.AperFunction,SMDPad,CuDef*%
%ADD17R,1.016000X0.406400*%
%TD*%
%TA.AperFunction,SMDPad,CuDef*%
%ADD18R,1.524000X0.355600*%
%TD*%
%TA.AperFunction,SMDPad,CuDef*%
%ADD19R,0.406400X1.016000*%
%TD*%
%TA.AperFunction,SMDPad,CuDef*%
%ADD20R,0.355600X1.524000*%
%TD*%
%TA.AperFunction,SMDPad,CuDef*%
%ADD21R,2.500000X1.700000*%
%TD*%
%TA.AperFunction,SMDPad,CuDef*%
%ADD22R,1.600000X1.800000*%
%TD*%
%TA.AperFunction,SMDPad,CuDef*%
%ADD23R,1.524000X2.286000*%
%TD*%
%TA.AperFunction,SMDPad,CuDef*%
%ADD24R,1.600000X1.803000*%
%TD*%
%TA.AperFunction,ComponentPad*%
%ADD25O,3.016000X1.508000*%
%TD*%
%TA.AperFunction,Conductor*%
%ADD26C,0.500000*%
%TD*%
%TA.AperFunction,Conductor*%
%ADD27C,0.254000*%
%TD*%
%TA.AperFunction,Conductor*%
%ADD28C,0.304800*%
%TD*%
G04 APERTURE END LIST*
D10*
X150368000Y-104902000D02*
X149352000Y-104902000D01*
X153162000Y-112268000D02*
X154178000Y-113538000D01*
X154178000Y-108458000D02*
X153162000Y-112268000D01*
X157988000Y-111760000D02*
X155956000Y-108458000D01*
X166370000Y-111760000D02*
X157988000Y-111760000D01*
X157734000Y-106426000D02*
X159258000Y-108712000D01*
X151384000Y-112522000D02*
X153416000Y-114300000D01*
X153416000Y-108458000D02*
X151384000Y-112522000D01*
X153416000Y-114300000D02*
X158762800Y-119035900D01*
X143510000Y-106934000D02*
X143510000Y-109474000D01*
X145796000Y-104902000D02*
X143510000Y-106934000D01*
X149098000Y-104902000D02*
X145796000Y-104902000D01*
X145034000Y-101346000D02*
X144780000Y-99822000D01*
X145796000Y-98806000D02*
X146050000Y-100838000D01*
D11*
X145542000Y-98806000D02*
X145796000Y-98806000D01*
D10*
X146812000Y-103378000D02*
X145034000Y-101346000D01*
X148844000Y-103378000D02*
X146812000Y-103378000D01*
X153416000Y-92964000D02*
X146050000Y-92964000D01*
X153416000Y-97790000D02*
X153416000Y-92964000D01*
X152654000Y-99060000D02*
X153416000Y-97790000D01*
X148590000Y-95250000D02*
X140208000Y-95250000D01*
X151130000Y-99314000D02*
X148590000Y-95250000D01*
X157734000Y-100838000D02*
X159766000Y-99060000D01*
X170180000Y-97536000D02*
X166624000Y-97536000D01*
X172986800Y-104049900D02*
X172986800Y-98969900D01*
X169938800Y-106335900D02*
X172986800Y-104049900D01*
X149872800Y-88555900D02*
X151396800Y-84999900D01*
X166636800Y-96683900D02*
X166636800Y-86015900D01*
X170180000Y-100076000D02*
X172974000Y-100076000D01*
X170166000Y-92476000D02*
X166624000Y-92456000D01*
X166636800Y-86015900D02*
X154190800Y-86015900D01*
X172986800Y-98969900D02*
X172986800Y-84999900D01*
X170180000Y-94996000D02*
X172974000Y-94996000D01*
X166636800Y-103541900D02*
X166636800Y-96683900D01*
X172986800Y-84999900D02*
X151396800Y-84999900D01*
X154190800Y-86015900D02*
X152412800Y-88555900D01*
D12*
%TO.P,REF\u002A\u002A,1*%
%TO.N,VCC*%
X150114000Y-88392000D03*
%TO.P,REF\u002A\u002A,2*%
%TO.N,GND*%
X152654000Y-88392000D03*
%TD*%
%TO.P,REF\u002A\u002A,1*%
%TO.N,1(Tx)*%
X140208000Y-88392000D03*
%TO.P,REF\u002A\u002A,2*%
%TO.N,0(Rx)*%
X142748000Y-88392000D03*
%TD*%
D13*
%TO.P,LED_GREEN,1*%
%TO.N,VCC*%
X141376400Y-109569000D03*
%TO.P,LED_GREEN,2*%
%TO.N,N$26*%
X141376400Y-106725000D03*
%TD*%
D14*
%TO.P,C4,1*%
%TO.N,VCC*%
X166522400Y-106245000D03*
%TO.P,C4,2*%
%TO.N,GND*%
X166522400Y-103445000D03*
%TD*%
D15*
%TO.P,C1,1*%
%TO.N,GND*%
X125450600Y-111525200D03*
%TO.P,C1,2*%
%TO.N,N$2*%
X128447800Y-111525200D03*
%TD*%
D12*
%TO.P,REF\u002A\u002A,1*%
%TO.N,N$3*%
X147320000Y-88392000D03*
%TD*%
D16*
%TO.P,CRYSTAL,1*%
%TO.N,N$9*%
X135178800Y-121202800D03*
%TO.P,CRYSTAL,2*%
%TO.N,N$2*%
X135178800Y-111702800D03*
%TD*%
D14*
%TO.P,C3,1*%
%TO.N,VCC*%
X135026400Y-97863000D03*
%TO.P,C3,2*%
%TO.N,GND*%
X135026400Y-95063000D03*
%TD*%
D17*
%TO.P,MICRO,1*%
%TO.N,3*%
X148640800Y-100902000D03*
D18*
%TO.P,MICRO,2*%
%TO.N,4*%
X148894800Y-101702000D03*
%TO.P,MICRO,3*%
%TO.N,GND*%
X148894800Y-102502000D03*
%TO.P,MICRO,4*%
%TO.N,VCC*%
X148894800Y-103302000D03*
%TO.P,MICRO,5*%
%TO.N,GND*%
X148894800Y-104102000D03*
%TO.P,MICRO,6*%
%TO.N,VCC*%
X148894800Y-104902000D03*
%TO.P,MICRO,7*%
%TO.N,N$2*%
X148894800Y-105702000D03*
D17*
%TO.P,MICRO,8*%
%TO.N,N$9*%
X148640800Y-106502000D03*
D19*
%TO.P,MICRO,9*%
%TO.N,5*%
X150260400Y-108121600D03*
D20*
%TO.P,MICRO,10*%
%TO.N,6*%
X151060400Y-107867600D03*
%TO.P,MICRO,11*%
%TO.N,7*%
X151860400Y-107867600D03*
%TO.P,MICRO,12*%
%TO.N,8*%
X152660400Y-107867600D03*
%TO.P,MICRO,13*%
%TO.N,9*%
X153460400Y-107867600D03*
%TO.P,MICRO,14*%
%TO.N,10*%
X154260400Y-107867600D03*
%TO.P,MICRO,15*%
%TO.N,11*%
X155060400Y-107867600D03*
D19*
%TO.P,MICRO,16*%
%TO.N,12*%
X155860400Y-108121600D03*
D17*
%TO.P,MICRO,17*%
%TO.N,13*%
X157480000Y-106502000D03*
D18*
%TO.P,MICRO,18*%
%TO.N,VCC*%
X157226000Y-105702000D03*
%TO.P,MICRO,19*%
%TO.N,ADC6*%
X157226000Y-104902000D03*
%TO.P,MICRO,20*%
%TO.N,VCC*%
X157226000Y-104102000D03*
%TO.P,MICRO,21*%
%TO.N,GND*%
X157226000Y-103302000D03*
%TO.P,MICRO,22*%
%TO.N,ADC7*%
X157226000Y-102502000D03*
%TO.P,MICRO,23*%
%TO.N,A0*%
X157226000Y-101702000D03*
D17*
%TO.P,MICRO,24*%
%TO.N,A1*%
X157480000Y-100902000D03*
D19*
%TO.P,MICRO,25*%
%TO.N,A2*%
X155860400Y-99282400D03*
D20*
%TO.P,MICRO,26*%
%TO.N,A3*%
X155060400Y-99536400D03*
%TO.P,MICRO,27*%
%TO.N,A4*%
X154260400Y-99536400D03*
%TO.P,MICRO,28*%
%TO.N,A5*%
X153460400Y-99536400D03*
%TO.P,MICRO,29*%
%TO.N,RST*%
X152660400Y-99536400D03*
%TO.P,MICRO,30*%
%TO.N,0(Rx)*%
X151860400Y-99536400D03*
%TO.P,MICRO,31*%
%TO.N,1(Tx)*%
X151060400Y-99536400D03*
D19*
%TO.P,MICRO,32*%
%TO.N,2*%
X150260400Y-99282400D03*
%TD*%
D14*
%TO.P,C5,1*%
%TO.N,VCC*%
X169824400Y-106245000D03*
%TO.P,C5,2*%
%TO.N,GND*%
X169824400Y-103445000D03*
%TD*%
D21*
%TO.P,REF\u002A\u002A,1*%
%TO.N,GND*%
X170166000Y-92476000D03*
%TO.P,REF\u002A\u002A,2*%
%TO.N,VCC*%
X170166000Y-95016000D03*
%TD*%
D22*
%TO.P,R1,1*%
%TO.N,VCC*%
X129060400Y-94405600D03*
%TO.P,R1,2*%
%TO.N,RST*%
X126260400Y-94405600D03*
%TD*%
D23*
%TO.P,SWITCH,1*%
%TO.N,RST*%
X122936000Y-107188000D03*
%TO.P,SWITCH,2*%
X122936000Y-100584000D03*
%TO.P,SWITCH,3*%
%TO.N,GND*%
X127508000Y-107188000D03*
%TO.P,SWITCH,4*%
X127508000Y-100584000D03*
%TD*%
D22*
%TO.P,R3,1*%
%TO.N,GND*%
X151508000Y-123698000D03*
%TO.P,R3,2*%
%TO.N,N$27*%
X154308000Y-123698000D03*
%TD*%
D12*
%TO.P,REF\u002A\u002A,1*%
%TO.N,RST*%
X131826000Y-88646000D03*
%TD*%
%TO.P,REF\u002A\u002A,1*%
%TO.N,N/C*%
X158762800Y-119035900D03*
%TO.P,REF\u002A\u002A,2*%
%TO.N,10*%
X161302800Y-119035900D03*
%TO.P,REF\u002A\u002A,3*%
%TO.N,11*%
X163842800Y-119035900D03*
%TO.P,REF\u002A\u002A,4*%
%TO.N,12*%
X166382800Y-119035900D03*
%TO.P,REF\u002A\u002A,5*%
%TO.N,N$12*%
X168922800Y-119035900D03*
%TD*%
D15*
%TO.P,C2,1*%
%TO.N,GND*%
X125552200Y-121202600D03*
%TO.P,C2,2*%
%TO.N,N$9*%
X128549400Y-121202600D03*
%TD*%
D12*
%TO.P,REF\u002A\u002A,1*%
%TO.N,A1*%
X160274000Y-88392000D03*
%TO.P,REF\u002A\u002A,2*%
%TO.N,A0*%
X162814000Y-88392000D03*
%TD*%
D24*
%TO.P,LED_13,1*%
%TO.N,N$12*%
X161163400Y-108655000D03*
%TO.P,LED_13,2*%
%TO.N,N$27*%
X164007400Y-108655000D03*
%TD*%
D12*
%TO.P,REF\u002A\u002A,1*%
%TO.N,A3*%
X155194000Y-88392000D03*
%TO.P,REF\u002A\u002A,2*%
%TO.N,A2*%
X157734000Y-88392000D03*
%TD*%
D22*
%TO.P,C6,1*%
%TO.N,RST*%
X126006400Y-88716000D03*
%TO.P,C6,2*%
%TO.N,N$3*%
X128806400Y-88716000D03*
%TD*%
D21*
%TO.P,REF\u002A\u002A,1*%
%TO.N,GND*%
X134874000Y-102616000D03*
%TO.P,REF\u002A\u002A,2*%
%TO.N,VCC*%
X134874000Y-105156000D03*
%TD*%
%TO.P,REF\u002A\u002A,1*%
%TO.N,GND*%
X170180000Y-97536000D03*
%TO.P,REF\u002A\u002A,2*%
%TO.N,VCC*%
X170180000Y-100076000D03*
%TD*%
D22*
%TO.P,R2,1*%
%TO.N,N$26*%
X141887400Y-102686000D03*
%TO.P,R2,2*%
%TO.N,GND*%
X139087400Y-102686000D03*
%TD*%
D25*
%TO.P,POWER,1*%
%TO.N,N/C*%
X0Y-1270000D03*
%TO.P,POWER,2*%
X0Y1270000D03*
%TD*%
D26*
%TO.N,VCC*%
X151168000Y-105702000D02*
X150368000Y-104902000D01*
X157226000Y-105702000D02*
X151168000Y-105702000D01*
D27*
%TO.N,GND*%
X154447946Y-102528925D02*
X154483511Y-102564489D01*
D26*
X154483511Y-102564489D02*
X155221021Y-103302000D01*
X149504400Y-104083000D02*
X152965000Y-104083000D01*
X152965000Y-104083000D02*
X154483511Y-102564489D01*
X155221021Y-103302000D02*
X157226000Y-103302000D01*
%TO.N,N$2*%
X144722800Y-111702800D02*
X135178800Y-111702800D01*
X148894800Y-105702000D02*
X146774000Y-105702000D01*
X146774000Y-105702000D02*
X144722800Y-107753200D01*
X144722800Y-107753200D02*
X144722800Y-111702800D01*
%TO.N,N$9*%
X148640800Y-106502000D02*
X148640800Y-118510400D01*
X148640800Y-118510400D02*
X145948400Y-121202800D01*
%TO.N,GND*%
X147701978Y-102502000D02*
X146050000Y-100850022D01*
X148894800Y-102502000D02*
X147701978Y-102502000D01*
X145567400Y-98876000D02*
X145358000Y-98876000D01*
X145358000Y-98876000D02*
X136931400Y-98876000D01*
%TO.N,A2*%
X156495600Y-99282400D02*
X157734000Y-98044000D01*
X155860400Y-99282400D02*
X156495600Y-99282400D01*
X157734000Y-98044000D02*
X157734000Y-94742000D01*
%TO.N,A0*%
X157226000Y-101702000D02*
X160521400Y-101702000D01*
X162458400Y-99765000D02*
X162458400Y-88462000D01*
X160521400Y-101702000D02*
X162458400Y-99765000D01*
%TO.N,A2*%
X157734000Y-94742000D02*
X157734000Y-88392000D01*
D28*
%TO.N,1(Tx)*%
X140265000Y-95193000D02*
X140208000Y-95250000D01*
D26*
X140208000Y-95250000D02*
X140208000Y-88392000D01*
%TO.N,0(Rx)*%
X151860400Y-99536400D02*
X151860400Y-94177000D01*
X151860400Y-94177000D02*
X142805000Y-94177000D01*
D28*
X142805000Y-94177000D02*
X142748000Y-94234000D01*
D26*
X142748000Y-94234000D02*
X142748000Y-88392000D01*
%TO.N,VCC*%
X166522400Y-106245000D02*
X169824400Y-106245000D01*
X144805400Y-99892000D02*
X135026400Y-99892000D01*
X141376400Y-109569000D02*
X138963400Y-109569000D01*
X132867400Y-99892000D02*
X135026400Y-99892000D01*
X138963400Y-109569000D02*
X138963400Y-105099000D01*
X143535400Y-109544000D02*
X141376400Y-109544000D01*
D28*
X157226000Y-104102000D02*
X157226000Y-104108400D01*
D26*
X132867400Y-99892000D02*
X132867400Y-105099000D01*
X163474400Y-105702000D02*
X163474400Y-106242000D01*
D28*
X135407400Y-97990000D02*
X135407400Y-98114000D01*
D26*
X132867400Y-94405600D02*
X129060400Y-94405600D01*
D28*
X157226000Y-105708600D02*
X157226000Y-105702000D01*
D26*
X138963400Y-105099000D02*
X135204200Y-105099000D01*
D28*
X149580600Y-104895800D02*
X148894800Y-104902000D01*
D26*
X157226000Y-105702000D02*
X163474400Y-105702000D01*
D28*
X157226000Y-105734000D02*
X157226000Y-105702000D01*
D26*
X163474400Y-106242000D02*
X166522400Y-106242000D01*
D28*
X157226000Y-104102000D02*
X156616400Y-104083000D01*
D27*
X157226000Y-104102000D02*
X156616400Y-104102000D01*
X156616400Y-104102000D02*
X156616400Y-104083000D01*
D26*
X135026400Y-99892000D02*
X135026400Y-97863000D01*
X132867400Y-94405600D02*
X132867400Y-99892000D01*
D28*
X141376400Y-109544000D02*
X141376400Y-109569000D01*
D26*
X135204200Y-105099000D02*
X132867400Y-105099000D01*
D28*
%TO.N,N$2*%
X128447800Y-111702800D02*
X128447800Y-111525200D01*
X148894800Y-105734000D02*
X148894800Y-105702000D01*
D26*
X135178800Y-111702800D02*
X128447800Y-111702800D01*
D28*
X128447800Y-111703000D02*
X128447800Y-111525200D01*
D26*
%TO.N,N$9*%
X135178800Y-121202800D02*
X128549400Y-121202800D01*
X135178800Y-121202800D02*
X145948400Y-121202800D01*
D28*
X128549400Y-121202800D02*
X128549400Y-121202600D01*
X148640800Y-106496000D02*
X148640800Y-106502000D01*
X128549400Y-121228000D02*
X128549400Y-121202600D01*
%TO.N,GND*%
X143789400Y-104083000D02*
X148894800Y-104083000D01*
D26*
X133375400Y-92018000D02*
X127660400Y-92018000D01*
X125450600Y-111525200D02*
X125450600Y-109245400D01*
D28*
X157226000Y-103302000D02*
X156616400Y-103321000D01*
D26*
X127508000Y-100584000D02*
X127508000Y-96824800D01*
X136931400Y-98876000D02*
X136931400Y-93161000D01*
X127660400Y-92018000D02*
X127660400Y-96672400D01*
X166522400Y-103445000D02*
X169824400Y-103445000D01*
X125450600Y-109245400D02*
X127508000Y-107188000D01*
X125552200Y-125038000D02*
X125552200Y-121202600D01*
X127508000Y-107188000D02*
X127508000Y-100584000D01*
D28*
X139595400Y-102559000D02*
X139087400Y-102686000D01*
D26*
X136931400Y-93161000D02*
X135026400Y-93161000D01*
X133375400Y-93161000D02*
X133375400Y-92018000D01*
X151508000Y-123698000D02*
X142462400Y-123698000D01*
X127508000Y-96824800D02*
X127660400Y-96672400D01*
D28*
X148894800Y-104083000D02*
X148894800Y-104102000D01*
X125450600Y-111525200D02*
X125374400Y-111525200D01*
X157226000Y-103295600D02*
X157226000Y-103302000D01*
D26*
X157226000Y-103302000D02*
X166522400Y-103302000D01*
D28*
X139595400Y-102813000D02*
X139087400Y-102686000D01*
D26*
X135026400Y-95063000D02*
X135026400Y-93161000D01*
X143789400Y-100781000D02*
X143789400Y-104083000D01*
X139598400Y-100781000D02*
X143789400Y-100781000D01*
D28*
X166522400Y-103302000D02*
X166522400Y-103445000D01*
D27*
X148894800Y-102502000D02*
X148921725Y-102528925D01*
D26*
X148921725Y-102528925D02*
X154447946Y-102528925D01*
X135026400Y-93161000D02*
X133375400Y-93161000D01*
X125450600Y-121202600D02*
X125450600Y-111525200D01*
D28*
X149504400Y-104083000D02*
X148894800Y-104102000D01*
X125552200Y-121202600D02*
X125450600Y-121202600D01*
D26*
X139598400Y-102813000D02*
X139598400Y-100781000D01*
D28*
X135204200Y-102559000D02*
X139595400Y-102559000D01*
X139595400Y-102813000D02*
X139598400Y-102813000D01*
X148894800Y-104108400D02*
X148894800Y-104102000D01*
D26*
X141122400Y-125038000D02*
X125552200Y-125038000D01*
X142462400Y-123698000D02*
X141122400Y-125038000D01*
D28*
X125450600Y-111525200D02*
X125501400Y-111525200D01*
D26*
%TO.N,N$12*%
X161163400Y-108655000D02*
X159156400Y-108655000D01*
X168808400Y-119069000D02*
X168808400Y-110814000D01*
X159156400Y-108655000D02*
X159156400Y-110814000D01*
X168808400Y-110814000D02*
X159156400Y-110814000D01*
D28*
%TO.N,N$26*%
X141887400Y-102686000D02*
X142265400Y-102940000D01*
X141887400Y-103067000D02*
X141887400Y-102686000D01*
X141376400Y-103067000D02*
X141887400Y-103067000D01*
X141376400Y-106725000D02*
X141376400Y-103067000D01*
%TO.N,N$27*%
X171348400Y-123768000D02*
X171278400Y-123698000D01*
D26*
X171278400Y-123698000D02*
X154308000Y-123698000D01*
X171348400Y-108655000D02*
X171348400Y-123768000D01*
X171348400Y-108655000D02*
X164007400Y-108655000D01*
%TO.N,N$3*%
X128806400Y-84956800D02*
X147218400Y-84956800D01*
X147218400Y-84956800D02*
X147218400Y-88462000D01*
X128806400Y-84956800D02*
X128806400Y-88716000D01*
%TO.N,RST*%
X126006400Y-94405600D02*
X126006400Y-90875000D01*
X131724400Y-85922000D02*
X145948400Y-85922000D01*
X145948400Y-85922000D02*
X145948400Y-93084800D01*
D28*
X126260400Y-94405600D02*
X126006400Y-94405600D01*
D26*
X122936000Y-97730000D02*
X126260400Y-94405600D01*
X131724400Y-90875000D02*
X126006400Y-90875000D01*
X131724400Y-85922000D02*
X131724400Y-88462000D01*
X131724400Y-88462000D02*
X131724400Y-90875000D01*
X122936000Y-100584000D02*
X122936000Y-97730000D01*
X126006400Y-90875000D02*
X126006400Y-88716000D01*
X122936000Y-107188000D02*
X122936000Y-100584000D01*
D28*
%TO.N,2*%
X150260400Y-99282400D02*
X150266400Y-99282400D01*
%TO.N,A5*%
X153460400Y-99536400D02*
X153441400Y-99536400D01*
%TO.N,A3*%
X155060400Y-99536400D02*
X155092400Y-99536400D01*
X154912795Y-89276605D02*
X154838400Y-89097000D01*
X154838400Y-89097000D02*
X154838400Y-88462000D01*
X155092400Y-89351000D02*
X154995198Y-89331665D01*
X155092400Y-89351000D02*
X155092400Y-89351000D01*
X154995198Y-89331665D02*
X154912795Y-89276605D01*
D26*
X155092400Y-99536400D02*
X155092400Y-89351000D01*
D28*
%TO.N,A2*%
X155860400Y-99282400D02*
X155854400Y-99282400D01*
%TO.N,A1*%
X157480000Y-100902000D02*
X157505400Y-100902000D01*
D26*
X159918400Y-99003000D02*
X159918400Y-88462000D01*
D28*
%TO.N,8*%
X152660400Y-107867600D02*
X152679400Y-107867600D01*
D26*
%TO.N,10*%
X161188400Y-113481000D02*
X154260400Y-113481000D01*
X161188400Y-119069000D02*
X161188400Y-113481000D01*
D28*
%TO.N,11*%
X163728400Y-119429500D02*
X164350800Y-120051900D01*
D26*
X163601400Y-112592000D02*
X155092400Y-112592000D01*
X155092400Y-112592000D02*
X155092400Y-108655000D01*
X163601400Y-119069000D02*
X163601400Y-112592000D01*
D28*
X163728400Y-119069000D02*
X163601400Y-119069000D01*
X163728400Y-119069000D02*
X163728400Y-119429500D01*
X155060400Y-107867600D02*
X155092400Y-108655000D01*
%TO.N,12*%
X155860400Y-108121600D02*
X155854400Y-108121600D01*
D26*
X166268400Y-119069000D02*
X166268400Y-111703000D01*
%TD*%
M02*
