%TF.GenerationSoftware,KiCad,Pcbnew,(6.0.0-0)*%
%TF.CreationDate,2022-03-01T22:49:58-05:00*%
%TF.ProjectId,Project 1 - LED Torch,50726f6a-6563-4742-9031-202d204c4544,rev?*%
%TF.SameCoordinates,Original*%
%TF.FileFunction,Legend,Bot*%
%TF.FilePolarity,Positive*%
%FSLAX46Y46*%
G04 Gerber Fmt 4.6, Leading zero omitted, Abs format (unit mm)*
G04 Created by KiCad (PCBNEW (6.0.0-0)) date 2022-03-01 22:49:58*
%MOMM*%
%LPD*%
G01*
G04 APERTURE LIST*
%ADD10C,0.150000*%
%ADD11C,0.010000*%
G04 APERTURE END LIST*
D10*
X114426952Y-109799428D02*
X113665047Y-109799428D01*
X114046000Y-110180380D02*
X114046000Y-109418476D01*
X163575809Y-99782380D02*
X163242476Y-100782380D01*
X162909142Y-99782380D01*
X162052000Y-100782380D02*
X162623428Y-100782380D01*
X162337714Y-100782380D02*
X162337714Y-99782380D01*
X162432952Y-99925238D01*
X162528190Y-100020476D01*
X162623428Y-100068095D01*
X161623428Y-100687142D02*
X161575809Y-100734761D01*
X161623428Y-100782380D01*
X161671047Y-100734761D01*
X161623428Y-100687142D01*
X161623428Y-100782380D01*
X160956761Y-99782380D02*
X160861523Y-99782380D01*
X160766285Y-99830000D01*
X160718666Y-99877619D01*
X160671047Y-99972857D01*
X160623428Y-100163333D01*
X160623428Y-100401428D01*
X160671047Y-100591904D01*
X160718666Y-100687142D01*
X160766285Y-100734761D01*
X160861523Y-100782380D01*
X160956761Y-100782380D01*
X161052000Y-100734761D01*
X161099619Y-100687142D01*
X161147238Y-100591904D01*
X161194857Y-100401428D01*
X161194857Y-100163333D01*
X161147238Y-99972857D01*
X161099619Y-99877619D01*
X161052000Y-99830000D01*
X160956761Y-99782380D01*
D11*
%TO.C,REF\u002A\u002A*%
X169922089Y-101563660D02*
X169572540Y-101563707D01*
X169572540Y-101563707D02*
X169409830Y-101563714D01*
X169409830Y-101563714D02*
X166805429Y-101563715D01*
X166805429Y-101563715D02*
X166805429Y-101717238D01*
X166805429Y-101717238D02*
X166789043Y-101904063D01*
X166789043Y-101904063D02*
X166739588Y-102076367D01*
X166739588Y-102076367D02*
X166656620Y-102235175D01*
X166656620Y-102235175D02*
X166539695Y-102381510D01*
X166539695Y-102381510D02*
X166500136Y-102421032D01*
X166500136Y-102421032D02*
X166357830Y-102533138D01*
X166357830Y-102533138D02*
X166200922Y-102614899D01*
X166200922Y-102614899D02*
X166034072Y-102666353D01*
X166034072Y-102666353D02*
X165861939Y-102687537D01*
X165861939Y-102687537D02*
X165689185Y-102678487D01*
X165689185Y-102678487D02*
X165520470Y-102639242D01*
X165520470Y-102639242D02*
X165360454Y-102569838D01*
X165360454Y-102569838D02*
X165213798Y-102470311D01*
X165213798Y-102470311D02*
X165147932Y-102410265D01*
X165147932Y-102410265D02*
X165025192Y-102263043D01*
X165025192Y-102263043D02*
X164935188Y-102101147D01*
X164935188Y-102101147D02*
X164878706Y-101926427D01*
X164878706Y-101926427D02*
X164856529Y-101740735D01*
X164856529Y-101740735D02*
X164856234Y-101722467D01*
X164856234Y-101722467D02*
X164855072Y-101563720D01*
X164855072Y-101563720D02*
X164785300Y-101563717D01*
X164785300Y-101563717D02*
X164723405Y-101572118D01*
X164723405Y-101572118D02*
X164666865Y-101592556D01*
X164666865Y-101592556D02*
X164663128Y-101594667D01*
X164663128Y-101594667D02*
X164650358Y-101601293D01*
X164650358Y-101601293D02*
X164638632Y-101606454D01*
X164638632Y-101606454D02*
X164627906Y-101611651D01*
X164627906Y-101611651D02*
X164618139Y-101618390D01*
X164618139Y-101618390D02*
X164609288Y-101628171D01*
X164609288Y-101628171D02*
X164601311Y-101642500D01*
X164601311Y-101642500D02*
X164594165Y-101662878D01*
X164594165Y-101662878D02*
X164587808Y-101690808D01*
X164587808Y-101690808D02*
X164582198Y-101727795D01*
X164582198Y-101727795D02*
X164577293Y-101775340D01*
X164577293Y-101775340D02*
X164573049Y-101834947D01*
X164573049Y-101834947D02*
X164569424Y-101908119D01*
X164569424Y-101908119D02*
X164566377Y-101996359D01*
X164566377Y-101996359D02*
X164563864Y-102101170D01*
X164563864Y-102101170D02*
X164561844Y-102224055D01*
X164561844Y-102224055D02*
X164560274Y-102366517D01*
X164560274Y-102366517D02*
X164559112Y-102530060D01*
X164559112Y-102530060D02*
X164558314Y-102716186D01*
X164558314Y-102716186D02*
X164557840Y-102926398D01*
X164557840Y-102926398D02*
X164557646Y-103162200D01*
X164557646Y-103162200D02*
X164557690Y-103425094D01*
X164557690Y-103425094D02*
X164557930Y-103716584D01*
X164557930Y-103716584D02*
X164558323Y-104038172D01*
X164558323Y-104038172D02*
X164558827Y-104391362D01*
X164558827Y-104391362D02*
X164559400Y-104777657D01*
X164559400Y-104777657D02*
X164559999Y-105198560D01*
X164559999Y-105198560D02*
X164560068Y-105249840D01*
X164560068Y-105249840D02*
X164560605Y-105673426D01*
X164560605Y-105673426D02*
X164561061Y-106062230D01*
X164561061Y-106062230D02*
X164561484Y-106417753D01*
X164561484Y-106417753D02*
X164561921Y-106741498D01*
X164561921Y-106741498D02*
X164562422Y-107034966D01*
X164562422Y-107034966D02*
X164563035Y-107299661D01*
X164563035Y-107299661D02*
X164563808Y-107537085D01*
X164563808Y-107537085D02*
X164564789Y-107748740D01*
X164564789Y-107748740D02*
X164566026Y-107936129D01*
X164566026Y-107936129D02*
X164567568Y-108100754D01*
X164567568Y-108100754D02*
X164569463Y-108244117D01*
X164569463Y-108244117D02*
X164571759Y-108367720D01*
X164571759Y-108367720D02*
X164574504Y-108473067D01*
X164574504Y-108473067D02*
X164577747Y-108561659D01*
X164577747Y-108561659D02*
X164581536Y-108635000D01*
X164581536Y-108635000D02*
X164585919Y-108694590D01*
X164585919Y-108694590D02*
X164590945Y-108741933D01*
X164590945Y-108741933D02*
X164596661Y-108778531D01*
X164596661Y-108778531D02*
X164603116Y-108805886D01*
X164603116Y-108805886D02*
X164610359Y-108825502D01*
X164610359Y-108825502D02*
X164618437Y-108838879D01*
X164618437Y-108838879D02*
X164627398Y-108847521D01*
X164627398Y-108847521D02*
X164637292Y-108852930D01*
X164637292Y-108852930D02*
X164648165Y-108856608D01*
X164648165Y-108856608D02*
X164660067Y-108860058D01*
X164660067Y-108860058D02*
X164673046Y-108864782D01*
X164673046Y-108864782D02*
X164676217Y-108866220D01*
X164676217Y-108866220D02*
X164686181Y-108869451D01*
X164686181Y-108869451D02*
X164702859Y-108872420D01*
X164702859Y-108872420D02*
X164727707Y-108875137D01*
X164727707Y-108875137D02*
X164762180Y-108877613D01*
X164762180Y-108877613D02*
X164807736Y-108879858D01*
X164807736Y-108879858D02*
X164865830Y-108881883D01*
X164865830Y-108881883D02*
X164937919Y-108883698D01*
X164937919Y-108883698D02*
X165025458Y-108885315D01*
X165025458Y-108885315D02*
X165129905Y-108886743D01*
X165129905Y-108886743D02*
X165252715Y-108887993D01*
X165252715Y-108887993D02*
X165395345Y-108889076D01*
X165395345Y-108889076D02*
X165559251Y-108890002D01*
X165559251Y-108890002D02*
X165745890Y-108890782D01*
X165745890Y-108890782D02*
X165956716Y-108891426D01*
X165956716Y-108891426D02*
X166193188Y-108891946D01*
X166193188Y-108891946D02*
X166456761Y-108892351D01*
X166456761Y-108892351D02*
X166748890Y-108892652D01*
X166748890Y-108892652D02*
X167071034Y-108892860D01*
X167071034Y-108892860D02*
X167424647Y-108892985D01*
X167424647Y-108892985D02*
X167811186Y-108893038D01*
X167811186Y-108893038D02*
X168232108Y-108893029D01*
X168232108Y-108893029D02*
X168368456Y-108893016D01*
X168368456Y-108893016D02*
X168798716Y-108892947D01*
X168798716Y-108892947D02*
X169194164Y-108892834D01*
X169194164Y-108892834D02*
X169556273Y-108892665D01*
X169556273Y-108892665D02*
X169886517Y-108892430D01*
X169886517Y-108892430D02*
X170186371Y-108892116D01*
X170186371Y-108892116D02*
X170457308Y-108891713D01*
X170457308Y-108891713D02*
X170700800Y-108891207D01*
X170700800Y-108891207D02*
X170918323Y-108890589D01*
X170918323Y-108890589D02*
X171111350Y-108889846D01*
X171111350Y-108889846D02*
X171281354Y-108888968D01*
X171281354Y-108888968D02*
X171429810Y-108887941D01*
X171429810Y-108887941D02*
X171558190Y-108886756D01*
X171558190Y-108886756D02*
X171667969Y-108885400D01*
X171667969Y-108885400D02*
X171760620Y-108883862D01*
X171760620Y-108883862D02*
X171837617Y-108882130D01*
X171837617Y-108882130D02*
X171900434Y-108880194D01*
X171900434Y-108880194D02*
X171950544Y-108878040D01*
X171950544Y-108878040D02*
X171989421Y-108875659D01*
X171989421Y-108875659D02*
X172018538Y-108873037D01*
X172018538Y-108873037D02*
X172039371Y-108870165D01*
X172039371Y-108870165D02*
X172053391Y-108867030D01*
X172053391Y-108867030D02*
X172061034Y-108864159D01*
X172061034Y-108864159D02*
X172074618Y-108858430D01*
X172074618Y-108858430D02*
X172087090Y-108854206D01*
X172087090Y-108854206D02*
X172098498Y-108849985D01*
X172098498Y-108849985D02*
X172108889Y-108844268D01*
X172108889Y-108844268D02*
X172118309Y-108835555D01*
X172118309Y-108835555D02*
X172126808Y-108822345D01*
X172126808Y-108822345D02*
X172134430Y-108803137D01*
X172134430Y-108803137D02*
X172141225Y-108776433D01*
X172141225Y-108776433D02*
X172147238Y-108740730D01*
X172147238Y-108740730D02*
X172152517Y-108694530D01*
X172152517Y-108694530D02*
X172157110Y-108636332D01*
X172157110Y-108636332D02*
X172161064Y-108564635D01*
X172161064Y-108564635D02*
X172164425Y-108477940D01*
X172164425Y-108477940D02*
X172167241Y-108374746D01*
X172167241Y-108374746D02*
X172169560Y-108253553D01*
X172169560Y-108253553D02*
X172171428Y-108112860D01*
X172171428Y-108112860D02*
X172171916Y-108058857D01*
X172171916Y-108058857D02*
X171687704Y-108058857D01*
X171687704Y-108058857D02*
X169976256Y-108058857D01*
X169976256Y-108058857D02*
X170009187Y-108008964D01*
X170009187Y-108008964D02*
X170041947Y-107957693D01*
X170041947Y-107957693D02*
X170069689Y-107908869D01*
X170069689Y-107908869D02*
X170092807Y-107859076D01*
X170092807Y-107859076D02*
X170111697Y-107804898D01*
X170111697Y-107804898D02*
X170126751Y-107742916D01*
X170126751Y-107742916D02*
X170138367Y-107669715D01*
X170138367Y-107669715D02*
X170146936Y-107581878D01*
X170146936Y-107581878D02*
X170152856Y-107475988D01*
X170152856Y-107475988D02*
X170156519Y-107348628D01*
X170156519Y-107348628D02*
X170158321Y-107196381D01*
X170158321Y-107196381D02*
X170158656Y-107015832D01*
X170158656Y-107015832D02*
X170157919Y-106803562D01*
X170157919Y-106803562D02*
X170157501Y-106724755D01*
X170157501Y-106724755D02*
X170152786Y-105879911D01*
X170152786Y-105879911D02*
X169617572Y-106608557D01*
X169617572Y-106608557D02*
X169465946Y-106815265D01*
X169465946Y-106815265D02*
X169334581Y-106995260D01*
X169334581Y-106995260D02*
X169222057Y-107150925D01*
X169222057Y-107150925D02*
X169126957Y-107284647D01*
X169126957Y-107284647D02*
X169047862Y-107398809D01*
X169047862Y-107398809D02*
X168983353Y-107495797D01*
X168983353Y-107495797D02*
X168932012Y-107577994D01*
X168932012Y-107577994D02*
X168892420Y-107647786D01*
X168892420Y-107647786D02*
X168863160Y-107707558D01*
X168863160Y-107707558D02*
X168842812Y-107759693D01*
X168842812Y-107759693D02*
X168829958Y-107806576D01*
X168829958Y-107806576D02*
X168823181Y-107850593D01*
X168823181Y-107850593D02*
X168821060Y-107894127D01*
X168821060Y-107894127D02*
X168822179Y-107939564D01*
X168822179Y-107939564D02*
X168822464Y-107945275D01*
X168822464Y-107945275D02*
X168828357Y-108058933D01*
X168828357Y-108058933D02*
X166952771Y-108058857D01*
X166952771Y-108058857D02*
X167092278Y-107918189D01*
X167092278Y-107918189D02*
X167130135Y-107879715D01*
X167130135Y-107879715D02*
X167166047Y-107842279D01*
X167166047Y-107842279D02*
X167201593Y-107803814D01*
X167201593Y-107803814D02*
X167238347Y-107762258D01*
X167238347Y-107762258D02*
X167277886Y-107715545D01*
X167277886Y-107715545D02*
X167321786Y-107661610D01*
X167321786Y-107661610D02*
X167371623Y-107598390D01*
X167371623Y-107598390D02*
X167428972Y-107523818D01*
X167428972Y-107523818D02*
X167495411Y-107435832D01*
X167495411Y-107435832D02*
X167572515Y-107332365D01*
X167572515Y-107332365D02*
X167661861Y-107211354D01*
X167661861Y-107211354D02*
X167765024Y-107070734D01*
X167765024Y-107070734D02*
X167883580Y-106908440D01*
X167883580Y-106908440D02*
X168019105Y-106722407D01*
X168019105Y-106722407D02*
X168173177Y-106510571D01*
X168173177Y-106510571D02*
X168299462Y-106336804D01*
X168299462Y-106336804D02*
X168457954Y-106118501D01*
X168457954Y-106118501D02*
X168596216Y-105927629D01*
X168596216Y-105927629D02*
X168715499Y-105762374D01*
X168715499Y-105762374D02*
X168817057Y-105620926D01*
X168817057Y-105620926D02*
X168902141Y-105501471D01*
X168902141Y-105501471D02*
X168972005Y-105402198D01*
X168972005Y-105402198D02*
X169027900Y-105321295D01*
X169027900Y-105321295D02*
X169071080Y-105256949D01*
X169071080Y-105256949D02*
X169102797Y-105207347D01*
X169102797Y-105207347D02*
X169124302Y-105170679D01*
X169124302Y-105170679D02*
X169136850Y-105145132D01*
X169136850Y-105145132D02*
X169141692Y-105128893D01*
X169141692Y-105128893D02*
X169140237Y-105120355D01*
X169140237Y-105120355D02*
X169122599Y-105097635D01*
X169122599Y-105097635D02*
X169084466Y-105049543D01*
X169084466Y-105049543D02*
X169028138Y-104978938D01*
X169028138Y-104978938D02*
X168955916Y-104888678D01*
X168955916Y-104888678D02*
X168870101Y-104781621D01*
X168870101Y-104781621D02*
X168772994Y-104660627D01*
X168772994Y-104660627D02*
X168666896Y-104528554D01*
X168666896Y-104528554D02*
X168554109Y-104388260D01*
X168554109Y-104388260D02*
X168436932Y-104242603D01*
X168436932Y-104242603D02*
X168317667Y-104094444D01*
X168317667Y-104094444D02*
X168252067Y-104013000D01*
X168252067Y-104013000D02*
X166623314Y-104013000D01*
X166623314Y-104013000D02*
X166555621Y-104135465D01*
X166555621Y-104135465D02*
X166487929Y-104257929D01*
X166487929Y-104257929D02*
X166487929Y-107813929D01*
X166487929Y-107813929D02*
X166555621Y-107936393D01*
X166555621Y-107936393D02*
X166623314Y-108058857D01*
X166623314Y-108058857D02*
X165822559Y-108058857D01*
X165822559Y-108058857D02*
X165631398Y-108058802D01*
X165631398Y-108058802D02*
X165473501Y-108058551D01*
X165473501Y-108058551D02*
X165345848Y-108057979D01*
X165345848Y-108057979D02*
X165245419Y-108056959D01*
X165245419Y-108056959D02*
X165169193Y-108055365D01*
X165169193Y-108055365D02*
X165114148Y-108053070D01*
X165114148Y-108053070D02*
X165077264Y-108049950D01*
X165077264Y-108049950D02*
X165055521Y-108045877D01*
X165055521Y-108045877D02*
X165045898Y-108040725D01*
X165045898Y-108040725D02*
X165045373Y-108034367D01*
X165045373Y-108034367D02*
X165050926Y-108026679D01*
X165050926Y-108026679D02*
X165050984Y-108026615D01*
X165050984Y-108026615D02*
X165073860Y-107993524D01*
X165073860Y-107993524D02*
X165104151Y-107939719D01*
X165104151Y-107939719D02*
X165130903Y-107886008D01*
X165130903Y-107886008D02*
X165181643Y-107777643D01*
X165181643Y-107777643D02*
X165186818Y-105895322D01*
X165186818Y-105895322D02*
X165191993Y-104013000D01*
X165191993Y-104013000D02*
X166623314Y-104013000D01*
X166623314Y-104013000D02*
X168252067Y-104013000D01*
X168252067Y-104013000D02*
X168198615Y-103946639D01*
X168198615Y-103946639D02*
X168082077Y-103802047D01*
X168082077Y-103802047D02*
X167970354Y-103663528D01*
X167970354Y-103663528D02*
X167865746Y-103533939D01*
X167865746Y-103533939D02*
X167770556Y-103416140D01*
X167770556Y-103416140D02*
X167687083Y-103312988D01*
X167687083Y-103312988D02*
X167617629Y-103227343D01*
X167617629Y-103227343D02*
X167564494Y-103162062D01*
X167564494Y-103162062D02*
X167533285Y-103124000D01*
X167533285Y-103124000D02*
X167412097Y-102981670D01*
X167412097Y-102981670D02*
X167295507Y-102853230D01*
X167295507Y-102853230D02*
X167187603Y-102742886D01*
X167187603Y-102742886D02*
X167092470Y-102654841D01*
X167092470Y-102654841D02*
X167024957Y-102600862D01*
X167024957Y-102600862D02*
X166945127Y-102543429D01*
X166945127Y-102543429D02*
X168781108Y-102543429D01*
X168781108Y-102543429D02*
X168780592Y-102651165D01*
X168780592Y-102651165D02*
X168785724Y-102730372D01*
X168785724Y-102730372D02*
X168805015Y-102803805D01*
X168805015Y-102803805D02*
X168834877Y-102873415D01*
X168834877Y-102873415D02*
X168854288Y-102912741D01*
X168854288Y-102912741D02*
X168875159Y-102951707D01*
X168875159Y-102951707D02*
X168899396Y-102992901D01*
X168899396Y-102992901D02*
X168928906Y-103038908D01*
X168928906Y-103038908D02*
X168965594Y-103092317D01*
X168965594Y-103092317D02*
X169011368Y-103155714D01*
X169011368Y-103155714D02*
X169068135Y-103231685D01*
X169068135Y-103231685D02*
X169137800Y-103322817D01*
X169137800Y-103322817D02*
X169222270Y-103431698D01*
X169222270Y-103431698D02*
X169323453Y-103560914D01*
X169323453Y-103560914D02*
X169443253Y-103713052D01*
X169443253Y-103713052D02*
X169583579Y-103890698D01*
X169583579Y-103890698D02*
X169599429Y-103910742D01*
X169599429Y-103910742D02*
X170152786Y-104610508D01*
X170152786Y-104610508D02*
X170158143Y-103835504D01*
X170158143Y-103835504D02*
X170159221Y-103603368D01*
X170159221Y-103603368D02*
X170158992Y-103406846D01*
X170158992Y-103406846D02*
X170157443Y-103245292D01*
X170157443Y-103245292D02*
X170154563Y-103118056D01*
X170154563Y-103118056D02*
X170150341Y-103024492D01*
X170150341Y-103024492D02*
X170144766Y-102963952D01*
X170144766Y-102963952D02*
X170142893Y-102952468D01*
X170142893Y-102952468D02*
X170113495Y-102831499D01*
X170113495Y-102831499D02*
X170074978Y-102722446D01*
X170074978Y-102722446D02*
X170031026Y-102634763D01*
X170031026Y-102634763D02*
X170004621Y-102597574D01*
X170004621Y-102597574D02*
X169959060Y-102543429D01*
X169959060Y-102543429D02*
X170823530Y-102543429D01*
X170823530Y-102543429D02*
X171029745Y-102543605D01*
X171029745Y-102543605D02*
X171202188Y-102544179D01*
X171202188Y-102544179D02*
X171343373Y-102545217D01*
X171343373Y-102545217D02*
X171455812Y-102546787D01*
X171455812Y-102546787D02*
X171542017Y-102548954D01*
X171542017Y-102548954D02*
X171604502Y-102551788D01*
X171604502Y-102551788D02*
X171645779Y-102555353D01*
X171645779Y-102555353D02*
X171668360Y-102559718D01*
X171668360Y-102559718D02*
X171674759Y-102564949D01*
X171674759Y-102564949D02*
X171674317Y-102566107D01*
X171674317Y-102566107D02*
X171655991Y-102593769D01*
X171655991Y-102593769D02*
X171625396Y-102637615D01*
X171625396Y-102637615D02*
X171609567Y-102659791D01*
X171609567Y-102659791D02*
X171593202Y-102681920D01*
X171593202Y-102681920D02*
X171578492Y-102701709D01*
X171578492Y-102701709D02*
X171565344Y-102721106D01*
X171565344Y-102721106D02*
X171553667Y-102742058D01*
X171553667Y-102742058D02*
X171543368Y-102766512D01*
X171543368Y-102766512D02*
X171534354Y-102796416D01*
X171534354Y-102796416D02*
X171526532Y-102833717D01*
X171526532Y-102833717D02*
X171519809Y-102880363D01*
X171519809Y-102880363D02*
X171514094Y-102938301D01*
X171514094Y-102938301D02*
X171509293Y-103009479D01*
X171509293Y-103009479D02*
X171505315Y-103095844D01*
X171505315Y-103095844D02*
X171502065Y-103199344D01*
X171502065Y-103199344D02*
X171499452Y-103321925D01*
X171499452Y-103321925D02*
X171497383Y-103465537D01*
X171497383Y-103465537D02*
X171495766Y-103632125D01*
X171495766Y-103632125D02*
X171494507Y-103823637D01*
X171494507Y-103823637D02*
X171493515Y-104042022D01*
X171493515Y-104042022D02*
X171492696Y-104289226D01*
X171492696Y-104289226D02*
X171491958Y-104567196D01*
X171491958Y-104567196D02*
X171491209Y-104877881D01*
X171491209Y-104877881D02*
X171490508Y-105163300D01*
X171490508Y-105163300D02*
X171489847Y-105481492D01*
X171489847Y-105481492D02*
X171489503Y-105785077D01*
X171489503Y-105785077D02*
X171489468Y-106072115D01*
X171489468Y-106072115D02*
X171489732Y-106340669D01*
X171489732Y-106340669D02*
X171490285Y-106588798D01*
X171490285Y-106588798D02*
X171491120Y-106814563D01*
X171491120Y-106814563D02*
X171492227Y-107016026D01*
X171492227Y-107016026D02*
X171493596Y-107191246D01*
X171493596Y-107191246D02*
X171495219Y-107338286D01*
X171495219Y-107338286D02*
X171497087Y-107455206D01*
X171497087Y-107455206D02*
X171499189Y-107540067D01*
X171499189Y-107540067D02*
X171501518Y-107590929D01*
X171501518Y-107590929D02*
X171501959Y-107596304D01*
X171501959Y-107596304D02*
X171518008Y-107719613D01*
X171518008Y-107719613D02*
X171543064Y-107818644D01*
X171543064Y-107818644D02*
X171581221Y-107905070D01*
X171581221Y-107905070D02*
X171636572Y-107990565D01*
X171636572Y-107990565D02*
X171643496Y-107999893D01*
X171643496Y-107999893D02*
X171687704Y-108058857D01*
X171687704Y-108058857D02*
X172171916Y-108058857D01*
X172171916Y-108058857D02*
X172172892Y-107951168D01*
X172172892Y-107951168D02*
X172174001Y-107766976D01*
X172174001Y-107766976D02*
X172174801Y-107558784D01*
X172174801Y-107558784D02*
X172175339Y-107325091D01*
X172175339Y-107325091D02*
X172175662Y-107064398D01*
X172175662Y-107064398D02*
X172175817Y-106775204D01*
X172175817Y-106775204D02*
X172175854Y-106456009D01*
X172175854Y-106456009D02*
X172175817Y-106105313D01*
X172175817Y-106105313D02*
X172175755Y-105721614D01*
X172175755Y-105721614D02*
X172175715Y-105303414D01*
X172175715Y-105303414D02*
X172175714Y-105220393D01*
X172175714Y-105220393D02*
X172175691Y-104797789D01*
X172175691Y-104797789D02*
X172175612Y-104409981D01*
X172175612Y-104409981D02*
X172175467Y-104055480D01*
X172175467Y-104055480D02*
X172175244Y-103732797D01*
X172175244Y-103732797D02*
X172174931Y-103440442D01*
X172174931Y-103440442D02*
X172174517Y-103176927D01*
X172174517Y-103176927D02*
X172173991Y-102940762D01*
X172173991Y-102940762D02*
X172173340Y-102730458D01*
X172173340Y-102730458D02*
X172172553Y-102544526D01*
X172172553Y-102544526D02*
X172171619Y-102381475D01*
X172171619Y-102381475D02*
X172170526Y-102239818D01*
X172170526Y-102239818D02*
X172169263Y-102118064D01*
X172169263Y-102118064D02*
X172167817Y-102014725D01*
X172167817Y-102014725D02*
X172166179Y-101928311D01*
X172166179Y-101928311D02*
X172164334Y-101857333D01*
X172164334Y-101857333D02*
X172162274Y-101800301D01*
X172162274Y-101800301D02*
X172159985Y-101755727D01*
X172159985Y-101755727D02*
X172157456Y-101722121D01*
X172157456Y-101722121D02*
X172154676Y-101697993D01*
X172154676Y-101697993D02*
X172151633Y-101681856D01*
X172151633Y-101681856D02*
X172148316Y-101672218D01*
X172148316Y-101672218D02*
X172148193Y-101671978D01*
X172148193Y-101671978D02*
X172141360Y-101657255D01*
X172141360Y-101657255D02*
X172135670Y-101643926D01*
X172135670Y-101643926D02*
X172129374Y-101631922D01*
X172129374Y-101631922D02*
X172120728Y-101621173D01*
X172120728Y-101621173D02*
X172107986Y-101611611D01*
X172107986Y-101611611D02*
X172089400Y-101603167D01*
X172089400Y-101603167D02*
X172063226Y-101595771D01*
X172063226Y-101595771D02*
X172027716Y-101589354D01*
X172027716Y-101589354D02*
X171981125Y-101583848D01*
X171981125Y-101583848D02*
X171921707Y-101579183D01*
X171921707Y-101579183D02*
X171847715Y-101575291D01*
X171847715Y-101575291D02*
X171757403Y-101572102D01*
X171757403Y-101572102D02*
X171649025Y-101569547D01*
X171649025Y-101569547D02*
X171520835Y-101567558D01*
X171520835Y-101567558D02*
X171371087Y-101566065D01*
X171371087Y-101566065D02*
X171198034Y-101564998D01*
X171198034Y-101564998D02*
X170999931Y-101564291D01*
X170999931Y-101564291D02*
X170775031Y-101563872D01*
X170775031Y-101563872D02*
X170521588Y-101563673D01*
X170521588Y-101563673D02*
X170237856Y-101563626D01*
X170237856Y-101563626D02*
X169922089Y-101563660D01*
X169922089Y-101563660D02*
X169922089Y-101563660D01*
G36*
X172169560Y-108253553D02*
G01*
X172167241Y-108374746D01*
X172164425Y-108477940D01*
X172161064Y-108564635D01*
X172157110Y-108636332D01*
X172152517Y-108694530D01*
X172147238Y-108740730D01*
X172141225Y-108776433D01*
X172134430Y-108803137D01*
X172126808Y-108822345D01*
X172118309Y-108835555D01*
X172108889Y-108844268D01*
X172098498Y-108849985D01*
X172087090Y-108854206D01*
X172074618Y-108858430D01*
X172061034Y-108864159D01*
X172053391Y-108867030D01*
X172039371Y-108870165D01*
X172018538Y-108873037D01*
X171989421Y-108875659D01*
X171950544Y-108878040D01*
X171900434Y-108880194D01*
X171837617Y-108882130D01*
X171760620Y-108883862D01*
X171667969Y-108885400D01*
X171558190Y-108886756D01*
X171429810Y-108887941D01*
X171281354Y-108888968D01*
X171111350Y-108889846D01*
X170918323Y-108890589D01*
X170700800Y-108891207D01*
X170457308Y-108891713D01*
X170186371Y-108892116D01*
X169886517Y-108892430D01*
X169556273Y-108892665D01*
X169194164Y-108892834D01*
X168798716Y-108892947D01*
X168368456Y-108893016D01*
X168232108Y-108893029D01*
X167811186Y-108893038D01*
X167424647Y-108892985D01*
X167071034Y-108892860D01*
X166748890Y-108892652D01*
X166456761Y-108892351D01*
X166193188Y-108891946D01*
X165956716Y-108891426D01*
X165745890Y-108890782D01*
X165559251Y-108890002D01*
X165395345Y-108889076D01*
X165252715Y-108887993D01*
X165129905Y-108886743D01*
X165025458Y-108885315D01*
X164937919Y-108883698D01*
X164865830Y-108881883D01*
X164807736Y-108879858D01*
X164762180Y-108877613D01*
X164727707Y-108875137D01*
X164702859Y-108872420D01*
X164686181Y-108869451D01*
X164676217Y-108866220D01*
X164673046Y-108864782D01*
X164660067Y-108860058D01*
X164648165Y-108856608D01*
X164637292Y-108852930D01*
X164627398Y-108847521D01*
X164618437Y-108838879D01*
X164610359Y-108825502D01*
X164603116Y-108805886D01*
X164596661Y-108778531D01*
X164590945Y-108741933D01*
X164585919Y-108694590D01*
X164581536Y-108635000D01*
X164577747Y-108561659D01*
X164574504Y-108473067D01*
X164571759Y-108367720D01*
X164569463Y-108244117D01*
X164567568Y-108100754D01*
X164566946Y-108034367D01*
X165045373Y-108034367D01*
X165045898Y-108040725D01*
X165055521Y-108045877D01*
X165077264Y-108049950D01*
X165114148Y-108053070D01*
X165169193Y-108055365D01*
X165245419Y-108056959D01*
X165345848Y-108057979D01*
X165473501Y-108058551D01*
X165631398Y-108058802D01*
X165822559Y-108058857D01*
X166623314Y-108058857D01*
X166555621Y-107936393D01*
X166487929Y-107813929D01*
X166487929Y-104257929D01*
X166555621Y-104135465D01*
X166623314Y-104013000D01*
X165191993Y-104013000D01*
X165186818Y-105895322D01*
X165181643Y-107777643D01*
X165130903Y-107886008D01*
X165104151Y-107939719D01*
X165073860Y-107993524D01*
X165050984Y-108026615D01*
X165050926Y-108026679D01*
X165045373Y-108034367D01*
X164566946Y-108034367D01*
X164566026Y-107936129D01*
X164564789Y-107748740D01*
X164563808Y-107537085D01*
X164563035Y-107299661D01*
X164562422Y-107034966D01*
X164561921Y-106741498D01*
X164561484Y-106417753D01*
X164561061Y-106062230D01*
X164560605Y-105673426D01*
X164560068Y-105249840D01*
X164559999Y-105198560D01*
X164559400Y-104777657D01*
X164558827Y-104391362D01*
X164558323Y-104038172D01*
X164557930Y-103716584D01*
X164557690Y-103425094D01*
X164557646Y-103162200D01*
X164557840Y-102926398D01*
X164558314Y-102716186D01*
X164559112Y-102530060D01*
X164560274Y-102366517D01*
X164561844Y-102224055D01*
X164563864Y-102101170D01*
X164566377Y-101996359D01*
X164569424Y-101908119D01*
X164573049Y-101834947D01*
X164577293Y-101775340D01*
X164582198Y-101727795D01*
X164587808Y-101690808D01*
X164594165Y-101662878D01*
X164601311Y-101642500D01*
X164609288Y-101628171D01*
X164618139Y-101618390D01*
X164627906Y-101611651D01*
X164638632Y-101606454D01*
X164650358Y-101601293D01*
X164663128Y-101594667D01*
X164666865Y-101592556D01*
X164723405Y-101572118D01*
X164785300Y-101563717D01*
X164855072Y-101563720D01*
X164856234Y-101722467D01*
X164856529Y-101740735D01*
X164878706Y-101926427D01*
X164935188Y-102101147D01*
X165025192Y-102263043D01*
X165147932Y-102410265D01*
X165213798Y-102470311D01*
X165360454Y-102569838D01*
X165520470Y-102639242D01*
X165689185Y-102678487D01*
X165861939Y-102687537D01*
X166034072Y-102666353D01*
X166200922Y-102614899D01*
X166338080Y-102543429D01*
X166945127Y-102543429D01*
X167024957Y-102600862D01*
X167092470Y-102654841D01*
X167187603Y-102742886D01*
X167295507Y-102853230D01*
X167412097Y-102981670D01*
X167533285Y-103124000D01*
X167564494Y-103162062D01*
X167617629Y-103227343D01*
X167687083Y-103312988D01*
X167770556Y-103416140D01*
X167865746Y-103533939D01*
X167970354Y-103663528D01*
X168082077Y-103802047D01*
X168198615Y-103946639D01*
X168252067Y-104013000D01*
X168317667Y-104094444D01*
X168436932Y-104242603D01*
X168554109Y-104388260D01*
X168666896Y-104528554D01*
X168772994Y-104660627D01*
X168870101Y-104781621D01*
X168955916Y-104888678D01*
X169028138Y-104978938D01*
X169084466Y-105049543D01*
X169122599Y-105097635D01*
X169140237Y-105120355D01*
X169141692Y-105128893D01*
X169136850Y-105145132D01*
X169124302Y-105170679D01*
X169102797Y-105207347D01*
X169071080Y-105256949D01*
X169027900Y-105321295D01*
X168972005Y-105402198D01*
X168902141Y-105501471D01*
X168817057Y-105620926D01*
X168715499Y-105762374D01*
X168596216Y-105927629D01*
X168457954Y-106118501D01*
X168299462Y-106336804D01*
X168173177Y-106510571D01*
X168019105Y-106722407D01*
X167883580Y-106908440D01*
X167765024Y-107070734D01*
X167661861Y-107211354D01*
X167572515Y-107332365D01*
X167495411Y-107435832D01*
X167428972Y-107523818D01*
X167371623Y-107598390D01*
X167321786Y-107661610D01*
X167277886Y-107715545D01*
X167238347Y-107762258D01*
X167201593Y-107803814D01*
X167166047Y-107842279D01*
X167130135Y-107879715D01*
X167092278Y-107918189D01*
X166952771Y-108058857D01*
X168828357Y-108058933D01*
X168822464Y-107945275D01*
X168822179Y-107939564D01*
X168821060Y-107894127D01*
X168823181Y-107850593D01*
X168829958Y-107806576D01*
X168842812Y-107759693D01*
X168863160Y-107707558D01*
X168892420Y-107647786D01*
X168932012Y-107577994D01*
X168983353Y-107495797D01*
X169047862Y-107398809D01*
X169126957Y-107284647D01*
X169222057Y-107150925D01*
X169334581Y-106995260D01*
X169465946Y-106815265D01*
X169617572Y-106608557D01*
X170152786Y-105879911D01*
X170157501Y-106724755D01*
X170157919Y-106803562D01*
X170158656Y-107015832D01*
X170158321Y-107196381D01*
X170156519Y-107348628D01*
X170152856Y-107475988D01*
X170146936Y-107581878D01*
X170138367Y-107669715D01*
X170126751Y-107742916D01*
X170111697Y-107804898D01*
X170092807Y-107859076D01*
X170069689Y-107908869D01*
X170041947Y-107957693D01*
X170009187Y-108008964D01*
X169976256Y-108058857D01*
X171687704Y-108058857D01*
X171643496Y-107999893D01*
X171636572Y-107990565D01*
X171581221Y-107905070D01*
X171543064Y-107818644D01*
X171518008Y-107719613D01*
X171501959Y-107596304D01*
X171501518Y-107590929D01*
X171499189Y-107540067D01*
X171497087Y-107455206D01*
X171495219Y-107338286D01*
X171493596Y-107191246D01*
X171492227Y-107016026D01*
X171491120Y-106814563D01*
X171490285Y-106588798D01*
X171489732Y-106340669D01*
X171489468Y-106072115D01*
X171489503Y-105785077D01*
X171489847Y-105481492D01*
X171490508Y-105163300D01*
X171491209Y-104877881D01*
X171491958Y-104567196D01*
X171492696Y-104289226D01*
X171493515Y-104042022D01*
X171494507Y-103823637D01*
X171495766Y-103632125D01*
X171497383Y-103465537D01*
X171499452Y-103321925D01*
X171502065Y-103199344D01*
X171505315Y-103095844D01*
X171509293Y-103009479D01*
X171514094Y-102938301D01*
X171519809Y-102880363D01*
X171526532Y-102833717D01*
X171534354Y-102796416D01*
X171543368Y-102766512D01*
X171553667Y-102742058D01*
X171565344Y-102721106D01*
X171578492Y-102701709D01*
X171593202Y-102681920D01*
X171609567Y-102659791D01*
X171625396Y-102637615D01*
X171655991Y-102593769D01*
X171674317Y-102566107D01*
X171674759Y-102564949D01*
X171668360Y-102559718D01*
X171645779Y-102555353D01*
X171604502Y-102551788D01*
X171542017Y-102548954D01*
X171455812Y-102546787D01*
X171343373Y-102545217D01*
X171202188Y-102544179D01*
X171029745Y-102543605D01*
X170823530Y-102543429D01*
X169959060Y-102543429D01*
X170004621Y-102597574D01*
X170031026Y-102634763D01*
X170074978Y-102722446D01*
X170113495Y-102831499D01*
X170142893Y-102952468D01*
X170144766Y-102963952D01*
X170150341Y-103024492D01*
X170154563Y-103118056D01*
X170157443Y-103245292D01*
X170158992Y-103406846D01*
X170159221Y-103603368D01*
X170158143Y-103835504D01*
X170152786Y-104610508D01*
X169599429Y-103910742D01*
X169583579Y-103890698D01*
X169443253Y-103713052D01*
X169323453Y-103560914D01*
X169222270Y-103431698D01*
X169137800Y-103322817D01*
X169068135Y-103231685D01*
X169011368Y-103155714D01*
X168965594Y-103092317D01*
X168928906Y-103038908D01*
X168899396Y-102992901D01*
X168875159Y-102951707D01*
X168854288Y-102912741D01*
X168834877Y-102873415D01*
X168805015Y-102803805D01*
X168785724Y-102730372D01*
X168780592Y-102651165D01*
X168781108Y-102543429D01*
X166945127Y-102543429D01*
X166338080Y-102543429D01*
X166357830Y-102533138D01*
X166500136Y-102421032D01*
X166539695Y-102381510D01*
X166656620Y-102235175D01*
X166739588Y-102076367D01*
X166789043Y-101904063D01*
X166805429Y-101717238D01*
X166805429Y-101563715D01*
X169409830Y-101563714D01*
X169572540Y-101563707D01*
X169922089Y-101563660D01*
X170237856Y-101563626D01*
X170521588Y-101563673D01*
X170775031Y-101563872D01*
X170999931Y-101564291D01*
X171198034Y-101564998D01*
X171371087Y-101566065D01*
X171520835Y-101567558D01*
X171649025Y-101569547D01*
X171757403Y-101572102D01*
X171847715Y-101575291D01*
X171921707Y-101579183D01*
X171981125Y-101583848D01*
X172027716Y-101589354D01*
X172063226Y-101595771D01*
X172089400Y-101603167D01*
X172107986Y-101611611D01*
X172120728Y-101621173D01*
X172129374Y-101631922D01*
X172135670Y-101643926D01*
X172141360Y-101657255D01*
X172148193Y-101671978D01*
X172148316Y-101672218D01*
X172151633Y-101681856D01*
X172154676Y-101697993D01*
X172157456Y-101722121D01*
X172159985Y-101755727D01*
X172162274Y-101800301D01*
X172164334Y-101857333D01*
X172166179Y-101928311D01*
X172167817Y-102014725D01*
X172169263Y-102118064D01*
X172170526Y-102239818D01*
X172171619Y-102381475D01*
X172172553Y-102544526D01*
X172173340Y-102730458D01*
X172173991Y-102940762D01*
X172174517Y-103176927D01*
X172174931Y-103440442D01*
X172175244Y-103732797D01*
X172175467Y-104055480D01*
X172175612Y-104409981D01*
X172175691Y-104797789D01*
X172175714Y-105220393D01*
X172175715Y-105303414D01*
X172175755Y-105721614D01*
X172175817Y-106105313D01*
X172175854Y-106456009D01*
X172175817Y-106775204D01*
X172175662Y-107064398D01*
X172175339Y-107325091D01*
X172174801Y-107558784D01*
X172174001Y-107766976D01*
X172172892Y-107951168D01*
X172171916Y-108058857D01*
X172171428Y-108112860D01*
X172169560Y-108253553D01*
G37*
X172169560Y-108253553D02*
X172167241Y-108374746D01*
X172164425Y-108477940D01*
X172161064Y-108564635D01*
X172157110Y-108636332D01*
X172152517Y-108694530D01*
X172147238Y-108740730D01*
X172141225Y-108776433D01*
X172134430Y-108803137D01*
X172126808Y-108822345D01*
X172118309Y-108835555D01*
X172108889Y-108844268D01*
X172098498Y-108849985D01*
X172087090Y-108854206D01*
X172074618Y-108858430D01*
X172061034Y-108864159D01*
X172053391Y-108867030D01*
X172039371Y-108870165D01*
X172018538Y-108873037D01*
X171989421Y-108875659D01*
X171950544Y-108878040D01*
X171900434Y-108880194D01*
X171837617Y-108882130D01*
X171760620Y-108883862D01*
X171667969Y-108885400D01*
X171558190Y-108886756D01*
X171429810Y-108887941D01*
X171281354Y-108888968D01*
X171111350Y-108889846D01*
X170918323Y-108890589D01*
X170700800Y-108891207D01*
X170457308Y-108891713D01*
X170186371Y-108892116D01*
X169886517Y-108892430D01*
X169556273Y-108892665D01*
X169194164Y-108892834D01*
X168798716Y-108892947D01*
X168368456Y-108893016D01*
X168232108Y-108893029D01*
X167811186Y-108893038D01*
X167424647Y-108892985D01*
X167071034Y-108892860D01*
X166748890Y-108892652D01*
X166456761Y-108892351D01*
X166193188Y-108891946D01*
X165956716Y-108891426D01*
X165745890Y-108890782D01*
X165559251Y-108890002D01*
X165395345Y-108889076D01*
X165252715Y-108887993D01*
X165129905Y-108886743D01*
X165025458Y-108885315D01*
X164937919Y-108883698D01*
X164865830Y-108881883D01*
X164807736Y-108879858D01*
X164762180Y-108877613D01*
X164727707Y-108875137D01*
X164702859Y-108872420D01*
X164686181Y-108869451D01*
X164676217Y-108866220D01*
X164673046Y-108864782D01*
X164660067Y-108860058D01*
X164648165Y-108856608D01*
X164637292Y-108852930D01*
X164627398Y-108847521D01*
X164618437Y-108838879D01*
X164610359Y-108825502D01*
X164603116Y-108805886D01*
X164596661Y-108778531D01*
X164590945Y-108741933D01*
X164585919Y-108694590D01*
X164581536Y-108635000D01*
X164577747Y-108561659D01*
X164574504Y-108473067D01*
X164571759Y-108367720D01*
X164569463Y-108244117D01*
X164567568Y-108100754D01*
X164566946Y-108034367D01*
X165045373Y-108034367D01*
X165045898Y-108040725D01*
X165055521Y-108045877D01*
X165077264Y-108049950D01*
X165114148Y-108053070D01*
X165169193Y-108055365D01*
X165245419Y-108056959D01*
X165345848Y-108057979D01*
X165473501Y-108058551D01*
X165631398Y-108058802D01*
X165822559Y-108058857D01*
X166623314Y-108058857D01*
X166555621Y-107936393D01*
X166487929Y-107813929D01*
X166487929Y-104257929D01*
X166555621Y-104135465D01*
X166623314Y-104013000D01*
X165191993Y-104013000D01*
X165186818Y-105895322D01*
X165181643Y-107777643D01*
X165130903Y-107886008D01*
X165104151Y-107939719D01*
X165073860Y-107993524D01*
X165050984Y-108026615D01*
X165050926Y-108026679D01*
X165045373Y-108034367D01*
X164566946Y-108034367D01*
X164566026Y-107936129D01*
X164564789Y-107748740D01*
X164563808Y-107537085D01*
X164563035Y-107299661D01*
X164562422Y-107034966D01*
X164561921Y-106741498D01*
X164561484Y-106417753D01*
X164561061Y-106062230D01*
X164560605Y-105673426D01*
X164560068Y-105249840D01*
X164559999Y-105198560D01*
X164559400Y-104777657D01*
X164558827Y-104391362D01*
X164558323Y-104038172D01*
X164557930Y-103716584D01*
X164557690Y-103425094D01*
X164557646Y-103162200D01*
X164557840Y-102926398D01*
X164558314Y-102716186D01*
X164559112Y-102530060D01*
X164560274Y-102366517D01*
X164561844Y-102224055D01*
X164563864Y-102101170D01*
X164566377Y-101996359D01*
X164569424Y-101908119D01*
X164573049Y-101834947D01*
X164577293Y-101775340D01*
X164582198Y-101727795D01*
X164587808Y-101690808D01*
X164594165Y-101662878D01*
X164601311Y-101642500D01*
X164609288Y-101628171D01*
X164618139Y-101618390D01*
X164627906Y-101611651D01*
X164638632Y-101606454D01*
X164650358Y-101601293D01*
X164663128Y-101594667D01*
X164666865Y-101592556D01*
X164723405Y-101572118D01*
X164785300Y-101563717D01*
X164855072Y-101563720D01*
X164856234Y-101722467D01*
X164856529Y-101740735D01*
X164878706Y-101926427D01*
X164935188Y-102101147D01*
X165025192Y-102263043D01*
X165147932Y-102410265D01*
X165213798Y-102470311D01*
X165360454Y-102569838D01*
X165520470Y-102639242D01*
X165689185Y-102678487D01*
X165861939Y-102687537D01*
X166034072Y-102666353D01*
X166200922Y-102614899D01*
X166338080Y-102543429D01*
X166945127Y-102543429D01*
X167024957Y-102600862D01*
X167092470Y-102654841D01*
X167187603Y-102742886D01*
X167295507Y-102853230D01*
X167412097Y-102981670D01*
X167533285Y-103124000D01*
X167564494Y-103162062D01*
X167617629Y-103227343D01*
X167687083Y-103312988D01*
X167770556Y-103416140D01*
X167865746Y-103533939D01*
X167970354Y-103663528D01*
X168082077Y-103802047D01*
X168198615Y-103946639D01*
X168252067Y-104013000D01*
X168317667Y-104094444D01*
X168436932Y-104242603D01*
X168554109Y-104388260D01*
X168666896Y-104528554D01*
X168772994Y-104660627D01*
X168870101Y-104781621D01*
X168955916Y-104888678D01*
X169028138Y-104978938D01*
X169084466Y-105049543D01*
X169122599Y-105097635D01*
X169140237Y-105120355D01*
X169141692Y-105128893D01*
X169136850Y-105145132D01*
X169124302Y-105170679D01*
X169102797Y-105207347D01*
X169071080Y-105256949D01*
X169027900Y-105321295D01*
X168972005Y-105402198D01*
X168902141Y-105501471D01*
X168817057Y-105620926D01*
X168715499Y-105762374D01*
X168596216Y-105927629D01*
X168457954Y-106118501D01*
X168299462Y-106336804D01*
X168173177Y-106510571D01*
X168019105Y-106722407D01*
X167883580Y-106908440D01*
X167765024Y-107070734D01*
X167661861Y-107211354D01*
X167572515Y-107332365D01*
X167495411Y-107435832D01*
X167428972Y-107523818D01*
X167371623Y-107598390D01*
X167321786Y-107661610D01*
X167277886Y-107715545D01*
X167238347Y-107762258D01*
X167201593Y-107803814D01*
X167166047Y-107842279D01*
X167130135Y-107879715D01*
X167092278Y-107918189D01*
X166952771Y-108058857D01*
X168828357Y-108058933D01*
X168822464Y-107945275D01*
X168822179Y-107939564D01*
X168821060Y-107894127D01*
X168823181Y-107850593D01*
X168829958Y-107806576D01*
X168842812Y-107759693D01*
X168863160Y-107707558D01*
X168892420Y-107647786D01*
X168932012Y-107577994D01*
X168983353Y-107495797D01*
X169047862Y-107398809D01*
X169126957Y-107284647D01*
X169222057Y-107150925D01*
X169334581Y-106995260D01*
X169465946Y-106815265D01*
X169617572Y-106608557D01*
X170152786Y-105879911D01*
X170157501Y-106724755D01*
X170157919Y-106803562D01*
X170158656Y-107015832D01*
X170158321Y-107196381D01*
X170156519Y-107348628D01*
X170152856Y-107475988D01*
X170146936Y-107581878D01*
X170138367Y-107669715D01*
X170126751Y-107742916D01*
X170111697Y-107804898D01*
X170092807Y-107859076D01*
X170069689Y-107908869D01*
X170041947Y-107957693D01*
X170009187Y-108008964D01*
X169976256Y-108058857D01*
X171687704Y-108058857D01*
X171643496Y-107999893D01*
X171636572Y-107990565D01*
X171581221Y-107905070D01*
X171543064Y-107818644D01*
X171518008Y-107719613D01*
X171501959Y-107596304D01*
X171501518Y-107590929D01*
X171499189Y-107540067D01*
X171497087Y-107455206D01*
X171495219Y-107338286D01*
X171493596Y-107191246D01*
X171492227Y-107016026D01*
X171491120Y-106814563D01*
X171490285Y-106588798D01*
X171489732Y-106340669D01*
X171489468Y-106072115D01*
X171489503Y-105785077D01*
X171489847Y-105481492D01*
X171490508Y-105163300D01*
X171491209Y-104877881D01*
X171491958Y-104567196D01*
X171492696Y-104289226D01*
X171493515Y-104042022D01*
X171494507Y-103823637D01*
X171495766Y-103632125D01*
X171497383Y-103465537D01*
X171499452Y-103321925D01*
X171502065Y-103199344D01*
X171505315Y-103095844D01*
X171509293Y-103009479D01*
X171514094Y-102938301D01*
X171519809Y-102880363D01*
X171526532Y-102833717D01*
X171534354Y-102796416D01*
X171543368Y-102766512D01*
X171553667Y-102742058D01*
X171565344Y-102721106D01*
X171578492Y-102701709D01*
X171593202Y-102681920D01*
X171609567Y-102659791D01*
X171625396Y-102637615D01*
X171655991Y-102593769D01*
X171674317Y-102566107D01*
X171674759Y-102564949D01*
X171668360Y-102559718D01*
X171645779Y-102555353D01*
X171604502Y-102551788D01*
X171542017Y-102548954D01*
X171455812Y-102546787D01*
X171343373Y-102545217D01*
X171202188Y-102544179D01*
X171029745Y-102543605D01*
X170823530Y-102543429D01*
X169959060Y-102543429D01*
X170004621Y-102597574D01*
X170031026Y-102634763D01*
X170074978Y-102722446D01*
X170113495Y-102831499D01*
X170142893Y-102952468D01*
X170144766Y-102963952D01*
X170150341Y-103024492D01*
X170154563Y-103118056D01*
X170157443Y-103245292D01*
X170158992Y-103406846D01*
X170159221Y-103603368D01*
X170158143Y-103835504D01*
X170152786Y-104610508D01*
X169599429Y-103910742D01*
X169583579Y-103890698D01*
X169443253Y-103713052D01*
X169323453Y-103560914D01*
X169222270Y-103431698D01*
X169137800Y-103322817D01*
X169068135Y-103231685D01*
X169011368Y-103155714D01*
X168965594Y-103092317D01*
X168928906Y-103038908D01*
X168899396Y-102992901D01*
X168875159Y-102951707D01*
X168854288Y-102912741D01*
X168834877Y-102873415D01*
X168805015Y-102803805D01*
X168785724Y-102730372D01*
X168780592Y-102651165D01*
X168781108Y-102543429D01*
X166945127Y-102543429D01*
X166338080Y-102543429D01*
X166357830Y-102533138D01*
X166500136Y-102421032D01*
X166539695Y-102381510D01*
X166656620Y-102235175D01*
X166739588Y-102076367D01*
X166789043Y-101904063D01*
X166805429Y-101717238D01*
X166805429Y-101563715D01*
X169409830Y-101563714D01*
X169572540Y-101563707D01*
X169922089Y-101563660D01*
X170237856Y-101563626D01*
X170521588Y-101563673D01*
X170775031Y-101563872D01*
X170999931Y-101564291D01*
X171198034Y-101564998D01*
X171371087Y-101566065D01*
X171520835Y-101567558D01*
X171649025Y-101569547D01*
X171757403Y-101572102D01*
X171847715Y-101575291D01*
X171921707Y-101579183D01*
X171981125Y-101583848D01*
X172027716Y-101589354D01*
X172063226Y-101595771D01*
X172089400Y-101603167D01*
X172107986Y-101611611D01*
X172120728Y-101621173D01*
X172129374Y-101631922D01*
X172135670Y-101643926D01*
X172141360Y-101657255D01*
X172148193Y-101671978D01*
X172148316Y-101672218D01*
X172151633Y-101681856D01*
X172154676Y-101697993D01*
X172157456Y-101722121D01*
X172159985Y-101755727D01*
X172162274Y-101800301D01*
X172164334Y-101857333D01*
X172166179Y-101928311D01*
X172167817Y-102014725D01*
X172169263Y-102118064D01*
X172170526Y-102239818D01*
X172171619Y-102381475D01*
X172172553Y-102544526D01*
X172173340Y-102730458D01*
X172173991Y-102940762D01*
X172174517Y-103176927D01*
X172174931Y-103440442D01*
X172175244Y-103732797D01*
X172175467Y-104055480D01*
X172175612Y-104409981D01*
X172175691Y-104797789D01*
X172175714Y-105220393D01*
X172175715Y-105303414D01*
X172175755Y-105721614D01*
X172175817Y-106105313D01*
X172175854Y-106456009D01*
X172175817Y-106775204D01*
X172175662Y-107064398D01*
X172175339Y-107325091D01*
X172174801Y-107558784D01*
X172174001Y-107766976D01*
X172172892Y-107951168D01*
X172171916Y-108058857D01*
X172171428Y-108112860D01*
X172169560Y-108253553D01*
X161470622Y-102471231D02*
X161274981Y-102492649D01*
X161274981Y-102492649D02*
X161085438Y-102530985D01*
X161085438Y-102530985D02*
X160894283Y-102588238D01*
X160894283Y-102588238D02*
X160693804Y-102666409D01*
X160693804Y-102666409D02*
X160476292Y-102767496D01*
X160476292Y-102767496D02*
X160437120Y-102787076D01*
X160437120Y-102787076D02*
X160347228Y-102831362D01*
X160347228Y-102831362D02*
X160262447Y-102871239D01*
X160262447Y-102871239D02*
X160191145Y-102902898D01*
X160191145Y-102902898D02*
X160141690Y-102922532D01*
X160141690Y-102922532D02*
X160134092Y-102925004D01*
X160134092Y-102925004D02*
X160061286Y-102946817D01*
X160061286Y-102946817D02*
X160387197Y-103420944D01*
X160387197Y-103420944D02*
X160466877Y-103536823D01*
X160466877Y-103536823D02*
X160539728Y-103642694D01*
X160539728Y-103642694D02*
X160603270Y-103734962D01*
X160603270Y-103734962D02*
X160655028Y-103810033D01*
X160655028Y-103810033D02*
X160692523Y-103864313D01*
X160692523Y-103864313D02*
X160713277Y-103894207D01*
X160713277Y-103894207D02*
X160716649Y-103898941D01*
X160716649Y-103898941D02*
X160730345Y-103889042D01*
X160730345Y-103889042D02*
X160764057Y-103859285D01*
X160764057Y-103859285D02*
X160811756Y-103815073D01*
X160811756Y-103815073D02*
X160838080Y-103790084D01*
X160838080Y-103790084D02*
X160987228Y-103671456D01*
X160987228Y-103671456D02*
X161154732Y-103581313D01*
X161154732Y-103581313D02*
X161299072Y-103531936D01*
X161299072Y-103531936D02*
X161385717Y-103516429D01*
X161385717Y-103516429D02*
X161494204Y-103506979D01*
X161494204Y-103506979D02*
X161611773Y-103503761D01*
X161611773Y-103503761D02*
X161725666Y-103506951D01*
X161725666Y-103506951D02*
X161823121Y-103516724D01*
X161823121Y-103516724D02*
X161862010Y-103524209D01*
X161862010Y-103524209D02*
X162037288Y-103584512D01*
X162037288Y-103584512D02*
X162195235Y-103676590D01*
X162195235Y-103676590D02*
X162335732Y-103800273D01*
X162335732Y-103800273D02*
X162458665Y-103955393D01*
X162458665Y-103955393D02*
X162563915Y-104141781D01*
X162563915Y-104141781D02*
X162651365Y-104359270D01*
X162651365Y-104359270D02*
X162720900Y-104607692D01*
X162720900Y-104607692D02*
X162762225Y-104820357D01*
X162762225Y-104820357D02*
X162773006Y-104914241D01*
X162773006Y-104914241D02*
X162780352Y-105035524D01*
X162780352Y-105035524D02*
X162784333Y-105175493D01*
X162784333Y-105175493D02*
X162785021Y-105325431D01*
X162785021Y-105325431D02*
X162782486Y-105476622D01*
X162782486Y-105476622D02*
X162776800Y-105620351D01*
X162776800Y-105620351D02*
X162768033Y-105747903D01*
X162768033Y-105747903D02*
X162756256Y-105850562D01*
X162756256Y-105850562D02*
X162753707Y-105866401D01*
X162753707Y-105866401D02*
X162697519Y-106121536D01*
X162697519Y-106121536D02*
X162620964Y-106347342D01*
X162620964Y-106347342D02*
X162523574Y-106544831D01*
X162523574Y-106544831D02*
X162404886Y-106715014D01*
X162404886Y-106715014D02*
X162320637Y-106807022D01*
X162320637Y-106807022D02*
X162169230Y-106931943D01*
X162169230Y-106931943D02*
X162003183Y-107024540D01*
X162003183Y-107024540D02*
X161825299Y-107084309D01*
X161825299Y-107084309D02*
X161638378Y-107110746D01*
X161638378Y-107110746D02*
X161445222Y-107103348D01*
X161445222Y-107103348D02*
X161248631Y-107061611D01*
X161248631Y-107061611D02*
X161132403Y-107020771D01*
X161132403Y-107020771D02*
X160971562Y-106938990D01*
X160971562Y-106938990D02*
X160805787Y-106821678D01*
X160805787Y-106821678D02*
X160712927Y-106742345D01*
X160712927Y-106742345D02*
X160660786Y-106696429D01*
X160660786Y-106696429D02*
X160619820Y-106662742D01*
X160619820Y-106662742D02*
X160596502Y-106646510D01*
X160596502Y-106646510D02*
X160593607Y-106646015D01*
X160593607Y-106646015D02*
X160583200Y-106662601D01*
X160583200Y-106662601D02*
X160556233Y-106706432D01*
X160556233Y-106706432D02*
X160515004Y-106773748D01*
X160515004Y-106773748D02*
X160461811Y-106860794D01*
X160461811Y-106860794D02*
X160398950Y-106963810D01*
X160398950Y-106963810D02*
X160328719Y-107079041D01*
X160328719Y-107079041D02*
X160289628Y-107143231D01*
X160289628Y-107143231D02*
X159991036Y-107633677D01*
X159991036Y-107633677D02*
X160363839Y-107817915D01*
X160363839Y-107817915D02*
X160498631Y-107884093D01*
X160498631Y-107884093D02*
X160607825Y-107936278D01*
X160607825Y-107936278D02*
X160698093Y-107977060D01*
X160698093Y-107977060D02*
X160776112Y-108009033D01*
X160776112Y-108009033D02*
X160848556Y-108034787D01*
X160848556Y-108034787D02*
X160922099Y-108056914D01*
X160922099Y-108056914D02*
X161003416Y-108078007D01*
X161003416Y-108078007D02*
X161081357Y-108096530D01*
X161081357Y-108096530D02*
X161150634Y-108110863D01*
X161150634Y-108110863D02*
X161223083Y-108121694D01*
X161223083Y-108121694D02*
X161305958Y-108129626D01*
X161305958Y-108129626D02*
X161406512Y-108135258D01*
X161406512Y-108135258D02*
X161531997Y-108139192D01*
X161531997Y-108139192D02*
X161616572Y-108140891D01*
X161616572Y-108140891D02*
X161737246Y-108142050D01*
X161737246Y-108142050D02*
X161852958Y-108141465D01*
X161852958Y-108141465D02*
X161956049Y-108139304D01*
X161956049Y-108139304D02*
X162038862Y-108135732D01*
X162038862Y-108135732D02*
X162093740Y-108130917D01*
X162093740Y-108130917D02*
X162096992Y-108130437D01*
X162096992Y-108130437D02*
X162381957Y-108068786D01*
X162381957Y-108068786D02*
X162649558Y-107975285D01*
X162649558Y-107975285D02*
X162899703Y-107849993D01*
X162899703Y-107849993D02*
X163132296Y-107692974D01*
X163132296Y-107692974D02*
X163347243Y-107504289D01*
X163347243Y-107504289D02*
X163544450Y-107284000D01*
X163544450Y-107284000D02*
X163687273Y-107088214D01*
X163687273Y-107088214D02*
X163839320Y-106831949D01*
X163839320Y-106831949D02*
X163962227Y-106561317D01*
X163962227Y-106561317D02*
X164056590Y-106274149D01*
X164056590Y-106274149D02*
X164123001Y-105968276D01*
X164123001Y-105968276D02*
X164162056Y-105641528D01*
X164162056Y-105641528D02*
X164174360Y-105309739D01*
X164174360Y-105309739D02*
X164164241Y-104988779D01*
X164164241Y-104988779D02*
X164132439Y-104692646D01*
X164132439Y-104692646D02*
X164077946Y-104416345D01*
X164077946Y-104416345D02*
X163999750Y-104154881D01*
X163999750Y-104154881D02*
X163896841Y-103903258D01*
X163896841Y-103903258D02*
X163884553Y-103877190D01*
X163884553Y-103877190D02*
X163749180Y-103633507D01*
X163749180Y-103633507D02*
X163582911Y-103401618D01*
X163582911Y-103401618D02*
X163390459Y-103186323D01*
X163390459Y-103186323D02*
X163176534Y-102992422D01*
X163176534Y-102992422D02*
X162945845Y-102824715D01*
X162945845Y-102824715D02*
X162730891Y-102701696D01*
X162730891Y-102701696D02*
X162513742Y-102605345D01*
X162513742Y-102605345D02*
X162296132Y-102535551D01*
X162296132Y-102535551D02*
X162069638Y-102490413D01*
X162069638Y-102490413D02*
X161825834Y-102468031D01*
X161825834Y-102468031D02*
X161680072Y-102464731D01*
X161680072Y-102464731D02*
X161470622Y-102471231D01*
X161470622Y-102471231D02*
X161470622Y-102471231D01*
G36*
X161825834Y-102468031D02*
G01*
X162069638Y-102490413D01*
X162296132Y-102535551D01*
X162513742Y-102605345D01*
X162730891Y-102701696D01*
X162945845Y-102824715D01*
X163176534Y-102992422D01*
X163390459Y-103186323D01*
X163582911Y-103401618D01*
X163749180Y-103633507D01*
X163884553Y-103877190D01*
X163896841Y-103903258D01*
X163999750Y-104154881D01*
X164077946Y-104416345D01*
X164132439Y-104692646D01*
X164164241Y-104988779D01*
X164174360Y-105309739D01*
X164162056Y-105641528D01*
X164123001Y-105968276D01*
X164056590Y-106274149D01*
X163962227Y-106561317D01*
X163839320Y-106831949D01*
X163687273Y-107088214D01*
X163544450Y-107284000D01*
X163347243Y-107504289D01*
X163132296Y-107692974D01*
X162899703Y-107849993D01*
X162649558Y-107975285D01*
X162381957Y-108068786D01*
X162096992Y-108130437D01*
X162093740Y-108130917D01*
X162038862Y-108135732D01*
X161956049Y-108139304D01*
X161852958Y-108141465D01*
X161737246Y-108142050D01*
X161616572Y-108140891D01*
X161531997Y-108139192D01*
X161406512Y-108135258D01*
X161305958Y-108129626D01*
X161223083Y-108121694D01*
X161150634Y-108110863D01*
X161081357Y-108096530D01*
X161003416Y-108078007D01*
X160922099Y-108056914D01*
X160848556Y-108034787D01*
X160776112Y-108009033D01*
X160698093Y-107977060D01*
X160607825Y-107936278D01*
X160498631Y-107884093D01*
X160363839Y-107817915D01*
X159991036Y-107633677D01*
X160289628Y-107143231D01*
X160328719Y-107079041D01*
X160398950Y-106963810D01*
X160461811Y-106860794D01*
X160515004Y-106773748D01*
X160556233Y-106706432D01*
X160583200Y-106662601D01*
X160593607Y-106646015D01*
X160596502Y-106646510D01*
X160619820Y-106662742D01*
X160660786Y-106696429D01*
X160712927Y-106742345D01*
X160805787Y-106821678D01*
X160971562Y-106938990D01*
X161132403Y-107020771D01*
X161248631Y-107061611D01*
X161445222Y-107103348D01*
X161638378Y-107110746D01*
X161825299Y-107084309D01*
X162003183Y-107024540D01*
X162169230Y-106931943D01*
X162320637Y-106807022D01*
X162404886Y-106715014D01*
X162523574Y-106544831D01*
X162620964Y-106347342D01*
X162697519Y-106121536D01*
X162753707Y-105866401D01*
X162756256Y-105850562D01*
X162768033Y-105747903D01*
X162776800Y-105620351D01*
X162782486Y-105476622D01*
X162785021Y-105325431D01*
X162784333Y-105175493D01*
X162780352Y-105035524D01*
X162773006Y-104914241D01*
X162762225Y-104820357D01*
X162720900Y-104607692D01*
X162651365Y-104359270D01*
X162563915Y-104141781D01*
X162458665Y-103955393D01*
X162335732Y-103800273D01*
X162195235Y-103676590D01*
X162037288Y-103584512D01*
X161862010Y-103524209D01*
X161823121Y-103516724D01*
X161725666Y-103506951D01*
X161611773Y-103503761D01*
X161494204Y-103506979D01*
X161385717Y-103516429D01*
X161299072Y-103531936D01*
X161154732Y-103581313D01*
X160987228Y-103671456D01*
X160838080Y-103790084D01*
X160811756Y-103815073D01*
X160764057Y-103859285D01*
X160730345Y-103889042D01*
X160716649Y-103898941D01*
X160713277Y-103894207D01*
X160692523Y-103864313D01*
X160655028Y-103810033D01*
X160603270Y-103734962D01*
X160539728Y-103642694D01*
X160466877Y-103536823D01*
X160387197Y-103420944D01*
X160061286Y-102946817D01*
X160134092Y-102925004D01*
X160141690Y-102922532D01*
X160191145Y-102902898D01*
X160262447Y-102871239D01*
X160347228Y-102831362D01*
X160437120Y-102787076D01*
X160476292Y-102767496D01*
X160693804Y-102666409D01*
X160894283Y-102588238D01*
X161085438Y-102530985D01*
X161274981Y-102492649D01*
X161470622Y-102471231D01*
X161680072Y-102464731D01*
X161825834Y-102468031D01*
G37*
X161825834Y-102468031D02*
X162069638Y-102490413D01*
X162296132Y-102535551D01*
X162513742Y-102605345D01*
X162730891Y-102701696D01*
X162945845Y-102824715D01*
X163176534Y-102992422D01*
X163390459Y-103186323D01*
X163582911Y-103401618D01*
X163749180Y-103633507D01*
X163884553Y-103877190D01*
X163896841Y-103903258D01*
X163999750Y-104154881D01*
X164077946Y-104416345D01*
X164132439Y-104692646D01*
X164164241Y-104988779D01*
X164174360Y-105309739D01*
X164162056Y-105641528D01*
X164123001Y-105968276D01*
X164056590Y-106274149D01*
X163962227Y-106561317D01*
X163839320Y-106831949D01*
X163687273Y-107088214D01*
X163544450Y-107284000D01*
X163347243Y-107504289D01*
X163132296Y-107692974D01*
X162899703Y-107849993D01*
X162649558Y-107975285D01*
X162381957Y-108068786D01*
X162096992Y-108130437D01*
X162093740Y-108130917D01*
X162038862Y-108135732D01*
X161956049Y-108139304D01*
X161852958Y-108141465D01*
X161737246Y-108142050D01*
X161616572Y-108140891D01*
X161531997Y-108139192D01*
X161406512Y-108135258D01*
X161305958Y-108129626D01*
X161223083Y-108121694D01*
X161150634Y-108110863D01*
X161081357Y-108096530D01*
X161003416Y-108078007D01*
X160922099Y-108056914D01*
X160848556Y-108034787D01*
X160776112Y-108009033D01*
X160698093Y-107977060D01*
X160607825Y-107936278D01*
X160498631Y-107884093D01*
X160363839Y-107817915D01*
X159991036Y-107633677D01*
X160289628Y-107143231D01*
X160328719Y-107079041D01*
X160398950Y-106963810D01*
X160461811Y-106860794D01*
X160515004Y-106773748D01*
X160556233Y-106706432D01*
X160583200Y-106662601D01*
X160593607Y-106646015D01*
X160596502Y-106646510D01*
X160619820Y-106662742D01*
X160660786Y-106696429D01*
X160712927Y-106742345D01*
X160805787Y-106821678D01*
X160971562Y-106938990D01*
X161132403Y-107020771D01*
X161248631Y-107061611D01*
X161445222Y-107103348D01*
X161638378Y-107110746D01*
X161825299Y-107084309D01*
X162003183Y-107024540D01*
X162169230Y-106931943D01*
X162320637Y-106807022D01*
X162404886Y-106715014D01*
X162523574Y-106544831D01*
X162620964Y-106347342D01*
X162697519Y-106121536D01*
X162753707Y-105866401D01*
X162756256Y-105850562D01*
X162768033Y-105747903D01*
X162776800Y-105620351D01*
X162782486Y-105476622D01*
X162785021Y-105325431D01*
X162784333Y-105175493D01*
X162780352Y-105035524D01*
X162773006Y-104914241D01*
X162762225Y-104820357D01*
X162720900Y-104607692D01*
X162651365Y-104359270D01*
X162563915Y-104141781D01*
X162458665Y-103955393D01*
X162335732Y-103800273D01*
X162195235Y-103676590D01*
X162037288Y-103584512D01*
X161862010Y-103524209D01*
X161823121Y-103516724D01*
X161725666Y-103506951D01*
X161611773Y-103503761D01*
X161494204Y-103506979D01*
X161385717Y-103516429D01*
X161299072Y-103531936D01*
X161154732Y-103581313D01*
X160987228Y-103671456D01*
X160838080Y-103790084D01*
X160811756Y-103815073D01*
X160764057Y-103859285D01*
X160730345Y-103889042D01*
X160716649Y-103898941D01*
X160713277Y-103894207D01*
X160692523Y-103864313D01*
X160655028Y-103810033D01*
X160603270Y-103734962D01*
X160539728Y-103642694D01*
X160466877Y-103536823D01*
X160387197Y-103420944D01*
X160061286Y-102946817D01*
X160134092Y-102925004D01*
X160141690Y-102922532D01*
X160191145Y-102902898D01*
X160262447Y-102871239D01*
X160347228Y-102831362D01*
X160437120Y-102787076D01*
X160476292Y-102767496D01*
X160693804Y-102666409D01*
X160894283Y-102588238D01*
X161085438Y-102530985D01*
X161274981Y-102492649D01*
X161470622Y-102471231D01*
X161680072Y-102464731D01*
X161825834Y-102468031D01*
X157866368Y-103929730D02*
X157776477Y-103936535D01*
X157776477Y-103936535D02*
X157519285Y-103970753D01*
X157519285Y-103970753D02*
X157291515Y-104025331D01*
X157291515Y-104025331D02*
X157092057Y-104101020D01*
X157092057Y-104101020D02*
X156919803Y-104198570D01*
X156919803Y-104198570D02*
X156773641Y-104318732D01*
X156773641Y-104318732D02*
X156652464Y-104462258D01*
X156652464Y-104462258D02*
X156555161Y-104629898D01*
X156555161Y-104629898D02*
X156484109Y-104811286D01*
X156484109Y-104811286D02*
X156466073Y-104869146D01*
X156466073Y-104869146D02*
X156450368Y-104923329D01*
X156450368Y-104923329D02*
X156436808Y-104976752D01*
X156436808Y-104976752D02*
X156425208Y-105032333D01*
X156425208Y-105032333D02*
X156415383Y-105092988D01*
X156415383Y-105092988D02*
X156407147Y-105161635D01*
X156407147Y-105161635D02*
X156400316Y-105241190D01*
X156400316Y-105241190D02*
X156394705Y-105334572D01*
X156394705Y-105334572D02*
X156390128Y-105444696D01*
X156390128Y-105444696D02*
X156386400Y-105574481D01*
X156386400Y-105574481D02*
X156383335Y-105726842D01*
X156383335Y-105726842D02*
X156380750Y-105904698D01*
X156380750Y-105904698D02*
X156378458Y-106110965D01*
X156378458Y-106110965D02*
X156376275Y-106348561D01*
X156376275Y-106348561D02*
X156374714Y-106534857D01*
X156374714Y-106534857D02*
X156364215Y-107813929D01*
X156364215Y-107813929D02*
X156296179Y-107937018D01*
X156296179Y-107937018D02*
X156263962Y-107996317D01*
X156263962Y-107996317D02*
X156239988Y-108042377D01*
X156239988Y-108042377D02*
X156228550Y-108066893D01*
X156228550Y-108066893D02*
X156228143Y-108068553D01*
X156228143Y-108068553D02*
X156245625Y-108070454D01*
X156245625Y-108070454D02*
X156295426Y-108072205D01*
X156295426Y-108072205D02*
X156373579Y-108073758D01*
X156373579Y-108073758D02*
X156476118Y-108075062D01*
X156476118Y-108075062D02*
X156599078Y-108076070D01*
X156599078Y-108076070D02*
X156738490Y-108076731D01*
X156738490Y-108076731D02*
X156890389Y-108076997D01*
X156890389Y-108076997D02*
X156908500Y-108077000D01*
X156908500Y-108077000D02*
X157588857Y-108077000D01*
X157588857Y-108077000D02*
X157588857Y-107922786D01*
X157588857Y-107922786D02*
X157590018Y-107853094D01*
X157590018Y-107853094D02*
X157593113Y-107799794D01*
X157593113Y-107799794D02*
X157597568Y-107771217D01*
X157597568Y-107771217D02*
X157599537Y-107768572D01*
X157599537Y-107768572D02*
X157617545Y-107779653D01*
X157617545Y-107779653D02*
X157654607Y-107808736D01*
X157654607Y-107808736D02*
X157702778Y-107849579D01*
X157702778Y-107849579D02*
X157703859Y-107850524D01*
X157703859Y-107850524D02*
X157791765Y-107915971D01*
X157791765Y-107915971D02*
X157902783Y-107981688D01*
X157902783Y-107981688D02*
X158024369Y-108041219D01*
X158024369Y-108041219D02*
X158143979Y-108088109D01*
X158143979Y-108088109D02*
X158196643Y-108104133D01*
X158196643Y-108104133D02*
X158301449Y-108124485D01*
X158301449Y-108124485D02*
X158430050Y-108137472D01*
X158430050Y-108137472D02*
X158570675Y-108142909D01*
X158570675Y-108142909D02*
X158711552Y-108140611D01*
X158711552Y-108140611D02*
X158840907Y-108130392D01*
X158840907Y-108130392D02*
X158931429Y-108115689D01*
X158931429Y-108115689D02*
X159153420Y-108050499D01*
X159153420Y-108050499D02*
X159353271Y-107957594D01*
X159353271Y-107957594D02*
X159529681Y-107838126D01*
X159529681Y-107838126D02*
X159681350Y-107693247D01*
X159681350Y-107693247D02*
X159806976Y-107524110D01*
X159806976Y-107524110D02*
X159905259Y-107331867D01*
X159905259Y-107331867D02*
X159947659Y-107215214D01*
X159947659Y-107215214D02*
X159974232Y-107101833D01*
X159974232Y-107101833D02*
X159991842Y-106965722D01*
X159991842Y-106965722D02*
X159999990Y-106819437D01*
X159999990Y-106819437D02*
X159999722Y-106798151D01*
X159999722Y-106798151D02*
X158772679Y-106798151D01*
X158772679Y-106798151D02*
X158762504Y-106906850D01*
X158762504Y-106906850D02*
X158728622Y-106997185D01*
X158728622Y-106997185D02*
X158666000Y-107080995D01*
X158666000Y-107080995D02*
X158641948Y-107105571D01*
X158641948Y-107105571D02*
X158556449Y-107172011D01*
X158556449Y-107172011D02*
X158457627Y-107214574D01*
X158457627Y-107214574D02*
X158339232Y-107235177D01*
X158339232Y-107235177D02*
X158214555Y-107236694D01*
X158214555Y-107236694D02*
X158096302Y-107226677D01*
X158096302Y-107226677D02*
X158005761Y-107207085D01*
X158005761Y-107207085D02*
X157966440Y-107192370D01*
X157966440Y-107192370D02*
X157895568Y-107152265D01*
X157895568Y-107152265D02*
X157820475Y-107095863D01*
X157820475Y-107095863D02*
X157751962Y-107032561D01*
X157751962Y-107032561D02*
X157700828Y-106971755D01*
X157700828Y-106971755D02*
X157687250Y-106949449D01*
X157687250Y-106949449D02*
X157676695Y-106918212D01*
X157676695Y-106918212D02*
X157669190Y-106868507D01*
X157669190Y-106868507D02*
X157664387Y-106795587D01*
X157664387Y-106795587D02*
X157661935Y-106694703D01*
X157661935Y-106694703D02*
X157661429Y-106598689D01*
X157661429Y-106598689D02*
X157661772Y-106486750D01*
X157661772Y-106486750D02*
X157663157Y-106405809D01*
X157663157Y-106405809D02*
X157666119Y-106350585D01*
X157666119Y-106350585D02*
X157671192Y-106315794D01*
X157671192Y-106315794D02*
X157678910Y-106296154D01*
X157678910Y-106296154D02*
X157689808Y-106286380D01*
X157689808Y-106286380D02*
X157693179Y-106284824D01*
X157693179Y-106284824D02*
X157722471Y-106280029D01*
X157722471Y-106280029D02*
X157780244Y-106276108D01*
X157780244Y-106276108D02*
X157858696Y-106273414D01*
X157858696Y-106273414D02*
X157950026Y-106272299D01*
X157950026Y-106272299D02*
X157969857Y-106272298D01*
X157969857Y-106272298D02*
X158091937Y-106274246D01*
X158091937Y-106274246D02*
X158186251Y-106280041D01*
X158186251Y-106280041D02*
X158261193Y-106290475D01*
X158261193Y-106290475D02*
X158323097Y-106305714D01*
X158323097Y-106305714D02*
X158476651Y-106363784D01*
X158476651Y-106363784D02*
X158597068Y-106435179D01*
X158597068Y-106435179D02*
X158685390Y-106521039D01*
X158685390Y-106521039D02*
X158742661Y-106622507D01*
X158742661Y-106622507D02*
X158769922Y-106740725D01*
X158769922Y-106740725D02*
X158772679Y-106798151D01*
X158772679Y-106798151D02*
X159999722Y-106798151D01*
X159999722Y-106798151D02*
X159998177Y-106675533D01*
X159998177Y-106675533D02*
X159985904Y-106546565D01*
X159985904Y-106546565D02*
X159976330Y-106494460D01*
X159976330Y-106494460D02*
X159915199Y-106300997D01*
X159915199Y-106300997D02*
X159822243Y-106122993D01*
X159822243Y-106122993D02*
X159699217Y-105962155D01*
X159699217Y-105962155D02*
X159547876Y-105820190D01*
X159547876Y-105820190D02*
X159369975Y-105698806D01*
X159369975Y-105698806D02*
X159167268Y-105599709D01*
X159167268Y-105599709D02*
X158994929Y-105539533D01*
X158994929Y-105539533D02*
X158879747Y-105507919D01*
X158879747Y-105507919D02*
X158769577Y-105483354D01*
X158769577Y-105483354D02*
X158657281Y-105465039D01*
X158657281Y-105465039D02*
X158535725Y-105452178D01*
X158535725Y-105452178D02*
X158397771Y-105443972D01*
X158397771Y-105443972D02*
X158236285Y-105439624D01*
X158236285Y-105439624D02*
X158090285Y-105438400D01*
X158090285Y-105438400D02*
X157657355Y-105437215D01*
X157657355Y-105437215D02*
X157665649Y-105307080D01*
X157665649Y-105307080D02*
X157689199Y-105165883D01*
X157689199Y-105165883D02*
X157739297Y-105044518D01*
X157739297Y-105044518D02*
X157813809Y-104946017D01*
X157813809Y-104946017D02*
X157910601Y-104873409D01*
X157910601Y-104873409D02*
X157995829Y-104837979D01*
X157995829Y-104837979D02*
X158117944Y-104815650D01*
X158117944Y-104815650D02*
X158263317Y-104812443D01*
X158263317Y-104812443D02*
X158425133Y-104827177D01*
X158425133Y-104827177D02*
X158596578Y-104858670D01*
X158596578Y-104858670D02*
X158770837Y-104905740D01*
X158770837Y-104905740D02*
X158941096Y-104967203D01*
X158941096Y-104967203D02*
X159064824Y-105023417D01*
X159064824Y-105023417D02*
X159124353Y-105052283D01*
X159124353Y-105052283D02*
X159169758Y-105072443D01*
X159169758Y-105072443D02*
X159192850Y-105080310D01*
X159192850Y-105080310D02*
X159194103Y-105080058D01*
X159194103Y-105080058D02*
X159202071Y-105062437D01*
X159202071Y-105062437D02*
X159221969Y-105015733D01*
X159221969Y-105015733D02*
X159251923Y-104944418D01*
X159251923Y-104944418D02*
X159290061Y-104852969D01*
X159290061Y-104852969D02*
X159334512Y-104745859D01*
X159334512Y-104745859D02*
X159379695Y-104636549D01*
X159379695Y-104636549D02*
X159560333Y-104198740D01*
X159560333Y-104198740D02*
X159431845Y-104177636D01*
X159431845Y-104177636D02*
X159376154Y-104167047D01*
X159376154Y-104167047D02*
X159292436Y-104149263D01*
X159292436Y-104149263D02*
X159187861Y-104125898D01*
X159187861Y-104125898D02*
X159069601Y-104098565D01*
X159069601Y-104098565D02*
X158944828Y-104068881D01*
X158944828Y-104068881D02*
X158895143Y-104056818D01*
X158895143Y-104056818D02*
X158680193Y-104006962D01*
X158680193Y-104006962D02*
X158492005Y-103969584D01*
X158492005Y-103969584D02*
X158323554Y-103943927D01*
X158323554Y-103943927D02*
X158167814Y-103929235D01*
X158167814Y-103929235D02*
X158017760Y-103924755D01*
X158017760Y-103924755D02*
X157866368Y-103929730D01*
X157866368Y-103929730D02*
X157866368Y-103929730D01*
G36*
X159991842Y-106965722D02*
G01*
X159974232Y-107101833D01*
X159947659Y-107215214D01*
X159905259Y-107331867D01*
X159806976Y-107524110D01*
X159681350Y-107693247D01*
X159529681Y-107838126D01*
X159353271Y-107957594D01*
X159153420Y-108050499D01*
X158931429Y-108115689D01*
X158840907Y-108130392D01*
X158711552Y-108140611D01*
X158570675Y-108142909D01*
X158430050Y-108137472D01*
X158301449Y-108124485D01*
X158196643Y-108104133D01*
X158143979Y-108088109D01*
X158024369Y-108041219D01*
X157902783Y-107981688D01*
X157791765Y-107915971D01*
X157703859Y-107850524D01*
X157702778Y-107849579D01*
X157654607Y-107808736D01*
X157617545Y-107779653D01*
X157599537Y-107768572D01*
X157597568Y-107771217D01*
X157593113Y-107799794D01*
X157590018Y-107853094D01*
X157588857Y-107922786D01*
X157588857Y-108077000D01*
X156908500Y-108077000D01*
X156890389Y-108076997D01*
X156738490Y-108076731D01*
X156599078Y-108076070D01*
X156476118Y-108075062D01*
X156373579Y-108073758D01*
X156295426Y-108072205D01*
X156245625Y-108070454D01*
X156228143Y-108068553D01*
X156228550Y-108066893D01*
X156239988Y-108042377D01*
X156263962Y-107996317D01*
X156296179Y-107937018D01*
X156364215Y-107813929D01*
X156374190Y-106598689D01*
X157661429Y-106598689D01*
X157661935Y-106694703D01*
X157664387Y-106795587D01*
X157669190Y-106868507D01*
X157676695Y-106918212D01*
X157687250Y-106949449D01*
X157700828Y-106971755D01*
X157751962Y-107032561D01*
X157820475Y-107095863D01*
X157895568Y-107152265D01*
X157966440Y-107192370D01*
X158005761Y-107207085D01*
X158096302Y-107226677D01*
X158214555Y-107236694D01*
X158339232Y-107235177D01*
X158457627Y-107214574D01*
X158556449Y-107172011D01*
X158641948Y-107105571D01*
X158666000Y-107080995D01*
X158728622Y-106997185D01*
X158762504Y-106906850D01*
X158772679Y-106798151D01*
X158769922Y-106740725D01*
X158742661Y-106622507D01*
X158685390Y-106521039D01*
X158597068Y-106435179D01*
X158476651Y-106363784D01*
X158323097Y-106305714D01*
X158261193Y-106290475D01*
X158186251Y-106280041D01*
X158091937Y-106274246D01*
X157969857Y-106272298D01*
X157950026Y-106272299D01*
X157858696Y-106273414D01*
X157780244Y-106276108D01*
X157722471Y-106280029D01*
X157693179Y-106284824D01*
X157689808Y-106286380D01*
X157678910Y-106296154D01*
X157671192Y-106315794D01*
X157666119Y-106350585D01*
X157663157Y-106405809D01*
X157661772Y-106486750D01*
X157661429Y-106598689D01*
X156374190Y-106598689D01*
X156374714Y-106534857D01*
X156376275Y-106348561D01*
X156378458Y-106110965D01*
X156380750Y-105904698D01*
X156383335Y-105726842D01*
X156386400Y-105574481D01*
X156390128Y-105444696D01*
X156394705Y-105334572D01*
X156400316Y-105241190D01*
X156407147Y-105161635D01*
X156415383Y-105092988D01*
X156425208Y-105032333D01*
X156436808Y-104976752D01*
X156450368Y-104923329D01*
X156466073Y-104869146D01*
X156484109Y-104811286D01*
X156555161Y-104629898D01*
X156652464Y-104462258D01*
X156773641Y-104318732D01*
X156919803Y-104198570D01*
X157092057Y-104101020D01*
X157291515Y-104025331D01*
X157519285Y-103970753D01*
X157776477Y-103936535D01*
X157866368Y-103929730D01*
X158017760Y-103924755D01*
X158167814Y-103929235D01*
X158323554Y-103943927D01*
X158492005Y-103969584D01*
X158680193Y-104006962D01*
X158895143Y-104056818D01*
X158944828Y-104068881D01*
X159069601Y-104098565D01*
X159187861Y-104125898D01*
X159292436Y-104149263D01*
X159376154Y-104167047D01*
X159431845Y-104177636D01*
X159560333Y-104198740D01*
X159379695Y-104636549D01*
X159334512Y-104745859D01*
X159290061Y-104852969D01*
X159251923Y-104944418D01*
X159221969Y-105015733D01*
X159202071Y-105062437D01*
X159194103Y-105080058D01*
X159192850Y-105080310D01*
X159169758Y-105072443D01*
X159124353Y-105052283D01*
X159064824Y-105023417D01*
X158941096Y-104967203D01*
X158770837Y-104905740D01*
X158596578Y-104858670D01*
X158425133Y-104827177D01*
X158263317Y-104812443D01*
X158117944Y-104815650D01*
X157995829Y-104837979D01*
X157910601Y-104873409D01*
X157813809Y-104946017D01*
X157739297Y-105044518D01*
X157689199Y-105165883D01*
X157665649Y-105307080D01*
X157657355Y-105437215D01*
X158090285Y-105438400D01*
X158236285Y-105439624D01*
X158397771Y-105443972D01*
X158535725Y-105452178D01*
X158657281Y-105465039D01*
X158769577Y-105483354D01*
X158879747Y-105507919D01*
X158994929Y-105539533D01*
X159167268Y-105599709D01*
X159369975Y-105698806D01*
X159547876Y-105820190D01*
X159699217Y-105962155D01*
X159822243Y-106122993D01*
X159915199Y-106300997D01*
X159976330Y-106494460D01*
X159985904Y-106546565D01*
X159998177Y-106675533D01*
X159999722Y-106798151D01*
X159999990Y-106819437D01*
X159991842Y-106965722D01*
G37*
X159991842Y-106965722D02*
X159974232Y-107101833D01*
X159947659Y-107215214D01*
X159905259Y-107331867D01*
X159806976Y-107524110D01*
X159681350Y-107693247D01*
X159529681Y-107838126D01*
X159353271Y-107957594D01*
X159153420Y-108050499D01*
X158931429Y-108115689D01*
X158840907Y-108130392D01*
X158711552Y-108140611D01*
X158570675Y-108142909D01*
X158430050Y-108137472D01*
X158301449Y-108124485D01*
X158196643Y-108104133D01*
X158143979Y-108088109D01*
X158024369Y-108041219D01*
X157902783Y-107981688D01*
X157791765Y-107915971D01*
X157703859Y-107850524D01*
X157702778Y-107849579D01*
X157654607Y-107808736D01*
X157617545Y-107779653D01*
X157599537Y-107768572D01*
X157597568Y-107771217D01*
X157593113Y-107799794D01*
X157590018Y-107853094D01*
X157588857Y-107922786D01*
X157588857Y-108077000D01*
X156908500Y-108077000D01*
X156890389Y-108076997D01*
X156738490Y-108076731D01*
X156599078Y-108076070D01*
X156476118Y-108075062D01*
X156373579Y-108073758D01*
X156295426Y-108072205D01*
X156245625Y-108070454D01*
X156228143Y-108068553D01*
X156228550Y-108066893D01*
X156239988Y-108042377D01*
X156263962Y-107996317D01*
X156296179Y-107937018D01*
X156364215Y-107813929D01*
X156374190Y-106598689D01*
X157661429Y-106598689D01*
X157661935Y-106694703D01*
X157664387Y-106795587D01*
X157669190Y-106868507D01*
X157676695Y-106918212D01*
X157687250Y-106949449D01*
X157700828Y-106971755D01*
X157751962Y-107032561D01*
X157820475Y-107095863D01*
X157895568Y-107152265D01*
X157966440Y-107192370D01*
X158005761Y-107207085D01*
X158096302Y-107226677D01*
X158214555Y-107236694D01*
X158339232Y-107235177D01*
X158457627Y-107214574D01*
X158556449Y-107172011D01*
X158641948Y-107105571D01*
X158666000Y-107080995D01*
X158728622Y-106997185D01*
X158762504Y-106906850D01*
X158772679Y-106798151D01*
X158769922Y-106740725D01*
X158742661Y-106622507D01*
X158685390Y-106521039D01*
X158597068Y-106435179D01*
X158476651Y-106363784D01*
X158323097Y-106305714D01*
X158261193Y-106290475D01*
X158186251Y-106280041D01*
X158091937Y-106274246D01*
X157969857Y-106272298D01*
X157950026Y-106272299D01*
X157858696Y-106273414D01*
X157780244Y-106276108D01*
X157722471Y-106280029D01*
X157693179Y-106284824D01*
X157689808Y-106286380D01*
X157678910Y-106296154D01*
X157671192Y-106315794D01*
X157666119Y-106350585D01*
X157663157Y-106405809D01*
X157661772Y-106486750D01*
X157661429Y-106598689D01*
X156374190Y-106598689D01*
X156374714Y-106534857D01*
X156376275Y-106348561D01*
X156378458Y-106110965D01*
X156380750Y-105904698D01*
X156383335Y-105726842D01*
X156386400Y-105574481D01*
X156390128Y-105444696D01*
X156394705Y-105334572D01*
X156400316Y-105241190D01*
X156407147Y-105161635D01*
X156415383Y-105092988D01*
X156425208Y-105032333D01*
X156436808Y-104976752D01*
X156450368Y-104923329D01*
X156466073Y-104869146D01*
X156484109Y-104811286D01*
X156555161Y-104629898D01*
X156652464Y-104462258D01*
X156773641Y-104318732D01*
X156919803Y-104198570D01*
X157092057Y-104101020D01*
X157291515Y-104025331D01*
X157519285Y-103970753D01*
X157776477Y-103936535D01*
X157866368Y-103929730D01*
X158017760Y-103924755D01*
X158167814Y-103929235D01*
X158323554Y-103943927D01*
X158492005Y-103969584D01*
X158680193Y-104006962D01*
X158895143Y-104056818D01*
X158944828Y-104068881D01*
X159069601Y-104098565D01*
X159187861Y-104125898D01*
X159292436Y-104149263D01*
X159376154Y-104167047D01*
X159431845Y-104177636D01*
X159560333Y-104198740D01*
X159379695Y-104636549D01*
X159334512Y-104745859D01*
X159290061Y-104852969D01*
X159251923Y-104944418D01*
X159221969Y-105015733D01*
X159202071Y-105062437D01*
X159194103Y-105080058D01*
X159192850Y-105080310D01*
X159169758Y-105072443D01*
X159124353Y-105052283D01*
X159064824Y-105023417D01*
X158941096Y-104967203D01*
X158770837Y-104905740D01*
X158596578Y-104858670D01*
X158425133Y-104827177D01*
X158263317Y-104812443D01*
X158117944Y-104815650D01*
X157995829Y-104837979D01*
X157910601Y-104873409D01*
X157813809Y-104946017D01*
X157739297Y-105044518D01*
X157689199Y-105165883D01*
X157665649Y-105307080D01*
X157657355Y-105437215D01*
X158090285Y-105438400D01*
X158236285Y-105439624D01*
X158397771Y-105443972D01*
X158535725Y-105452178D01*
X158657281Y-105465039D01*
X158769577Y-105483354D01*
X158879747Y-105507919D01*
X158994929Y-105539533D01*
X159167268Y-105599709D01*
X159369975Y-105698806D01*
X159547876Y-105820190D01*
X159699217Y-105962155D01*
X159822243Y-106122993D01*
X159915199Y-106300997D01*
X159976330Y-106494460D01*
X159985904Y-106546565D01*
X159998177Y-106675533D01*
X159999722Y-106798151D01*
X159999990Y-106819437D01*
X159991842Y-106965722D01*
X153010429Y-102202089D02*
X152856124Y-102202723D01*
X152856124Y-102202723D02*
X152803679Y-102203042D01*
X152803679Y-102203042D02*
X152082500Y-102207786D01*
X152082500Y-102207786D02*
X152073429Y-104974572D01*
X152073429Y-104974572D02*
X152072231Y-105349756D01*
X152072231Y-105349756D02*
X152071168Y-105690417D01*
X152071168Y-105690417D02*
X152070173Y-105998318D01*
X152070173Y-105998318D02*
X152069177Y-106275221D01*
X152069177Y-106275221D02*
X152068112Y-106522888D01*
X152068112Y-106522888D02*
X152066909Y-106743081D01*
X152066909Y-106743081D02*
X152065501Y-106937562D01*
X152065501Y-106937562D02*
X152063818Y-107108094D01*
X152063818Y-107108094D02*
X152061794Y-107256440D01*
X152061794Y-107256440D02*
X152059359Y-107384361D01*
X152059359Y-107384361D02*
X152056446Y-107493620D01*
X152056446Y-107493620D02*
X152052985Y-107585979D01*
X152052985Y-107585979D02*
X152048910Y-107663200D01*
X152048910Y-107663200D02*
X152044151Y-107727046D01*
X152044151Y-107727046D02*
X152038640Y-107779278D01*
X152038640Y-107779278D02*
X152032309Y-107821660D01*
X152032309Y-107821660D02*
X152025090Y-107855953D01*
X152025090Y-107855953D02*
X152016915Y-107883920D01*
X152016915Y-107883920D02*
X152007715Y-107907324D01*
X152007715Y-107907324D02*
X151997423Y-107927925D01*
X151997423Y-107927925D02*
X151985969Y-107947487D01*
X151985969Y-107947487D02*
X151973285Y-107967772D01*
X151973285Y-107967772D02*
X151959305Y-107990543D01*
X151959305Y-107990543D02*
X151956439Y-107995393D01*
X151956439Y-107995393D02*
X151908360Y-108077433D01*
X151908360Y-108077433D02*
X153298072Y-108067929D01*
X153298072Y-108067929D02*
X153307143Y-107915295D01*
X153307143Y-107915295D02*
X153312082Y-107842045D01*
X153312082Y-107842045D02*
X153317229Y-107799696D01*
X153317229Y-107799696D02*
X153324214Y-107782892D01*
X153324214Y-107782892D02*
X153334663Y-107786277D01*
X153334663Y-107786277D02*
X153343429Y-107795960D01*
X153343429Y-107795960D02*
X153381612Y-107831229D01*
X153381612Y-107831229D02*
X153443845Y-107876563D01*
X153443845Y-107876563D02*
X153521359Y-107926546D01*
X153521359Y-107926546D02*
X153605387Y-107975761D01*
X153605387Y-107975761D02*
X153687161Y-108018791D01*
X153687161Y-108018791D02*
X153749948Y-108047101D01*
X153749948Y-108047101D02*
X153897046Y-108093624D01*
X153897046Y-108093624D02*
X154065820Y-108126579D01*
X154065820Y-108126579D02*
X154243809Y-108144707D01*
X154243809Y-108144707D02*
X154418553Y-108146750D01*
X154418553Y-108146750D02*
X154577593Y-108131447D01*
X154577593Y-108131447D02*
X154580212Y-108131009D01*
X154580212Y-108131009D02*
X154797832Y-108076402D01*
X154797832Y-108076402D02*
X155001545Y-107989401D01*
X155001545Y-107989401D02*
X155189387Y-107871876D01*
X155189387Y-107871876D02*
X155359393Y-107725697D01*
X155359393Y-107725697D02*
X155509598Y-107552734D01*
X155509598Y-107552734D02*
X155638036Y-107354857D01*
X155638036Y-107354857D02*
X155742743Y-107133936D01*
X155742743Y-107133936D02*
X155799754Y-106970286D01*
X155799754Y-106970286D02*
X155837349Y-106833375D01*
X155837349Y-106833375D02*
X155865229Y-106700798D01*
X155865229Y-106700798D02*
X155884247Y-106564502D01*
X155884247Y-106564502D02*
X155895255Y-106416433D01*
X155895255Y-106416433D02*
X155899105Y-106248537D01*
X155899105Y-106248537D02*
X155897400Y-106111440D01*
X155897400Y-106111440D02*
X154558641Y-106111440D01*
X154558641Y-106111440D02*
X154552306Y-106341329D01*
X154552306Y-106341329D02*
X154532321Y-106539111D01*
X154532321Y-106539111D02*
X154498073Y-106706539D01*
X154498073Y-106706539D02*
X154448945Y-106845369D01*
X154448945Y-106845369D02*
X154384324Y-106957358D01*
X154384324Y-106957358D02*
X154303595Y-107044259D01*
X154303595Y-107044259D02*
X154210409Y-107105692D01*
X154210409Y-107105692D02*
X154161920Y-107128626D01*
X154161920Y-107128626D02*
X154119866Y-107142375D01*
X154119866Y-107142375D02*
X154072980Y-107148666D01*
X154072980Y-107148666D02*
X154009996Y-107149222D01*
X154009996Y-107149222D02*
X153942143Y-107146773D01*
X153942143Y-107146773D02*
X153808705Y-107135004D01*
X153808705Y-107135004D02*
X153703168Y-107111955D01*
X153703168Y-107111955D02*
X153670000Y-107100410D01*
X153670000Y-107100410D02*
X153594265Y-107066311D01*
X153594265Y-107066311D02*
X153514386Y-107023491D01*
X153514386Y-107023491D02*
X153479500Y-107002057D01*
X153479500Y-107002057D02*
X153388786Y-106942556D01*
X153388786Y-106942556D02*
X153388786Y-105056584D01*
X153388786Y-105056584D02*
X153488572Y-104996771D01*
X153488572Y-104996771D02*
X153627733Y-104929185D01*
X153627733Y-104929185D02*
X153769913Y-104889214D01*
X153769913Y-104889214D02*
X153909910Y-104876622D01*
X153909910Y-104876622D02*
X154042526Y-104891173D01*
X154042526Y-104891173D02*
X154162560Y-104932632D01*
X154162560Y-104932632D02*
X154264812Y-105000763D01*
X154264812Y-105000763D02*
X154297805Y-105033466D01*
X154297805Y-105033466D02*
X154377333Y-105140619D01*
X154377333Y-105140619D02*
X154441701Y-105270327D01*
X154441701Y-105270327D02*
X154491447Y-105424814D01*
X154491447Y-105424814D02*
X154527109Y-105606302D01*
X154527109Y-105606302D02*
X154549225Y-105817015D01*
X154549225Y-105817015D02*
X154558333Y-106059175D01*
X154558333Y-106059175D02*
X154558641Y-106111440D01*
X154558641Y-106111440D02*
X155897400Y-106111440D01*
X155897400Y-106111440D02*
X155896690Y-106054374D01*
X155896690Y-106054374D02*
X155881395Y-105755713D01*
X155881395Y-105755713D02*
X155850642Y-105486325D01*
X155850642Y-105486325D02*
X155803619Y-105242285D01*
X155803619Y-105242285D02*
X155739518Y-105019670D01*
X155739518Y-105019670D02*
X155657528Y-104814556D01*
X155657528Y-104814556D02*
X155628270Y-104753746D01*
X155628270Y-104753746D02*
X155510419Y-104555440D01*
X155510419Y-104555440D02*
X155368004Y-104379212D01*
X155368004Y-104379212D02*
X155204371Y-104227908D01*
X155204371Y-104227908D02*
X155022869Y-104104371D01*
X155022869Y-104104371D02*
X154826847Y-104011447D01*
X154826847Y-104011447D02*
X154709345Y-103973115D01*
X154709345Y-103973115D02*
X154593946Y-103950359D01*
X154593946Y-103950359D02*
X154455093Y-103936820D01*
X154455093Y-103936820D02*
X154304426Y-103932492D01*
X154304426Y-103932492D02*
X154153587Y-103937368D01*
X154153587Y-103937368D02*
X154014215Y-103951444D01*
X154014215Y-103951444D02*
X153902309Y-103973525D01*
X153902309Y-103973525D02*
X153769116Y-104016828D01*
X153769116Y-104016828D02*
X153640021Y-104072511D01*
X153640021Y-104072511D02*
X153527072Y-104134936D01*
X153527072Y-104134936D02*
X153466957Y-104177303D01*
X153466957Y-104177303D02*
X153425490Y-104208807D01*
X153425490Y-104208807D02*
X153396455Y-104227990D01*
X153396455Y-104227990D02*
X153389850Y-104230714D01*
X153389850Y-104230714D02*
X153387802Y-104213163D01*
X153387802Y-104213163D02*
X153385893Y-104162875D01*
X153385893Y-104162875D02*
X153384164Y-104083400D01*
X153384164Y-104083400D02*
X153382659Y-103978286D01*
X153382659Y-103978286D02*
X153381419Y-103851083D01*
X153381419Y-103851083D02*
X153380487Y-103705339D01*
X153380487Y-103705339D02*
X153379905Y-103544603D01*
X153379905Y-103544603D02*
X153379714Y-103380884D01*
X153379714Y-103380884D02*
X153379821Y-103171188D01*
X153379821Y-103171188D02*
X153380342Y-102994396D01*
X153380342Y-102994396D02*
X153381584Y-102847126D01*
X153381584Y-102847126D02*
X153383852Y-102725997D01*
X153383852Y-102725997D02*
X153387450Y-102627627D01*
X153387450Y-102627627D02*
X153392683Y-102548634D01*
X153392683Y-102548634D02*
X153399856Y-102485638D01*
X153399856Y-102485638D02*
X153409274Y-102435255D01*
X153409274Y-102435255D02*
X153421242Y-102394105D01*
X153421242Y-102394105D02*
X153436065Y-102358806D01*
X153436065Y-102358806D02*
X153454048Y-102325977D01*
X153454048Y-102325977D02*
X153475495Y-102292235D01*
X153475495Y-102292235D02*
X153478255Y-102288057D01*
X153478255Y-102288057D02*
X153505917Y-102244356D01*
X153505917Y-102244356D02*
X153522618Y-102214305D01*
X153522618Y-102214305D02*
X153524857Y-102207967D01*
X153524857Y-102207967D02*
X153507357Y-102205967D01*
X153507357Y-102205967D02*
X153457426Y-102204340D01*
X153457426Y-102204340D02*
X153378915Y-102203112D01*
X153378915Y-102203112D02*
X153275677Y-102202311D01*
X153275677Y-102202311D02*
X153151564Y-102201961D01*
X153151564Y-102201961D02*
X153010429Y-102202089D01*
X153010429Y-102202089D02*
X153010429Y-102202089D01*
G36*
X155895255Y-106416433D02*
G01*
X155884247Y-106564502D01*
X155865229Y-106700798D01*
X155837349Y-106833375D01*
X155799754Y-106970286D01*
X155742743Y-107133936D01*
X155638036Y-107354857D01*
X155509598Y-107552734D01*
X155359393Y-107725697D01*
X155189387Y-107871876D01*
X155001545Y-107989401D01*
X154797832Y-108076402D01*
X154580212Y-108131009D01*
X154577593Y-108131447D01*
X154418553Y-108146750D01*
X154243809Y-108144707D01*
X154065820Y-108126579D01*
X153897046Y-108093624D01*
X153749948Y-108047101D01*
X153687161Y-108018791D01*
X153605387Y-107975761D01*
X153521359Y-107926546D01*
X153443845Y-107876563D01*
X153381612Y-107831229D01*
X153343429Y-107795960D01*
X153334663Y-107786277D01*
X153324214Y-107782892D01*
X153317229Y-107799696D01*
X153312082Y-107842045D01*
X153307143Y-107915295D01*
X153298072Y-108067929D01*
X151908360Y-108077433D01*
X151956439Y-107995393D01*
X151959305Y-107990543D01*
X151973285Y-107967772D01*
X151985969Y-107947487D01*
X151997423Y-107927925D01*
X152007715Y-107907324D01*
X152016915Y-107883920D01*
X152025090Y-107855953D01*
X152032309Y-107821660D01*
X152038640Y-107779278D01*
X152044151Y-107727046D01*
X152048910Y-107663200D01*
X152052985Y-107585979D01*
X152056446Y-107493620D01*
X152059359Y-107384361D01*
X152061794Y-107256440D01*
X152063818Y-107108094D01*
X152065452Y-106942556D01*
X153388786Y-106942556D01*
X153479500Y-107002057D01*
X153514386Y-107023491D01*
X153594265Y-107066311D01*
X153670000Y-107100410D01*
X153703168Y-107111955D01*
X153808705Y-107135004D01*
X153942143Y-107146773D01*
X154009996Y-107149222D01*
X154072980Y-107148666D01*
X154119866Y-107142375D01*
X154161920Y-107128626D01*
X154210409Y-107105692D01*
X154303595Y-107044259D01*
X154384324Y-106957358D01*
X154448945Y-106845369D01*
X154498073Y-106706539D01*
X154532321Y-106539111D01*
X154552306Y-106341329D01*
X154558641Y-106111440D01*
X154558333Y-106059175D01*
X154549225Y-105817015D01*
X154527109Y-105606302D01*
X154491447Y-105424814D01*
X154441701Y-105270327D01*
X154377333Y-105140619D01*
X154297805Y-105033466D01*
X154264812Y-105000763D01*
X154162560Y-104932632D01*
X154042526Y-104891173D01*
X153909910Y-104876622D01*
X153769913Y-104889214D01*
X153627733Y-104929185D01*
X153488572Y-104996771D01*
X153388786Y-105056584D01*
X153388786Y-106942556D01*
X152065452Y-106942556D01*
X152065501Y-106937562D01*
X152066909Y-106743081D01*
X152068112Y-106522888D01*
X152069177Y-106275221D01*
X152070173Y-105998318D01*
X152071168Y-105690417D01*
X152072231Y-105349756D01*
X152073429Y-104974572D01*
X152082500Y-102207786D01*
X152803679Y-102203042D01*
X152856124Y-102202723D01*
X153010429Y-102202089D01*
X153151564Y-102201961D01*
X153275677Y-102202311D01*
X153378915Y-102203112D01*
X153457426Y-102204340D01*
X153507357Y-102205967D01*
X153524857Y-102207967D01*
X153522618Y-102214305D01*
X153505917Y-102244356D01*
X153478255Y-102288057D01*
X153475495Y-102292235D01*
X153454048Y-102325977D01*
X153436065Y-102358806D01*
X153421242Y-102394105D01*
X153409274Y-102435255D01*
X153399856Y-102485638D01*
X153392683Y-102548634D01*
X153387450Y-102627627D01*
X153383852Y-102725997D01*
X153381584Y-102847126D01*
X153380342Y-102994396D01*
X153379821Y-103171188D01*
X153379714Y-103380884D01*
X153379905Y-103544603D01*
X153380487Y-103705339D01*
X153381419Y-103851083D01*
X153382659Y-103978286D01*
X153384164Y-104083400D01*
X153385893Y-104162875D01*
X153387802Y-104213163D01*
X153389850Y-104230714D01*
X153396455Y-104227990D01*
X153425490Y-104208807D01*
X153466957Y-104177303D01*
X153527072Y-104134936D01*
X153640021Y-104072511D01*
X153769116Y-104016828D01*
X153902309Y-103973525D01*
X154014215Y-103951444D01*
X154153587Y-103937368D01*
X154304426Y-103932492D01*
X154455093Y-103936820D01*
X154593946Y-103950359D01*
X154709345Y-103973115D01*
X154826847Y-104011447D01*
X155022869Y-104104371D01*
X155204371Y-104227908D01*
X155368004Y-104379212D01*
X155510419Y-104555440D01*
X155628270Y-104753746D01*
X155657528Y-104814556D01*
X155739518Y-105019670D01*
X155803619Y-105242285D01*
X155850642Y-105486325D01*
X155881395Y-105755713D01*
X155896690Y-106054374D01*
X155897400Y-106111440D01*
X155899105Y-106248537D01*
X155895255Y-106416433D01*
G37*
X155895255Y-106416433D02*
X155884247Y-106564502D01*
X155865229Y-106700798D01*
X155837349Y-106833375D01*
X155799754Y-106970286D01*
X155742743Y-107133936D01*
X155638036Y-107354857D01*
X155509598Y-107552734D01*
X155359393Y-107725697D01*
X155189387Y-107871876D01*
X155001545Y-107989401D01*
X154797832Y-108076402D01*
X154580212Y-108131009D01*
X154577593Y-108131447D01*
X154418553Y-108146750D01*
X154243809Y-108144707D01*
X154065820Y-108126579D01*
X153897046Y-108093624D01*
X153749948Y-108047101D01*
X153687161Y-108018791D01*
X153605387Y-107975761D01*
X153521359Y-107926546D01*
X153443845Y-107876563D01*
X153381612Y-107831229D01*
X153343429Y-107795960D01*
X153334663Y-107786277D01*
X153324214Y-107782892D01*
X153317229Y-107799696D01*
X153312082Y-107842045D01*
X153307143Y-107915295D01*
X153298072Y-108067929D01*
X151908360Y-108077433D01*
X151956439Y-107995393D01*
X151959305Y-107990543D01*
X151973285Y-107967772D01*
X151985969Y-107947487D01*
X151997423Y-107927925D01*
X152007715Y-107907324D01*
X152016915Y-107883920D01*
X152025090Y-107855953D01*
X152032309Y-107821660D01*
X152038640Y-107779278D01*
X152044151Y-107727046D01*
X152048910Y-107663200D01*
X152052985Y-107585979D01*
X152056446Y-107493620D01*
X152059359Y-107384361D01*
X152061794Y-107256440D01*
X152063818Y-107108094D01*
X152065452Y-106942556D01*
X153388786Y-106942556D01*
X153479500Y-107002057D01*
X153514386Y-107023491D01*
X153594265Y-107066311D01*
X153670000Y-107100410D01*
X153703168Y-107111955D01*
X153808705Y-107135004D01*
X153942143Y-107146773D01*
X154009996Y-107149222D01*
X154072980Y-107148666D01*
X154119866Y-107142375D01*
X154161920Y-107128626D01*
X154210409Y-107105692D01*
X154303595Y-107044259D01*
X154384324Y-106957358D01*
X154448945Y-106845369D01*
X154498073Y-106706539D01*
X154532321Y-106539111D01*
X154552306Y-106341329D01*
X154558641Y-106111440D01*
X154558333Y-106059175D01*
X154549225Y-105817015D01*
X154527109Y-105606302D01*
X154491447Y-105424814D01*
X154441701Y-105270327D01*
X154377333Y-105140619D01*
X154297805Y-105033466D01*
X154264812Y-105000763D01*
X154162560Y-104932632D01*
X154042526Y-104891173D01*
X153909910Y-104876622D01*
X153769913Y-104889214D01*
X153627733Y-104929185D01*
X153488572Y-104996771D01*
X153388786Y-105056584D01*
X153388786Y-106942556D01*
X152065452Y-106942556D01*
X152065501Y-106937562D01*
X152066909Y-106743081D01*
X152068112Y-106522888D01*
X152069177Y-106275221D01*
X152070173Y-105998318D01*
X152071168Y-105690417D01*
X152072231Y-105349756D01*
X152073429Y-104974572D01*
X152082500Y-102207786D01*
X152803679Y-102203042D01*
X152856124Y-102202723D01*
X153010429Y-102202089D01*
X153151564Y-102201961D01*
X153275677Y-102202311D01*
X153378915Y-102203112D01*
X153457426Y-102204340D01*
X153507357Y-102205967D01*
X153524857Y-102207967D01*
X153522618Y-102214305D01*
X153505917Y-102244356D01*
X153478255Y-102288057D01*
X153475495Y-102292235D01*
X153454048Y-102325977D01*
X153436065Y-102358806D01*
X153421242Y-102394105D01*
X153409274Y-102435255D01*
X153399856Y-102485638D01*
X153392683Y-102548634D01*
X153387450Y-102627627D01*
X153383852Y-102725997D01*
X153381584Y-102847126D01*
X153380342Y-102994396D01*
X153379821Y-103171188D01*
X153379714Y-103380884D01*
X153379905Y-103544603D01*
X153380487Y-103705339D01*
X153381419Y-103851083D01*
X153382659Y-103978286D01*
X153384164Y-104083400D01*
X153385893Y-104162875D01*
X153387802Y-104213163D01*
X153389850Y-104230714D01*
X153396455Y-104227990D01*
X153425490Y-104208807D01*
X153466957Y-104177303D01*
X153527072Y-104134936D01*
X153640021Y-104072511D01*
X153769116Y-104016828D01*
X153902309Y-103973525D01*
X154014215Y-103951444D01*
X154153587Y-103937368D01*
X154304426Y-103932492D01*
X154455093Y-103936820D01*
X154593946Y-103950359D01*
X154709345Y-103973115D01*
X154826847Y-104011447D01*
X155022869Y-104104371D01*
X155204371Y-104227908D01*
X155368004Y-104379212D01*
X155510419Y-104555440D01*
X155628270Y-104753746D01*
X155657528Y-104814556D01*
X155739518Y-105019670D01*
X155803619Y-105242285D01*
X155850642Y-105486325D01*
X155881395Y-105755713D01*
X155896690Y-106054374D01*
X155897400Y-106111440D01*
X155899105Y-106248537D01*
X155895255Y-106416433D01*
X165654318Y-100985933D02*
X165518071Y-101033172D01*
X165518071Y-101033172D02*
X165391221Y-101107527D01*
X165391221Y-101107527D02*
X165277933Y-101208987D01*
X165277933Y-101208987D02*
X165182372Y-101337543D01*
X165182372Y-101337543D02*
X165139446Y-101418572D01*
X165139446Y-101418572D02*
X165102295Y-101531908D01*
X165102295Y-101531908D02*
X165084288Y-101662751D01*
X165084288Y-101662751D02*
X165086283Y-101797265D01*
X165086283Y-101797265D02*
X165108423Y-101919158D01*
X165108423Y-101919158D02*
X165168936Y-102068107D01*
X165168936Y-102068107D02*
X165256686Y-102197309D01*
X165256686Y-102197309D02*
X165367212Y-102304223D01*
X165367212Y-102304223D02*
X165496054Y-102386306D01*
X165496054Y-102386306D02*
X165638753Y-102441016D01*
X165638753Y-102441016D02*
X165790849Y-102465810D01*
X165790849Y-102465810D02*
X165947881Y-102458147D01*
X165947881Y-102458147D02*
X166025286Y-102441772D01*
X166025286Y-102441772D02*
X166176141Y-102383089D01*
X166176141Y-102383089D02*
X166310125Y-102293543D01*
X166310125Y-102293543D02*
X166424006Y-102175893D01*
X166424006Y-102175893D02*
X166514552Y-102032902D01*
X166514552Y-102032902D02*
X166522212Y-102017286D01*
X166522212Y-102017286D02*
X166548694Y-101958686D01*
X166548694Y-101958686D02*
X166565322Y-101909334D01*
X166565322Y-101909334D02*
X166574350Y-101857270D01*
X166574350Y-101857270D02*
X166578032Y-101790539D01*
X166578032Y-101790539D02*
X166578643Y-101717929D01*
X166578643Y-101717929D02*
X166577633Y-101630691D01*
X166577633Y-101630691D02*
X166573072Y-101567624D01*
X166573072Y-101567624D02*
X166562666Y-101516636D01*
X166562666Y-101516636D02*
X166544121Y-101465633D01*
X166544121Y-101465633D02*
X166521230Y-101415313D01*
X166521230Y-101415313D02*
X166435846Y-101272470D01*
X166435846Y-101272470D02*
X166330699Y-101156810D01*
X166330699Y-101156810D02*
X166209955Y-101068325D01*
X166209955Y-101068325D02*
X166077779Y-101007005D01*
X166077779Y-101007005D02*
X165938337Y-100972839D01*
X165938337Y-100972839D02*
X165795795Y-100965818D01*
X165795795Y-100965818D02*
X165654318Y-100985933D01*
X165654318Y-100985933D02*
X165654318Y-100985933D01*
G36*
X165938337Y-100972839D02*
G01*
X166077779Y-101007005D01*
X166209955Y-101068325D01*
X166330699Y-101156810D01*
X166435846Y-101272470D01*
X166521230Y-101415313D01*
X166544121Y-101465633D01*
X166562666Y-101516636D01*
X166573072Y-101567624D01*
X166577633Y-101630691D01*
X166578643Y-101717929D01*
X166578032Y-101790539D01*
X166574350Y-101857270D01*
X166565322Y-101909334D01*
X166548694Y-101958686D01*
X166522212Y-102017286D01*
X166514552Y-102032902D01*
X166424006Y-102175893D01*
X166310125Y-102293543D01*
X166176141Y-102383089D01*
X166025286Y-102441772D01*
X165947881Y-102458147D01*
X165790849Y-102465810D01*
X165638753Y-102441016D01*
X165496054Y-102386306D01*
X165367212Y-102304223D01*
X165256686Y-102197309D01*
X165168936Y-102068107D01*
X165108423Y-101919158D01*
X165086283Y-101797265D01*
X165084288Y-101662751D01*
X165102295Y-101531908D01*
X165139446Y-101418572D01*
X165182372Y-101337543D01*
X165277933Y-101208987D01*
X165391221Y-101107527D01*
X165518071Y-101033172D01*
X165654318Y-100985933D01*
X165795795Y-100965818D01*
X165938337Y-100972839D01*
G37*
X165938337Y-100972839D02*
X166077779Y-101007005D01*
X166209955Y-101068325D01*
X166330699Y-101156810D01*
X166435846Y-101272470D01*
X166521230Y-101415313D01*
X166544121Y-101465633D01*
X166562666Y-101516636D01*
X166573072Y-101567624D01*
X166577633Y-101630691D01*
X166578643Y-101717929D01*
X166578032Y-101790539D01*
X166574350Y-101857270D01*
X166565322Y-101909334D01*
X166548694Y-101958686D01*
X166522212Y-102017286D01*
X166514552Y-102032902D01*
X166424006Y-102175893D01*
X166310125Y-102293543D01*
X166176141Y-102383089D01*
X166025286Y-102441772D01*
X165947881Y-102458147D01*
X165790849Y-102465810D01*
X165638753Y-102441016D01*
X165496054Y-102386306D01*
X165367212Y-102304223D01*
X165256686Y-102197309D01*
X165168936Y-102068107D01*
X165108423Y-101919158D01*
X165086283Y-101797265D01*
X165084288Y-101662751D01*
X165102295Y-101531908D01*
X165139446Y-101418572D01*
X165182372Y-101337543D01*
X165277933Y-101208987D01*
X165391221Y-101107527D01*
X165518071Y-101033172D01*
X165654318Y-100985933D01*
X165795795Y-100965818D01*
X165938337Y-100972839D01*
%TD*%
M02*
