%TF.GenerationSoftware,KiCad,Pcbnew,(6.0.0-0)*%
%TF.CreationDate,2022-03-01T22:49:58-05:00*%
%TF.ProjectId,Project 1 - LED Torch,50726f6a-6563-4742-9031-202d204c4544,rev?*%
%TF.SameCoordinates,Original*%
%TF.FileFunction,Legend,Top*%
%TF.FilePolarity,Positive*%
%FSLAX46Y46*%
G04 Gerber Fmt 4.6, Leading zero omitted, Abs format (unit mm)*
G04 Created by KiCad (PCBNEW (6.0.0-0)) date 2022-03-01 22:49:58*
%MOMM*%
%LPD*%
G01*
G04 APERTURE LIST*
%ADD10C,0.150000*%
%ADD11C,0.120000*%
G04 APERTURE END LIST*
D10*
X113665047Y-102179428D02*
X114426952Y-102179428D01*
%TO.C,D1*%
X119070380Y-103862095D02*
X118070380Y-103862095D01*
X118070380Y-103624000D01*
X118118000Y-103481142D01*
X118213238Y-103385904D01*
X118308476Y-103338285D01*
X118498952Y-103290666D01*
X118641809Y-103290666D01*
X118832285Y-103338285D01*
X118927523Y-103385904D01*
X119022761Y-103481142D01*
X119070380Y-103624000D01*
X119070380Y-103862095D01*
X119070380Y-102338285D02*
X119070380Y-102909714D01*
X119070380Y-102624000D02*
X118070380Y-102624000D01*
X118213238Y-102719238D01*
X118308476Y-102814476D01*
X118356095Y-102909714D01*
X112062380Y-106560857D02*
X112062380Y-107037047D01*
X111062380Y-107037047D01*
X111538571Y-106227523D02*
X111538571Y-105894190D01*
X112062380Y-105751333D02*
X112062380Y-106227523D01*
X111062380Y-106227523D01*
X111062380Y-105751333D01*
X112062380Y-105322761D02*
X111062380Y-105322761D01*
X111062380Y-105084666D01*
X111110000Y-104941809D01*
X111205238Y-104846571D01*
X111300476Y-104798952D01*
X111490952Y-104751333D01*
X111633809Y-104751333D01*
X111824285Y-104798952D01*
X111919523Y-104846571D01*
X112014761Y-104941809D01*
X112062380Y-105084666D01*
X112062380Y-105322761D01*
%TO.C,SW1*%
X132524666Y-102276761D02*
X132667523Y-102324380D01*
X132905619Y-102324380D01*
X133000857Y-102276761D01*
X133048476Y-102229142D01*
X133096095Y-102133904D01*
X133096095Y-102038666D01*
X133048476Y-101943428D01*
X133000857Y-101895809D01*
X132905619Y-101848190D01*
X132715142Y-101800571D01*
X132619904Y-101752952D01*
X132572285Y-101705333D01*
X132524666Y-101610095D01*
X132524666Y-101514857D01*
X132572285Y-101419619D01*
X132619904Y-101372000D01*
X132715142Y-101324380D01*
X132953238Y-101324380D01*
X133096095Y-101372000D01*
X133429428Y-101324380D02*
X133667523Y-102324380D01*
X133858000Y-101610095D01*
X134048476Y-102324380D01*
X134286571Y-101324380D01*
X135191333Y-102324380D02*
X134619904Y-102324380D01*
X134905619Y-102324380D02*
X134905619Y-101324380D01*
X134810380Y-101467238D01*
X134715142Y-101562476D01*
X134619904Y-101610095D01*
%TO.C,R1*%
X120706380Y-107862666D02*
X120230190Y-108196000D01*
X120706380Y-108434095D02*
X119706380Y-108434095D01*
X119706380Y-108053142D01*
X119754000Y-107957904D01*
X119801619Y-107910285D01*
X119896857Y-107862666D01*
X120039714Y-107862666D01*
X120134952Y-107910285D01*
X120182571Y-107957904D01*
X120230190Y-108053142D01*
X120230190Y-108434095D01*
X120706380Y-106910285D02*
X120706380Y-107481714D01*
X120706380Y-107196000D02*
X119706380Y-107196000D01*
X119849238Y-107291238D01*
X119944476Y-107386476D01*
X119992095Y-107481714D01*
%TO.C,BT1*%
X161012285Y-112958571D02*
X161155142Y-113006190D01*
X161202761Y-113053809D01*
X161250380Y-113149047D01*
X161250380Y-113291904D01*
X161202761Y-113387142D01*
X161155142Y-113434761D01*
X161059904Y-113482380D01*
X160678952Y-113482380D01*
X160678952Y-112482380D01*
X161012285Y-112482380D01*
X161107523Y-112530000D01*
X161155142Y-112577619D01*
X161202761Y-112672857D01*
X161202761Y-112768095D01*
X161155142Y-112863333D01*
X161107523Y-112910952D01*
X161012285Y-112958571D01*
X160678952Y-112958571D01*
X161536095Y-112482380D02*
X162107523Y-112482380D01*
X161821809Y-113482380D02*
X161821809Y-112482380D01*
X162964666Y-113482380D02*
X162393238Y-113482380D01*
X162678952Y-113482380D02*
X162678952Y-112482380D01*
X162583714Y-112625238D01*
X162488476Y-112720476D01*
X162393238Y-112768095D01*
X159726571Y-95940571D02*
X159869428Y-95988190D01*
X159917047Y-96035809D01*
X159964666Y-96131047D01*
X159964666Y-96273904D01*
X159917047Y-96369142D01*
X159869428Y-96416761D01*
X159774190Y-96464380D01*
X159393238Y-96464380D01*
X159393238Y-95464380D01*
X159726571Y-95464380D01*
X159821809Y-95512000D01*
X159869428Y-95559619D01*
X159917047Y-95654857D01*
X159917047Y-95750095D01*
X159869428Y-95845333D01*
X159821809Y-95892952D01*
X159726571Y-95940571D01*
X159393238Y-95940571D01*
X160821809Y-96464380D02*
X160821809Y-95940571D01*
X160774190Y-95845333D01*
X160678952Y-95797714D01*
X160488476Y-95797714D01*
X160393238Y-95845333D01*
X160821809Y-96416761D02*
X160726571Y-96464380D01*
X160488476Y-96464380D01*
X160393238Y-96416761D01*
X160345619Y-96321523D01*
X160345619Y-96226285D01*
X160393238Y-96131047D01*
X160488476Y-96083428D01*
X160726571Y-96083428D01*
X160821809Y-96035809D01*
X161155142Y-95797714D02*
X161536095Y-95797714D01*
X161298000Y-95464380D02*
X161298000Y-96321523D01*
X161345619Y-96416761D01*
X161440857Y-96464380D01*
X161536095Y-96464380D01*
X161726571Y-95797714D02*
X162107523Y-95797714D01*
X161869428Y-95464380D02*
X161869428Y-96321523D01*
X161917047Y-96416761D01*
X162012285Y-96464380D01*
X162107523Y-96464380D01*
X162821809Y-96416761D02*
X162726571Y-96464380D01*
X162536095Y-96464380D01*
X162440857Y-96416761D01*
X162393238Y-96321523D01*
X162393238Y-95940571D01*
X162440857Y-95845333D01*
X162536095Y-95797714D01*
X162726571Y-95797714D01*
X162821809Y-95845333D01*
X162869428Y-95940571D01*
X162869428Y-96035809D01*
X162393238Y-96131047D01*
X163298000Y-96464380D02*
X163298000Y-95797714D01*
X163298000Y-95988190D02*
X163345619Y-95892952D01*
X163393238Y-95845333D01*
X163488476Y-95797714D01*
X163583714Y-95797714D01*
X163821809Y-95797714D02*
X164059904Y-96464380D01*
X164298000Y-95797714D02*
X164059904Y-96464380D01*
X163964666Y-96702476D01*
X163917047Y-96750095D01*
X163821809Y-96797714D01*
D11*
%TO.C,D1*%
X115569538Y-108908000D02*
G75*
G03*
X117114830Y-103358000I462J2990000D01*
G01*
X114025170Y-103358000D02*
G75*
G03*
X115570462Y-108908000I1544830J-2560000D01*
G01*
X118070000Y-105918000D02*
G75*
G03*
X118070000Y-105918000I-2500000J0D01*
G01*
X117115000Y-103358000D02*
X114025000Y-103358000D01*
%TO.C,SW1*%
X135272214Y-106172000D02*
G75*
G03*
X135272214Y-106172000I-1414214J0D01*
G01*
X130888000Y-109292000D02*
X136828000Y-109292000D01*
X130888000Y-103052000D02*
X136828000Y-103052000D01*
X130738000Y-107512000D02*
X130738000Y-104832000D01*
X136978000Y-104832000D02*
X136978000Y-107512000D01*
%TO.C,R1*%
X121254000Y-107838000D02*
X123094000Y-107838000D01*
X123094000Y-107838000D02*
X123094000Y-103998000D01*
X123094000Y-103998000D02*
X121254000Y-103998000D01*
X121254000Y-103998000D02*
X121254000Y-107838000D01*
X122174000Y-108788000D02*
X122174000Y-107838000D01*
X122174000Y-103048000D02*
X122174000Y-103998000D01*
%TO.C,BT1*%
X151105999Y-109020000D02*
G75*
G03*
X153952629Y-113521789I10692001J3610000D01*
G01*
X172490001Y-101800000D02*
G75*
G03*
X169643371Y-97298211I-10692001J-3610000D01*
G01*
X169643371Y-113521789D02*
G75*
G03*
X172490000Y-109020000I-7845371J8111789D01*
G01*
X153952629Y-97298211D02*
G75*
G03*
X151106000Y-101800000I7845371J-8111789D01*
G01*
X147488000Y-107310000D02*
X147488000Y-109020000D01*
X151106000Y-109020000D02*
X147488000Y-109020000D01*
X157938000Y-113520000D02*
X153950700Y-113520000D01*
X160138000Y-111320000D02*
X157938000Y-113520000D01*
X163458000Y-111320000D02*
X160138000Y-111320000D01*
X163458000Y-111320000D02*
X165658000Y-113520000D01*
X169645300Y-113520000D02*
X165658000Y-113520000D01*
X176108000Y-107310000D02*
X176108000Y-109020000D01*
X176108000Y-109020000D02*
X172490000Y-109020000D01*
X172490000Y-101800000D02*
X176108000Y-101800000D01*
X176108000Y-103510000D02*
X176108000Y-101800000D01*
X153950700Y-97300000D02*
X169645300Y-97300000D01*
X147488000Y-103510000D02*
X147488000Y-101800000D01*
X147488000Y-101800000D02*
X151106000Y-101800000D01*
%TD*%
M02*
