%TF.GenerationSoftware,KiCad,Pcbnew,(6.0.0-0)*%
%TF.CreationDate,2022-04-25T15:44:20-04:00*%
%TF.ProjectId,FabduinoNanoOption,46616264-7569-46e6-9f4e-616e6f4f7074,rev?*%
%TF.SameCoordinates,Original*%
%TF.FileFunction,Copper,L2,Bot*%
%TF.FilePolarity,Positive*%
%FSLAX46Y46*%
G04 Gerber Fmt 4.6, Leading zero omitted, Abs format (unit mm)*
G04 Created by KiCad (PCBNEW (6.0.0-0)) date 2022-04-25 15:44:20*
%MOMM*%
%LPD*%
G01*
G04 APERTURE LIST*
G04 Aperture macros list*
%AMOutline5P*
0 Free polygon, 5 corners , with rotation*
0 The origin of the aperture is its center*
0 number of corners: always 5*
0 $1 to $10 corner X, Y*
0 $11 Rotation angle, in degrees counterclockwise*
0 create outline with 5 corners*
4,1,5,$1,$2,$3,$4,$5,$6,$7,$8,$9,$10,$1,$2,$11*%
%AMOutline6P*
0 Free polygon, 6 corners , with rotation*
0 The origin of the aperture is its center*
0 number of corners: always 6*
0 $1 to $12 corner X, Y*
0 $13 Rotation angle, in degrees counterclockwise*
0 create outline with 6 corners*
4,1,6,$1,$2,$3,$4,$5,$6,$7,$8,$9,$10,$11,$12,$1,$2,$13*%
%AMOutline7P*
0 Free polygon, 7 corners , with rotation*
0 The origin of the aperture is its center*
0 number of corners: always 7*
0 $1 to $14 corner X, Y*
0 $15 Rotation angle, in degrees counterclockwise*
0 create outline with 7 corners*
4,1,7,$1,$2,$3,$4,$5,$6,$7,$8,$9,$10,$11,$12,$13,$14,$1,$2,$15*%
%AMOutline8P*
0 Free polygon, 8 corners , with rotation*
0 The origin of the aperture is its center*
0 number of corners: always 8*
0 $1 to $16 corner X, Y*
0 $17 Rotation angle, in degrees counterclockwise*
0 create outline with 8 corners*
4,1,8,$1,$2,$3,$4,$5,$6,$7,$8,$9,$10,$11,$12,$13,$14,$15,$16,$1,$2,$17*%
G04 Aperture macros list end*
%ADD10C,0.127000*%
%TA.AperFunction,NonConductor*%
%ADD11C,0.127000*%
%TD*%
%TA.AperFunction,ComponentPad*%
%ADD12R,1.524000X1.524000*%
%TD*%
%TA.AperFunction,ComponentPad*%
%ADD13Outline8P,-0.762000X0.381000X-0.381000X0.762000X0.381000X0.762000X0.762000X0.381000X0.762000X-0.381000X0.381000X-0.762000X-0.381000X-0.762000X-0.762000X-0.381000X0.000000*%
%TD*%
%TA.AperFunction,ComponentPad*%
%ADD14O,1.524000X3.048000*%
%TD*%
%TA.AperFunction,ComponentPad*%
%ADD15Outline8P,-0.889000X0.444500X-0.444500X0.889000X0.444500X0.889000X0.889000X0.444500X0.889000X-0.444500X0.444500X-0.889000X-0.444500X-0.889000X-0.889000X-0.444500X180.000000*%
%TD*%
%TA.AperFunction,ComponentPad*%
%ADD16Outline8P,-0.889000X0.444500X-0.444500X0.889000X0.444500X0.889000X0.889000X0.444500X0.889000X-0.444500X0.444500X-0.889000X-0.444500X-0.889000X-0.889000X-0.444500X0.000000*%
%TD*%
%TA.AperFunction,ComponentPad*%
%ADD17C,1.320800*%
%TD*%
%TA.AperFunction,ViaPad*%
%ADD18C,1.016000*%
%TD*%
%TA.AperFunction,Conductor*%
%ADD19C,0.254000*%
%TD*%
G04 APERTURE END LIST*
D10*
D11*
X136627528Y-122410864D02*
X137770528Y-122410864D01*
X136736385Y-121213435D02*
X136681957Y-121267864D01*
X136627528Y-121431150D01*
X136627528Y-121540007D01*
X136681957Y-121703292D01*
X136790814Y-121812150D01*
X136899671Y-121866578D01*
X137117385Y-121921007D01*
X137280671Y-121921007D01*
X137498385Y-121866578D01*
X137607242Y-121812150D01*
X137716100Y-121703292D01*
X137770528Y-121540007D01*
X137770528Y-121431150D01*
X137716100Y-121267864D01*
X137661671Y-121213435D01*
X137770528Y-120723578D02*
X136845242Y-120723578D01*
X136736385Y-120669150D01*
X136681957Y-120614721D01*
X136627528Y-120505864D01*
X136627528Y-120288150D01*
X136681957Y-120179292D01*
X136736385Y-120124864D01*
X136845242Y-120070435D01*
X137770528Y-120070435D01*
X137226242Y-119145150D02*
X137171814Y-118981864D01*
X137117385Y-118927435D01*
X137008528Y-118873007D01*
X136845242Y-118873007D01*
X136736385Y-118927435D01*
X136681957Y-118981864D01*
X136627528Y-119090721D01*
X136627528Y-119526150D01*
X137770528Y-119526150D01*
X137770528Y-119145150D01*
X137716100Y-119036292D01*
X137661671Y-118981864D01*
X137552814Y-118927435D01*
X137443957Y-118927435D01*
X137335100Y-118981864D01*
X137280671Y-119036292D01*
X137226242Y-119145150D01*
X137226242Y-119526150D01*
X137226242Y-118383150D02*
X137226242Y-118002150D01*
X136627528Y-117838864D02*
X136627528Y-118383150D01*
X137770528Y-118383150D01*
X137770528Y-117838864D01*
D12*
%TO.P,JP1,1*%
%TO.N,D12*%
X146606100Y-90868600D03*
D13*
%TO.P,JP1,2*%
%TO.N,VCC*%
X146606100Y-88328600D03*
%TO.P,JP1,3*%
%TO.N,D13*%
X149146100Y-90868600D03*
%TO.P,JP1,4*%
%TO.N,D11*%
X149146100Y-88328600D03*
%TO.P,JP1,5*%
%TO.N,RST*%
X151686100Y-90868600D03*
%TO.P,JP1,6*%
%TO.N,GND*%
X151686100Y-88328600D03*
%TD*%
D14*
%TO.P,CN1,1*%
%TO.N,VCC*%
X142796100Y-126428600D03*
%TO.P,CN1,2*%
%TO.N,D0*%
X145336100Y-126428600D03*
%TO.P,CN1,3*%
%TO.N,D1*%
X147876100Y-126428600D03*
%TO.P,CN1,4*%
%TO.N,GND*%
X150416100Y-126428600D03*
%TO.P,CN1,5*%
X152956100Y-126428600D03*
%TO.P,CN1,6*%
%TO.N,N$6*%
X155496100Y-126428600D03*
%TD*%
%TO.P,CN2,1*%
%TO.N,AREF*%
X144066100Y-83248600D03*
%TO.P,CN2,2*%
%TO.N,VCC*%
X146606100Y-83248600D03*
%TO.P,CN2,3*%
X149146100Y-83248600D03*
%TO.P,CN2,4*%
%TO.N,GND*%
X151686100Y-83248600D03*
%TO.P,CN2,5*%
X154226100Y-83248600D03*
%TD*%
D15*
%TO.P,U$1,1*%
%TO.N,D0*%
X160576100Y-111188600D03*
%TO.P,U$1,2*%
%TO.N,D1*%
X160576100Y-108648600D03*
%TO.P,U$1,3*%
%TO.N,D2*%
X160576100Y-106108600D03*
%TO.P,U$1,4*%
%TO.N,D3*%
X160576100Y-103568600D03*
%TO.P,U$1,5*%
%TO.N,D4*%
X160576100Y-101028600D03*
%TO.P,U$1,6*%
%TO.N,D5*%
X160576100Y-98488600D03*
%TO.P,U$1,7*%
%TO.N,D6*%
X160576100Y-95948600D03*
%TO.P,U$1,8*%
%TO.N,D7*%
X160576100Y-93408600D03*
%TO.P,U$1,9*%
%TO.N,D8*%
X160576100Y-90868600D03*
%TO.P,U$1,10*%
%TO.N,D9*%
X160576100Y-88328600D03*
%TD*%
D16*
%TO.P,U$2,1*%
%TO.N,D10*%
X136446100Y-88328600D03*
%TO.P,U$2,2*%
%TO.N,D11*%
X136446100Y-90868600D03*
%TO.P,U$2,3*%
%TO.N,D12*%
X136446100Y-93408600D03*
%TO.P,U$2,4*%
%TO.N,D13*%
X136446100Y-95948600D03*
%TO.P,U$2,5*%
%TO.N,A0*%
X136446100Y-98488600D03*
%TO.P,U$2,6*%
%TO.N,A1*%
X136446100Y-101028600D03*
%TO.P,U$2,7*%
%TO.N,A2*%
X136446100Y-103568600D03*
%TO.P,U$2,8*%
%TO.N,A3*%
X136446100Y-106108600D03*
%TO.P,U$2,9*%
%TO.N,A4*%
X136446100Y-108648600D03*
%TO.P,U$2,10*%
%TO.N,A5*%
X136446100Y-111188600D03*
%TD*%
D17*
%TO.P,Q1,1*%
%TO.N,N$44*%
X151559100Y-112458600D03*
%TO.P,Q1,2*%
%TO.N,N$43*%
X146733100Y-112458600D03*
%TD*%
D18*
%TO.N,A1*%
X139392500Y-110147200D03*
X148993700Y-101231800D03*
%TO.N,A2*%
X138478100Y-101460400D03*
%TO.N,A3*%
X139849700Y-102832000D03*
%TO.N,A4*%
X147622100Y-99403000D03*
%TO.N,A5*%
X148993700Y-103975000D03*
%TO.N,D0*%
X138478100Y-107632600D03*
X146250500Y-99860200D03*
%TO.N,D1*%
X140306900Y-117005200D03*
%TO.N,D2*%
X143507300Y-98488600D03*
%TO.N,D4*%
X149222300Y-95516800D03*
%TO.N,D5*%
X154022900Y-107632600D03*
%TO.N,D6*%
X157909100Y-106718200D03*
%TO.N,D7*%
X154022900Y-105803800D03*
%TO.N,D10*%
X147622100Y-86144200D03*
X156080300Y-100317400D03*
%TO.N,D11*%
X151965500Y-101231800D03*
%TO.N,D12*%
X155165900Y-101231800D03*
%TO.N,D13*%
X137106500Y-115633600D03*
%TO.N,GND*%
X148307900Y-124091800D03*
X145793300Y-122491600D03*
X152879900Y-96659800D03*
%TO.N,VCC*%
X148993700Y-106718200D03*
%TO.N,RST*%
X153337100Y-120662800D03*
X155394500Y-117691000D03*
X145107500Y-96888400D03*
%TO.N,AREF*%
X138935300Y-94145200D03*
%TD*%
D19*
%TO.N,A1*%
X139392500Y-110147200D02*
X144193100Y-110147200D01*
X144193100Y-110147200D02*
X149908100Y-104432200D01*
X149908100Y-104432200D02*
X149908100Y-103517800D01*
X149908100Y-103517800D02*
X148993700Y-102603400D01*
X148993700Y-102603400D02*
X148993700Y-101231800D01*
%TO.N,A2*%
X136420700Y-103517800D02*
X136446100Y-103568600D01*
X136420700Y-103517800D02*
X138478100Y-101460400D01*
%TO.N,A3*%
X136649300Y-106032400D02*
X139849700Y-102832000D01*
X136649300Y-106032400D02*
X136446100Y-106108600D01*
%TO.N,A4*%
X138935300Y-108547000D02*
X147622100Y-99860200D01*
X136649300Y-108547000D02*
X138935300Y-108547000D01*
X147622100Y-99860200D02*
X147622100Y-99403000D01*
X136649300Y-108547000D02*
X136446100Y-108648600D01*
%TO.N,A5*%
X136649300Y-111061600D02*
X136446100Y-111188600D01*
X137106500Y-111061600D02*
X144193100Y-103975000D01*
X144193100Y-103975000D02*
X148993700Y-103975000D01*
X136649300Y-111061600D02*
X137106500Y-111061600D01*
%TO.N,D0*%
X154022900Y-122034400D02*
X160423700Y-115633600D01*
X139849700Y-116090800D02*
X140764100Y-116090800D01*
X139392500Y-120434200D02*
X139392500Y-116548000D01*
X139392500Y-116548000D02*
X139849700Y-116090800D01*
X145336100Y-126377800D02*
X139392500Y-120434200D01*
X145336100Y-126377800D02*
X145336100Y-126428600D01*
X140764100Y-116090800D02*
X146707700Y-122034400D01*
X160423700Y-111290200D02*
X160576100Y-111188600D01*
X160423700Y-115633600D02*
X160423700Y-111290200D01*
X146707700Y-122034400D02*
X154022900Y-122034400D01*
X138478100Y-107632600D02*
X146250500Y-99860200D01*
%TO.N,D1*%
X140306900Y-118834000D02*
X140306900Y-117005200D01*
X147850700Y-126377800D02*
X140306900Y-118834000D01*
X147850700Y-126377800D02*
X147876100Y-126428600D01*
%TO.N,D2*%
X153794300Y-121577200D02*
X152879900Y-121577200D01*
X159280700Y-107404000D02*
X159280700Y-116090800D01*
X159280700Y-116090800D02*
X153794300Y-121577200D01*
X160576100Y-106108600D02*
X159280700Y-107404000D01*
X150365300Y-119062600D02*
X150365300Y-100774600D01*
X152879900Y-121577200D02*
X150365300Y-119062600D01*
X148079300Y-98488600D02*
X143507300Y-98488600D01*
X150365300Y-100774600D02*
X148079300Y-98488600D01*
%TO.N,D4*%
X154480100Y-108547000D02*
X153565700Y-108547000D01*
X153108500Y-108089800D02*
X153108500Y-101003200D01*
X149222300Y-97117000D02*
X149222300Y-95516800D01*
X153108500Y-101003200D02*
X149222300Y-97117000D01*
X159280700Y-103746400D02*
X154480100Y-108547000D01*
X153565700Y-108547000D02*
X153108500Y-108089800D01*
X159280700Y-102374800D02*
X159280700Y-103746400D01*
X160423700Y-101231800D02*
X160576100Y-101028600D01*
X160423700Y-101231800D02*
X159280700Y-102374800D01*
%TO.N,D5*%
X160423700Y-98488600D02*
X160576100Y-98488600D01*
X154022900Y-107175400D02*
X154022900Y-107632600D01*
X160423700Y-98488600D02*
X158823500Y-100088800D01*
X158823500Y-100088800D02*
X158823500Y-102374800D01*
X158823500Y-102374800D02*
X154022900Y-107175400D01*
%TO.N,D6*%
X160652300Y-95974000D02*
X161795300Y-97117000D01*
X160652300Y-95974000D02*
X160576100Y-95948600D01*
X159737900Y-104889400D02*
X157909100Y-106718200D01*
X161795300Y-104203600D02*
X161109500Y-104889400D01*
X161109500Y-104889400D02*
X159737900Y-104889400D01*
X161795300Y-97117000D02*
X161795300Y-104203600D01*
%TO.N,D7*%
X159280700Y-94602400D02*
X159280700Y-98488600D01*
X154022900Y-103746400D02*
X154022900Y-105803800D01*
X159280700Y-98488600D02*
X154022900Y-103746400D01*
X160423700Y-93459400D02*
X159280700Y-94602400D01*
X160423700Y-93459400D02*
X160576100Y-93408600D01*
%TO.N,D10*%
X151736900Y-86144200D02*
X156080300Y-90487600D01*
X147622100Y-86144200D02*
X151736900Y-86144200D01*
X156080300Y-90487600D02*
X156080300Y-100317400D01*
%TO.N,D11*%
X151965500Y-100546000D02*
X151965500Y-101231800D01*
X149222300Y-88430200D02*
X149450900Y-88658800D01*
X149450900Y-88658800D02*
X147850700Y-90259000D01*
X152879900Y-91402000D02*
X152194100Y-92087800D01*
X152194100Y-92087800D02*
X151279700Y-92087800D01*
X148307900Y-95059600D02*
X148307900Y-96888400D01*
X147850700Y-90259000D02*
X147850700Y-91630600D01*
X136649300Y-90944800D02*
X136446100Y-90868600D01*
X149450900Y-88658800D02*
X150365300Y-89573200D01*
X149222300Y-88430200D02*
X149146100Y-88328600D01*
X151965500Y-89573200D02*
X152879900Y-90487600D01*
X147393500Y-92087800D02*
X145793300Y-92087800D01*
X147850700Y-91630600D02*
X147393500Y-92087800D01*
X152879900Y-90487600D02*
X152879900Y-91402000D01*
X151279700Y-92087800D02*
X148307900Y-95059600D01*
X148307900Y-96888400D02*
X151965500Y-100546000D01*
X149450900Y-88658800D02*
X149146100Y-88328600D01*
X145793300Y-92087800D02*
X144650300Y-90944800D01*
X144650300Y-90944800D02*
X136649300Y-90944800D01*
X150365300Y-89573200D02*
X151965500Y-89573200D01*
%TO.N,D12*%
X146707700Y-90716200D02*
X146606100Y-90868600D01*
X146707700Y-90716200D02*
X147850700Y-89573200D01*
X151965500Y-87058600D02*
X155165900Y-90259000D01*
X147850700Y-89573200D02*
X147850700Y-87973000D01*
X155165900Y-90259000D02*
X155165900Y-101231800D01*
X148765100Y-87058600D02*
X151965500Y-87058600D01*
X147850700Y-87973000D02*
X148765100Y-87058600D01*
%TO.N,D13*%
X148307900Y-91630600D02*
X148993700Y-90944800D01*
X136446100Y-95948600D02*
X135049100Y-97345600D01*
X137106500Y-113576200D02*
X137106500Y-115633600D01*
X136649300Y-95745400D02*
X136446100Y-95948600D01*
X135049100Y-111518800D02*
X137106500Y-113576200D01*
X144421700Y-95745400D02*
X148307900Y-91859200D01*
X148307900Y-91859200D02*
X148307900Y-91630600D01*
X136649300Y-95745400D02*
X144421700Y-95745400D01*
X148993700Y-90944800D02*
X149146100Y-90868600D01*
X135049100Y-97345600D02*
X135049100Y-111518800D01*
%TO.N,GND*%
X151736900Y-88430200D02*
X151686100Y-88328600D01*
X153337100Y-91630600D02*
X152879900Y-92087800D01*
X150593900Y-126377800D02*
X148307900Y-124091800D01*
X151736900Y-88430200D02*
X153337100Y-90030400D01*
X152879900Y-92087800D02*
X152879900Y-96659800D01*
X147393500Y-124091800D02*
X148307900Y-124091800D01*
X145793300Y-122491600D02*
X147393500Y-124091800D01*
X153337100Y-90030400D02*
X153337100Y-91630600D01*
X150593900Y-126377800D02*
X150416100Y-126428600D01*
%TO.N,VCC*%
X146707700Y-88201600D02*
X146606100Y-88328600D01*
X146707700Y-88201600D02*
X146707700Y-83401000D01*
X148536500Y-106718200D02*
X148993700Y-106718200D01*
X142592900Y-126377800D02*
X138935300Y-122720200D01*
X138935300Y-122720200D02*
X138935300Y-116319400D01*
X138935300Y-116319400D02*
X148536500Y-106718200D01*
X142592900Y-126377800D02*
X142796100Y-126428600D01*
X146707700Y-83401000D02*
X146606100Y-83248600D01*
%TO.N,RST*%
X151508300Y-90944800D02*
X151686100Y-90868600D01*
X145564700Y-96888400D02*
X145107500Y-96888400D01*
X153337100Y-109004200D02*
X153337100Y-117691000D01*
X153337100Y-117691000D02*
X153337100Y-120662800D01*
X146479100Y-95974000D02*
X150822500Y-100317400D01*
X150822500Y-100317400D02*
X150822500Y-106489600D01*
X153337100Y-117691000D02*
X155394500Y-117691000D01*
X146479100Y-95974000D02*
X145564700Y-96888400D01*
X151508300Y-90944800D02*
X146479100Y-95974000D01*
X150822500Y-106489600D02*
X153337100Y-109004200D01*
%TO.N,AREF*%
X143964500Y-83401000D02*
X144066100Y-83248600D01*
X143964500Y-83401000D02*
X137792300Y-89573200D01*
X135049100Y-90487600D02*
X135049100Y-91402000D01*
X136877900Y-92087800D02*
X138935300Y-94145200D01*
X137792300Y-89573200D02*
X135963500Y-89573200D01*
X135734900Y-92087800D02*
X136877900Y-92087800D01*
X135963500Y-89573200D02*
X135049100Y-90487600D01*
X135049100Y-91402000D02*
X135734900Y-92087800D01*
%TD*%
%TA.AperFunction,NonConductor*%
G36*
X142536806Y-81870613D02*
G01*
X142573351Y-81920913D01*
X142572794Y-81984751D01*
X142535327Y-82093564D01*
X142492179Y-82343362D01*
X142490800Y-82373732D01*
X142490800Y-83503245D01*
X142471587Y-83562376D01*
X142461335Y-83574380D01*
X138295501Y-87740214D01*
X138240103Y-87768440D01*
X138178695Y-87758714D01*
X138134731Y-87714750D01*
X138127764Y-87697157D01*
X138090698Y-87569575D01*
X138036634Y-87472041D01*
X138004623Y-87414291D01*
X138004621Y-87414288D01*
X138002238Y-87409989D01*
X137953526Y-87352346D01*
X137422353Y-86821174D01*
X137362379Y-86770811D01*
X137202486Y-86682909D01*
X137027091Y-86632615D01*
X136992028Y-86629671D01*
X136953996Y-86626477D01*
X136953990Y-86626477D01*
X136951885Y-86626300D01*
X135940312Y-86626300D01*
X135938156Y-86626488D01*
X135938151Y-86626488D01*
X135867203Y-86632668D01*
X135867200Y-86632669D01*
X135862293Y-86633096D01*
X135857560Y-86634471D01*
X135857555Y-86634472D01*
X135698923Y-86680560D01*
X135687075Y-86684002D01*
X135607902Y-86727888D01*
X135531791Y-86770077D01*
X135531788Y-86770079D01*
X135527489Y-86772462D01*
X135469846Y-86821174D01*
X134938674Y-87352347D01*
X134896538Y-87402525D01*
X134843800Y-87435450D01*
X134781779Y-87431089D01*
X134734166Y-87391107D01*
X134718900Y-87337829D01*
X134718900Y-81952000D01*
X134738113Y-81892869D01*
X134788413Y-81856324D01*
X134819500Y-81851400D01*
X142477675Y-81851400D01*
X142536806Y-81870613D01*
G37*
%TD.AperFunction*%
%TA.AperFunction,NonConductor*%
G36*
X162220421Y-89249928D02*
G01*
X162268034Y-89289911D01*
X162283300Y-89343188D01*
X162283300Y-89853844D01*
X162264087Y-89912975D01*
X162213787Y-89949520D01*
X162151613Y-89949520D01*
X162105862Y-89918777D01*
X162084895Y-89893966D01*
X162083526Y-89892346D01*
X161860915Y-89669735D01*
X161832689Y-89614337D01*
X161842415Y-89552929D01*
X161860915Y-89527465D01*
X162081986Y-89306393D01*
X162083526Y-89304853D01*
X162105661Y-89278494D01*
X162158400Y-89245567D01*
X162220421Y-89249928D01*
G37*
%TD.AperFunction*%
%TA.AperFunction,NonConductor*%
G36*
X145371353Y-85011521D02*
G01*
X145413398Y-85039880D01*
X145508245Y-85147463D01*
X145704130Y-85308365D01*
X145711763Y-85312807D01*
X145717406Y-85316092D01*
X145758846Y-85362442D01*
X145767400Y-85403037D01*
X145767400Y-86838897D01*
X145748187Y-86898028D01*
X145731732Y-86915735D01*
X145694977Y-86946795D01*
X145694968Y-86946804D01*
X145693346Y-86948174D01*
X145225674Y-87415847D01*
X145175311Y-87475821D01*
X145087409Y-87635714D01*
X145037115Y-87811109D01*
X145030800Y-87886315D01*
X145030800Y-88770888D01*
X145030988Y-88773044D01*
X145030988Y-88773049D01*
X145036520Y-88836549D01*
X145037596Y-88848907D01*
X145038971Y-88853640D01*
X145038972Y-88853645D01*
X145057421Y-88917145D01*
X145088502Y-89024125D01*
X145176962Y-89183711D01*
X145225674Y-89241354D01*
X145323064Y-89338744D01*
X145351290Y-89394142D01*
X145341564Y-89455550D01*
X145314691Y-89488500D01*
X145265371Y-89527871D01*
X145151537Y-89670470D01*
X145072123Y-89834744D01*
X145070859Y-89840219D01*
X145070858Y-89840222D01*
X145041320Y-89968165D01*
X145009297Y-90021459D01*
X144952066Y-90045752D01*
X144912213Y-90041211D01*
X144846876Y-90019982D01*
X144838661Y-90019118D01*
X144830057Y-90018214D01*
X144814538Y-90015337D01*
X144803298Y-90012325D01*
X144803295Y-90012324D01*
X144798206Y-90010961D01*
X144792943Y-90010685D01*
X144792942Y-90010685D01*
X144758917Y-90008902D01*
X144726724Y-90007215D01*
X144721487Y-90006803D01*
X144699575Y-90004500D01*
X144677546Y-90004500D01*
X144672281Y-90004362D01*
X144667461Y-90004109D01*
X144600817Y-90000617D01*
X144595618Y-90001440D01*
X144595606Y-90001441D01*
X144584117Y-90003261D01*
X144568380Y-90004500D01*
X138933655Y-90004500D01*
X138874524Y-89985287D01*
X138837979Y-89934987D01*
X138837979Y-89872813D01*
X138862520Y-89832765D01*
X143250176Y-85445109D01*
X143305574Y-85416883D01*
X143371916Y-85429300D01*
X143383221Y-85435879D01*
X143619881Y-85526724D01*
X143868020Y-85578563D01*
X144121256Y-85590062D01*
X144125274Y-85589597D01*
X144125277Y-85589597D01*
X144369058Y-85561391D01*
X144369063Y-85561390D01*
X144373073Y-85560926D01*
X144616992Y-85491904D01*
X144846738Y-85384772D01*
X144959167Y-85308365D01*
X145053062Y-85244554D01*
X145053066Y-85244551D01*
X145056400Y-85242285D01*
X145059326Y-85239518D01*
X145059331Y-85239514D01*
X145165122Y-85139473D01*
X145240585Y-85068111D01*
X145258019Y-85045307D01*
X145309197Y-85010002D01*
X145371353Y-85011521D01*
G37*
%TD.AperFunction*%
%TA.AperFunction,NonConductor*%
G36*
X162220421Y-91789928D02*
G01*
X162268034Y-91829911D01*
X162283300Y-91883188D01*
X162283300Y-92393844D01*
X162264087Y-92452975D01*
X162213787Y-92489520D01*
X162151613Y-92489520D01*
X162105862Y-92458777D01*
X162084895Y-92433966D01*
X162083526Y-92432346D01*
X161860915Y-92209735D01*
X161832689Y-92154337D01*
X161842415Y-92092929D01*
X161860915Y-92067465D01*
X162081986Y-91846393D01*
X162083526Y-91844853D01*
X162105661Y-91818494D01*
X162158400Y-91785567D01*
X162220421Y-91789928D01*
G37*
%TD.AperFunction*%
%TA.AperFunction,NonConductor*%
G36*
X144278276Y-91904313D02*
G01*
X144290280Y-91914565D01*
X145070484Y-92694769D01*
X145080735Y-92706771D01*
X145090672Y-92720449D01*
X145094586Y-92723973D01*
X145143859Y-92768339D01*
X145147679Y-92771964D01*
X145163250Y-92787535D01*
X145165284Y-92789182D01*
X145165295Y-92789192D01*
X145180366Y-92801396D01*
X145184369Y-92804815D01*
X145237561Y-92852709D01*
X145242129Y-92855346D01*
X145252211Y-92861167D01*
X145265214Y-92870104D01*
X145278355Y-92880745D01*
X145283053Y-92883139D01*
X145283055Y-92883140D01*
X145342125Y-92913238D01*
X145346750Y-92915749D01*
X145408739Y-92951538D01*
X145413753Y-92953167D01*
X145413757Y-92953169D01*
X145424820Y-92956764D01*
X145439399Y-92962802D01*
X145449777Y-92968090D01*
X145449782Y-92968092D01*
X145454471Y-92970481D01*
X145505603Y-92984182D01*
X145523614Y-92989008D01*
X145528663Y-92990504D01*
X145547272Y-92996550D01*
X145596724Y-93012618D01*
X145601968Y-93013169D01*
X145603970Y-93013595D01*
X145657813Y-93044685D01*
X145683098Y-93101486D01*
X145670168Y-93162301D01*
X145654184Y-93183131D01*
X144061680Y-94775635D01*
X144006282Y-94803861D01*
X143990545Y-94805100D01*
X140243387Y-94805100D01*
X140184256Y-94785887D01*
X140147711Y-94735587D01*
X140147711Y-94673413D01*
X140152212Y-94661985D01*
X140179804Y-94602814D01*
X140179806Y-94602809D01*
X140181658Y-94598837D01*
X140191638Y-94561593D01*
X140240360Y-94379763D01*
X140240361Y-94379758D01*
X140241497Y-94375518D01*
X140261647Y-94145200D01*
X140241497Y-93914882D01*
X140237449Y-93899772D01*
X140182794Y-93695802D01*
X140182793Y-93695800D01*
X140181658Y-93691563D01*
X140179806Y-93687591D01*
X140179804Y-93687586D01*
X140085806Y-93486008D01*
X140083950Y-93482027D01*
X139951341Y-93292641D01*
X139787859Y-93129159D01*
X139598474Y-92996550D01*
X139509696Y-92955152D01*
X139392914Y-92900696D01*
X139392909Y-92900694D01*
X139388937Y-92898842D01*
X139384700Y-92897707D01*
X139384698Y-92897706D01*
X139169863Y-92840140D01*
X139169858Y-92840139D01*
X139165618Y-92839003D01*
X139085084Y-92831957D01*
X138975544Y-92822374D01*
X138918313Y-92798081D01*
X138913177Y-92793292D01*
X138176720Y-92056835D01*
X138148494Y-92001437D01*
X138158220Y-91940029D01*
X138202184Y-91896065D01*
X138247855Y-91885100D01*
X144219145Y-91885100D01*
X144278276Y-91904313D01*
G37*
%TD.AperFunction*%
%TA.AperFunction,NonConductor*%
G36*
X162220421Y-94329928D02*
G01*
X162268034Y-94369911D01*
X162283300Y-94423188D01*
X162283300Y-94933844D01*
X162264087Y-94992975D01*
X162213787Y-95029520D01*
X162151613Y-95029520D01*
X162105862Y-94998777D01*
X162084895Y-94973966D01*
X162083526Y-94972346D01*
X161860915Y-94749735D01*
X161832689Y-94694337D01*
X161842415Y-94632929D01*
X161860915Y-94607465D01*
X162081986Y-94386393D01*
X162083526Y-94384853D01*
X162105661Y-94358494D01*
X162158400Y-94325567D01*
X162220421Y-94329928D01*
G37*
%TD.AperFunction*%
%TA.AperFunction,NonConductor*%
G36*
X134896338Y-94334756D02*
G01*
X134938674Y-94384854D01*
X135161285Y-94607465D01*
X135189511Y-94662863D01*
X135179785Y-94724271D01*
X135161285Y-94749735D01*
X134977177Y-94933844D01*
X134938674Y-94972347D01*
X134896538Y-95022525D01*
X134843800Y-95055450D01*
X134781779Y-95051089D01*
X134734166Y-95011107D01*
X134718900Y-94957829D01*
X134718900Y-94399689D01*
X134738113Y-94340558D01*
X134788413Y-94304013D01*
X134850587Y-94304013D01*
X134896338Y-94334756D01*
G37*
%TD.AperFunction*%
%TA.AperFunction,NonConductor*%
G36*
X154161053Y-92217713D02*
G01*
X154209371Y-92256841D01*
X154225600Y-92311631D01*
X154225600Y-95965424D01*
X154206387Y-96024555D01*
X154156087Y-96061100D01*
X154093913Y-96061100D01*
X154043613Y-96024555D01*
X154033826Y-96007940D01*
X154030409Y-96000613D01*
X154030406Y-96000608D01*
X154028550Y-95996627D01*
X153895941Y-95807241D01*
X153849665Y-95760965D01*
X153821439Y-95705567D01*
X153820200Y-95689830D01*
X153820200Y-92518955D01*
X153839413Y-92459824D01*
X153849665Y-92447820D01*
X153944069Y-92353416D01*
X153956071Y-92343165D01*
X153969749Y-92333228D01*
X154017639Y-92280041D01*
X154021264Y-92276221D01*
X154036835Y-92260650D01*
X154038492Y-92258604D01*
X154038499Y-92258596D01*
X154046820Y-92248321D01*
X154098964Y-92214459D01*
X154161053Y-92217713D01*
G37*
%TD.AperFunction*%
%TA.AperFunction,NonConductor*%
G36*
X146524771Y-97356420D02*
G01*
X146550235Y-97374920D01*
X146551880Y-97376565D01*
X146580106Y-97431963D01*
X146570380Y-97493371D01*
X146526416Y-97537335D01*
X146480745Y-97548300D01*
X146477455Y-97548300D01*
X146418324Y-97529087D01*
X146381779Y-97478787D01*
X146381779Y-97416613D01*
X146406320Y-97376565D01*
X146407965Y-97374920D01*
X146463363Y-97346694D01*
X146524771Y-97356420D01*
G37*
%TD.AperFunction*%
%TA.AperFunction,NonConductor*%
G36*
X162241831Y-81870613D02*
G01*
X162278376Y-81920913D01*
X162283300Y-81952000D01*
X162283300Y-87313844D01*
X162264087Y-87372975D01*
X162213787Y-87409520D01*
X162151613Y-87409520D01*
X162105862Y-87378777D01*
X162084895Y-87353966D01*
X162083526Y-87352346D01*
X161552353Y-86821174D01*
X161492379Y-86770811D01*
X161332486Y-86682909D01*
X161157091Y-86632615D01*
X161122028Y-86629671D01*
X161083996Y-86626477D01*
X161083990Y-86626477D01*
X161081885Y-86626300D01*
X160070312Y-86626300D01*
X160068156Y-86626488D01*
X160068151Y-86626488D01*
X159997203Y-86632668D01*
X159997200Y-86632669D01*
X159992293Y-86633096D01*
X159987560Y-86634471D01*
X159987555Y-86634472D01*
X159828923Y-86680560D01*
X159817075Y-86684002D01*
X159737902Y-86727888D01*
X159661791Y-86770077D01*
X159661788Y-86770079D01*
X159657489Y-86772462D01*
X159599846Y-86821174D01*
X159068674Y-87352347D01*
X159018311Y-87412321D01*
X158930409Y-87572214D01*
X158880115Y-87747609D01*
X158873800Y-87822815D01*
X158873800Y-88834388D01*
X158873988Y-88836544D01*
X158873988Y-88836549D01*
X158875065Y-88848907D01*
X158880596Y-88912407D01*
X158881971Y-88917140D01*
X158881972Y-88917145D01*
X158911483Y-89018721D01*
X158931502Y-89087625D01*
X159019962Y-89247211D01*
X159068674Y-89304854D01*
X159291285Y-89527465D01*
X159319511Y-89582863D01*
X159309785Y-89644271D01*
X159291285Y-89669735D01*
X159179146Y-89781875D01*
X159068674Y-89892347D01*
X159018311Y-89952321D01*
X158930409Y-90112214D01*
X158928859Y-90117618D01*
X158928859Y-90117619D01*
X158924248Y-90133699D01*
X158880115Y-90287609D01*
X158873800Y-90362815D01*
X158873800Y-91374388D01*
X158880596Y-91452407D01*
X158881971Y-91457140D01*
X158881972Y-91457145D01*
X158928060Y-91615777D01*
X158931502Y-91627625D01*
X159019962Y-91787211D01*
X159068674Y-91844854D01*
X159291285Y-92067465D01*
X159319511Y-92122863D01*
X159309785Y-92184271D01*
X159291285Y-92209735D01*
X159171707Y-92329314D01*
X159068674Y-92432347D01*
X159018311Y-92492321D01*
X158930409Y-92652214D01*
X158880115Y-92827609D01*
X158879158Y-92839003D01*
X158874134Y-92898842D01*
X158873800Y-92902815D01*
X158873800Y-93637845D01*
X158854587Y-93696976D01*
X158844335Y-93708980D01*
X158673731Y-93879584D01*
X158661729Y-93889835D01*
X158648051Y-93899772D01*
X158644527Y-93903686D01*
X158600161Y-93952959D01*
X158596536Y-93956779D01*
X158580965Y-93972350D01*
X158579318Y-93974384D01*
X158579308Y-93974395D01*
X158567104Y-93989466D01*
X158563685Y-93993469D01*
X158515791Y-94046661D01*
X158513154Y-94051229D01*
X158507333Y-94061311D01*
X158498396Y-94074314D01*
X158487755Y-94087455D01*
X158485361Y-94092153D01*
X158485360Y-94092155D01*
X158455262Y-94151225D01*
X158452751Y-94155850D01*
X158416962Y-94217839D01*
X158415333Y-94222853D01*
X158415331Y-94222857D01*
X158411736Y-94233920D01*
X158405698Y-94248499D01*
X158400410Y-94258877D01*
X158400408Y-94258882D01*
X158398019Y-94263571D01*
X158396656Y-94268659D01*
X158379492Y-94332714D01*
X158377996Y-94337763D01*
X158355882Y-94405824D01*
X158355331Y-94411066D01*
X158354114Y-94422643D01*
X158351237Y-94438162D01*
X158346861Y-94454494D01*
X158346585Y-94459757D01*
X158346585Y-94459758D01*
X158343115Y-94525972D01*
X158342703Y-94531213D01*
X158340400Y-94553125D01*
X158340400Y-94575154D01*
X158340262Y-94580419D01*
X158336517Y-94651883D01*
X158337340Y-94657082D01*
X158337341Y-94657094D01*
X158339161Y-94668583D01*
X158340400Y-94684320D01*
X158340400Y-98057445D01*
X158321187Y-98116576D01*
X158310935Y-98128580D01*
X157716353Y-98723163D01*
X157192335Y-99247181D01*
X157136937Y-99275407D01*
X157075529Y-99265681D01*
X157031565Y-99221717D01*
X157020600Y-99176046D01*
X157020600Y-90569512D01*
X157021839Y-90553774D01*
X157023658Y-90542291D01*
X157024483Y-90537082D01*
X157020738Y-90465618D01*
X157020600Y-90460353D01*
X157020600Y-90438325D01*
X157018297Y-90416413D01*
X157017885Y-90411172D01*
X157014415Y-90344958D01*
X157014415Y-90344957D01*
X157014139Y-90339694D01*
X157009763Y-90323362D01*
X157006886Y-90307843D01*
X157005669Y-90296266D01*
X157005118Y-90291024D01*
X156983004Y-90222963D01*
X156981508Y-90217914D01*
X156964344Y-90153859D01*
X156962981Y-90148771D01*
X156960592Y-90144082D01*
X156960590Y-90144077D01*
X156955302Y-90133699D01*
X156949264Y-90119120D01*
X156945669Y-90108057D01*
X156945667Y-90108053D01*
X156944038Y-90103039D01*
X156908249Y-90041050D01*
X156905738Y-90036425D01*
X156875640Y-89977355D01*
X156875639Y-89977353D01*
X156873245Y-89972655D01*
X156862604Y-89959514D01*
X156853667Y-89946511D01*
X156847846Y-89936429D01*
X156845209Y-89931861D01*
X156811088Y-89893966D01*
X156797315Y-89878669D01*
X156793896Y-89874666D01*
X156781692Y-89859595D01*
X156781682Y-89859584D01*
X156780035Y-89857550D01*
X156764464Y-89841979D01*
X156760839Y-89838159D01*
X156716475Y-89788888D01*
X156712949Y-89784972D01*
X156708690Y-89781877D01*
X156708687Y-89781875D01*
X156699268Y-89775032D01*
X156687265Y-89764780D01*
X152459716Y-85537231D01*
X152449468Y-85525233D01*
X152447880Y-85523047D01*
X152428664Y-85463919D01*
X152447873Y-85404786D01*
X152472718Y-85380708D01*
X152673062Y-85244554D01*
X152673066Y-85244551D01*
X152676400Y-85242285D01*
X152679326Y-85239518D01*
X152679331Y-85239514D01*
X152785122Y-85139473D01*
X152860585Y-85068111D01*
X152878019Y-85045307D01*
X152929197Y-85010002D01*
X152991353Y-85011521D01*
X153033398Y-85039880D01*
X153128245Y-85147463D01*
X153324130Y-85308365D01*
X153543221Y-85435879D01*
X153779881Y-85526724D01*
X154028020Y-85578563D01*
X154281256Y-85590062D01*
X154285274Y-85589597D01*
X154285277Y-85589597D01*
X154529058Y-85561391D01*
X154529063Y-85561390D01*
X154533073Y-85560926D01*
X154776992Y-85491904D01*
X155006738Y-85384772D01*
X155119167Y-85308365D01*
X155213062Y-85244554D01*
X155213066Y-85244551D01*
X155216400Y-85242285D01*
X155219326Y-85239518D01*
X155219331Y-85239514D01*
X155397656Y-85070881D01*
X155397657Y-85070880D01*
X155400585Y-85068111D01*
X155554552Y-84866729D01*
X155674343Y-84643322D01*
X155756873Y-84403636D01*
X155800021Y-84153838D01*
X155801400Y-84123468D01*
X155801400Y-82422902D01*
X155786195Y-82233920D01*
X155725727Y-81987740D01*
X155724149Y-81984022D01*
X155724059Y-81983752D01*
X155723627Y-81921579D01*
X155759821Y-81871026D01*
X155819517Y-81851400D01*
X162182700Y-81851400D01*
X162241831Y-81870613D01*
G37*
%TD.AperFunction*%
%TA.AperFunction,NonConductor*%
G36*
X151898131Y-93047313D02*
G01*
X151934676Y-93097613D01*
X151939600Y-93128700D01*
X151939600Y-95689830D01*
X151920387Y-95748961D01*
X151910135Y-95760965D01*
X151863859Y-95807241D01*
X151731250Y-95996627D01*
X151725975Y-96007940D01*
X151635396Y-96202186D01*
X151635394Y-96202191D01*
X151633542Y-96206163D01*
X151632407Y-96210400D01*
X151632406Y-96210402D01*
X151588981Y-96372465D01*
X151573703Y-96429482D01*
X151553553Y-96659800D01*
X151573703Y-96890118D01*
X151574839Y-96894358D01*
X151574840Y-96894363D01*
X151583010Y-96924853D01*
X151633542Y-97113437D01*
X151635394Y-97117409D01*
X151635396Y-97117414D01*
X151665701Y-97182403D01*
X151731250Y-97322973D01*
X151796817Y-97416613D01*
X151850564Y-97493371D01*
X151863859Y-97512359D01*
X152027341Y-97675841D01*
X152216726Y-97808450D01*
X152245420Y-97821830D01*
X152422286Y-97904304D01*
X152422291Y-97904306D01*
X152426263Y-97906158D01*
X152430500Y-97907293D01*
X152430502Y-97907294D01*
X152645337Y-97964860D01*
X152645342Y-97964861D01*
X152649582Y-97965997D01*
X152879900Y-97986147D01*
X153110218Y-97965997D01*
X153114458Y-97964861D01*
X153114463Y-97964860D01*
X153329298Y-97907294D01*
X153329300Y-97907293D01*
X153333537Y-97906158D01*
X153337509Y-97904306D01*
X153337514Y-97904304D01*
X153514380Y-97821830D01*
X153543074Y-97808450D01*
X153732459Y-97675841D01*
X153895941Y-97512359D01*
X153909237Y-97493371D01*
X153962983Y-97416613D01*
X154028550Y-97322973D01*
X154030409Y-97318987D01*
X154033826Y-97311660D01*
X154076229Y-97266189D01*
X154137261Y-97254326D01*
X154193610Y-97280602D01*
X154223752Y-97334982D01*
X154225600Y-97354176D01*
X154225600Y-100261830D01*
X154206387Y-100320961D01*
X154196135Y-100332965D01*
X154149859Y-100379241D01*
X154147342Y-100382835D01*
X154147340Y-100382838D01*
X154069453Y-100494073D01*
X154019798Y-100531490D01*
X153957634Y-100532575D01*
X153906703Y-100496914D01*
X153903595Y-100492474D01*
X153901445Y-100488255D01*
X153890804Y-100475114D01*
X153881867Y-100462111D01*
X153876046Y-100452029D01*
X153873409Y-100447461D01*
X153825515Y-100394269D01*
X153822096Y-100390266D01*
X153809892Y-100375195D01*
X153809882Y-100375184D01*
X153808235Y-100373150D01*
X153792664Y-100357579D01*
X153789039Y-100353759D01*
X153744675Y-100304488D01*
X153741149Y-100300572D01*
X153736890Y-100297477D01*
X153736887Y-100297475D01*
X153727468Y-100290632D01*
X153715465Y-100280380D01*
X150192065Y-96756980D01*
X150163839Y-96701582D01*
X150162600Y-96685845D01*
X150162600Y-96486770D01*
X150181813Y-96427639D01*
X150192065Y-96415635D01*
X150238341Y-96369359D01*
X150370950Y-96179973D01*
X150426381Y-96061100D01*
X150466804Y-95974414D01*
X150466806Y-95974409D01*
X150468658Y-95970437D01*
X150512387Y-95807241D01*
X150527360Y-95751363D01*
X150527361Y-95751358D01*
X150528497Y-95747118D01*
X150548647Y-95516800D01*
X150528497Y-95286482D01*
X150502531Y-95189575D01*
X150469794Y-95067402D01*
X150469793Y-95067400D01*
X150468658Y-95063163D01*
X150466806Y-95059191D01*
X150466804Y-95059186D01*
X150372806Y-94857608D01*
X150370950Y-94853627D01*
X150280374Y-94724271D01*
X150240860Y-94667838D01*
X150240858Y-94667835D01*
X150238341Y-94664241D01*
X150206828Y-94632728D01*
X150178602Y-94577330D01*
X150188328Y-94515922D01*
X150206828Y-94490458D01*
X151639720Y-93057565D01*
X151695118Y-93029339D01*
X151710855Y-93028100D01*
X151839000Y-93028100D01*
X151898131Y-93047313D01*
G37*
%TD.AperFunction*%
%TA.AperFunction,NonConductor*%
G36*
X147624605Y-101285786D02*
G01*
X147668569Y-101329750D01*
X147679151Y-101366653D01*
X147687503Y-101462118D01*
X147688639Y-101466358D01*
X147688640Y-101466363D01*
X147721098Y-101587496D01*
X147747342Y-101685437D01*
X147749194Y-101689409D01*
X147749196Y-101689414D01*
X147803499Y-101805867D01*
X147845050Y-101894973D01*
X147977659Y-102084359D01*
X148023935Y-102130635D01*
X148052161Y-102186033D01*
X148053400Y-102201770D01*
X148053400Y-102521487D01*
X148052161Y-102537222D01*
X148049517Y-102553917D01*
X148049793Y-102559182D01*
X148053262Y-102625381D01*
X148053400Y-102630646D01*
X148053400Y-102652675D01*
X148053675Y-102655291D01*
X148055702Y-102674578D01*
X148056115Y-102679824D01*
X148059861Y-102751306D01*
X148061224Y-102756395D01*
X148061225Y-102756398D01*
X148064237Y-102767638D01*
X148067114Y-102783157D01*
X148068882Y-102799976D01*
X148070512Y-102804992D01*
X148090996Y-102868037D01*
X148092492Y-102873086D01*
X148101864Y-102908062D01*
X148098610Y-102970151D01*
X148059483Y-103018470D01*
X148004692Y-103034700D01*
X146020255Y-103034700D01*
X145961124Y-103015487D01*
X145924579Y-102965187D01*
X145924579Y-102903013D01*
X145949120Y-102862965D01*
X147507799Y-101304286D01*
X147563197Y-101276060D01*
X147624605Y-101285786D01*
G37*
%TD.AperFunction*%
%TA.AperFunction,NonConductor*%
G36*
X143748233Y-96704913D02*
G01*
X143784778Y-96755213D01*
X143789319Y-96795066D01*
X143781153Y-96888400D01*
X143781536Y-96892778D01*
X143796960Y-97069075D01*
X143782974Y-97129656D01*
X143736051Y-97170446D01*
X143687976Y-97178060D01*
X143507300Y-97162253D01*
X143276982Y-97182403D01*
X143272742Y-97183539D01*
X143272737Y-97183540D01*
X143057902Y-97241106D01*
X143057900Y-97241107D01*
X143053663Y-97242242D01*
X143049691Y-97244094D01*
X143049686Y-97244096D01*
X142951814Y-97289735D01*
X142844127Y-97339950D01*
X142791835Y-97376565D01*
X142658338Y-97470040D01*
X142658335Y-97470042D01*
X142654741Y-97472559D01*
X142491259Y-97636041D01*
X142488742Y-97639635D01*
X142488740Y-97639638D01*
X142463391Y-97675841D01*
X142358650Y-97825427D01*
X142321869Y-97904304D01*
X142262796Y-98030986D01*
X142262794Y-98030991D01*
X142260942Y-98034963D01*
X142259807Y-98039200D01*
X142259806Y-98039202D01*
X142239074Y-98116576D01*
X142201103Y-98258282D01*
X142180953Y-98488600D01*
X142201103Y-98718918D01*
X142260942Y-98942237D01*
X142262794Y-98946209D01*
X142262796Y-98946214D01*
X142284272Y-98992269D01*
X142358650Y-99151773D01*
X142361169Y-99155370D01*
X142427370Y-99249915D01*
X142491259Y-99341159D01*
X142654741Y-99504641D01*
X142844126Y-99637250D01*
X142932904Y-99678648D01*
X143049686Y-99733104D01*
X143049691Y-99733106D01*
X143053663Y-99734958D01*
X143057900Y-99736093D01*
X143057902Y-99736094D01*
X143272737Y-99793660D01*
X143272742Y-99793661D01*
X143276982Y-99794797D01*
X143507300Y-99814947D01*
X143737618Y-99794797D01*
X143741858Y-99793661D01*
X143741863Y-99793660D01*
X143956698Y-99736094D01*
X143956700Y-99736093D01*
X143960937Y-99734958D01*
X143964909Y-99733106D01*
X143964914Y-99733104D01*
X144081696Y-99678648D01*
X144170474Y-99637250D01*
X144359859Y-99504641D01*
X144406135Y-99458365D01*
X144461533Y-99430139D01*
X144477270Y-99428900D01*
X144867052Y-99428900D01*
X144926183Y-99448113D01*
X144962728Y-99498413D01*
X144964224Y-99555537D01*
X144944303Y-99629882D01*
X144943920Y-99634261D01*
X144927674Y-99819956D01*
X144903381Y-99877187D01*
X144898592Y-99882323D01*
X141140184Y-103640731D01*
X141084786Y-103668957D01*
X141023378Y-103659231D01*
X140979414Y-103615267D01*
X140969688Y-103553859D01*
X140986642Y-103511895D01*
X140995828Y-103498776D01*
X140995832Y-103498769D01*
X140998350Y-103495173D01*
X141039901Y-103406067D01*
X141094204Y-103289614D01*
X141094206Y-103289609D01*
X141096058Y-103285637D01*
X141155897Y-103062318D01*
X141176047Y-102832000D01*
X141155897Y-102601682D01*
X141145792Y-102563967D01*
X141097194Y-102382602D01*
X141097193Y-102382600D01*
X141096058Y-102378363D01*
X141094206Y-102374391D01*
X141094204Y-102374386D01*
X141039901Y-102257933D01*
X140998350Y-102168827D01*
X140890486Y-102014780D01*
X140868260Y-101983038D01*
X140868258Y-101983035D01*
X140865741Y-101979441D01*
X140702259Y-101815959D01*
X140512874Y-101683350D01*
X140424096Y-101641952D01*
X140307314Y-101587496D01*
X140307309Y-101587494D01*
X140303337Y-101585642D01*
X140299100Y-101584507D01*
X140299098Y-101584506D01*
X140084263Y-101526940D01*
X140084258Y-101526939D01*
X140080018Y-101525803D01*
X140041682Y-101522449D01*
X139892180Y-101509369D01*
X139834948Y-101485076D01*
X139802926Y-101431782D01*
X139800731Y-101417920D01*
X139784680Y-101234461D01*
X139784297Y-101230082D01*
X139759191Y-101136384D01*
X139725594Y-101011002D01*
X139725593Y-101011000D01*
X139724458Y-101006763D01*
X139722606Y-101002791D01*
X139722604Y-101002786D01*
X139628606Y-100801208D01*
X139626750Y-100797227D01*
X139520394Y-100645334D01*
X139496660Y-100611438D01*
X139496658Y-100611435D01*
X139494141Y-100607841D01*
X139330659Y-100444359D01*
X139141274Y-100311750D01*
X139052496Y-100270352D01*
X138935714Y-100215896D01*
X138935709Y-100215894D01*
X138931737Y-100214042D01*
X138927500Y-100212907D01*
X138927498Y-100212906D01*
X138712663Y-100155340D01*
X138712658Y-100155339D01*
X138708418Y-100154203D01*
X138478100Y-100134053D01*
X138247782Y-100154203D01*
X138243542Y-100155339D01*
X138243537Y-100155340D01*
X138131251Y-100185428D01*
X138069162Y-100182174D01*
X138020843Y-100143047D01*
X138017226Y-100137028D01*
X138004623Y-100114291D01*
X138004621Y-100114288D01*
X138002238Y-100109989D01*
X137953526Y-100052346D01*
X137730915Y-99829735D01*
X137702689Y-99774337D01*
X137712415Y-99712929D01*
X137730915Y-99687465D01*
X137951986Y-99466393D01*
X137953526Y-99464853D01*
X138003889Y-99404879D01*
X138091791Y-99244986D01*
X138142085Y-99069591D01*
X138148400Y-98994385D01*
X138148400Y-97982812D01*
X138146969Y-97966380D01*
X138142032Y-97909703D01*
X138142031Y-97909700D01*
X138141604Y-97904793D01*
X138140229Y-97900060D01*
X138140228Y-97900055D01*
X138092268Y-97734979D01*
X138090698Y-97729575D01*
X138002238Y-97569989D01*
X137953526Y-97512346D01*
X137730915Y-97289735D01*
X137702689Y-97234337D01*
X137712415Y-97172929D01*
X137730915Y-97147465D01*
X137951986Y-96926393D01*
X137953526Y-96924853D01*
X138003889Y-96864879D01*
X138073732Y-96737835D01*
X138119055Y-96695274D01*
X138161888Y-96685700D01*
X143689102Y-96685700D01*
X143748233Y-96704913D01*
G37*
%TD.AperFunction*%
%TA.AperFunction,NonConductor*%
G36*
X157828271Y-101369120D02*
G01*
X157872235Y-101413084D01*
X157883200Y-101458755D01*
X157883200Y-101943645D01*
X157863987Y-102002776D01*
X157853735Y-102014780D01*
X155134935Y-104733581D01*
X155079537Y-104761807D01*
X155018129Y-104752081D01*
X154974165Y-104708117D01*
X154963200Y-104662446D01*
X154963200Y-104177555D01*
X154982413Y-104118424D01*
X154992665Y-104106420D01*
X157711465Y-101387620D01*
X157766863Y-101359394D01*
X157828271Y-101369120D01*
G37*
%TD.AperFunction*%
%TA.AperFunction,NonConductor*%
G36*
X140647837Y-103971008D02*
G01*
X140683498Y-104021939D01*
X140682413Y-104084103D01*
X140658429Y-104122486D01*
X138500223Y-106280692D01*
X138444825Y-106308918D01*
X138437856Y-106309774D01*
X138257768Y-106325529D01*
X138197187Y-106311543D01*
X138156397Y-106264619D01*
X138148400Y-106225312D01*
X138148400Y-105904755D01*
X138167613Y-105845624D01*
X138177865Y-105833620D01*
X139827577Y-104183908D01*
X139882975Y-104155682D01*
X139889944Y-104154826D01*
X139999484Y-104145243D01*
X140080018Y-104138197D01*
X140084258Y-104137061D01*
X140084263Y-104137060D01*
X140299098Y-104079494D01*
X140299100Y-104079493D01*
X140303337Y-104078358D01*
X140307309Y-104076506D01*
X140307314Y-104076504D01*
X140424329Y-104021939D01*
X140512874Y-103980650D01*
X140529592Y-103968944D01*
X140589050Y-103950766D01*
X140647837Y-103971008D01*
G37*
%TD.AperFunction*%
%TA.AperFunction,NonConductor*%
G36*
X152119412Y-102563967D02*
G01*
X152160203Y-102610890D01*
X152168200Y-102650198D01*
X152168200Y-106262645D01*
X152148987Y-106321776D01*
X152098687Y-106358321D01*
X152036513Y-106358321D01*
X151996465Y-106333780D01*
X151792265Y-106129580D01*
X151764039Y-106074182D01*
X151762800Y-106058445D01*
X151762800Y-102650198D01*
X151782013Y-102591067D01*
X151832313Y-102554522D01*
X151872166Y-102549981D01*
X151965500Y-102558147D01*
X152058834Y-102549981D01*
X152119412Y-102563967D01*
G37*
%TD.AperFunction*%
%TA.AperFunction,NonConductor*%
G36*
X162220421Y-107029928D02*
G01*
X162268034Y-107069911D01*
X162283300Y-107123188D01*
X162283300Y-107633844D01*
X162264087Y-107692975D01*
X162213787Y-107729520D01*
X162151613Y-107729520D01*
X162105862Y-107698777D01*
X162084895Y-107673966D01*
X162083526Y-107672346D01*
X161860915Y-107449735D01*
X161832689Y-107394337D01*
X161842415Y-107332929D01*
X161860915Y-107307465D01*
X162081986Y-107086393D01*
X162083526Y-107084853D01*
X162105661Y-107058494D01*
X162158400Y-107025567D01*
X162220421Y-107029928D01*
G37*
%TD.AperFunction*%
%TA.AperFunction,NonConductor*%
G36*
X147911477Y-104934513D02*
G01*
X147948022Y-104984813D01*
X147948022Y-105046987D01*
X147923481Y-105087035D01*
X145703050Y-107307465D01*
X143833080Y-109177435D01*
X143777682Y-109205661D01*
X143761945Y-109206900D01*
X140533856Y-109206900D01*
X140474725Y-109187687D01*
X140438180Y-109137387D01*
X140438180Y-109075213D01*
X140462721Y-109035165D01*
X144553120Y-104944765D01*
X144608518Y-104916539D01*
X144624255Y-104915300D01*
X147852346Y-104915300D01*
X147911477Y-104934513D01*
G37*
%TD.AperFunction*%
%TA.AperFunction,NonConductor*%
G36*
X162220421Y-109569928D02*
G01*
X162268034Y-109609911D01*
X162283300Y-109663188D01*
X162283300Y-110173844D01*
X162264087Y-110232975D01*
X162213787Y-110269520D01*
X162151613Y-110269520D01*
X162105862Y-110238777D01*
X162084895Y-110213966D01*
X162083526Y-110212346D01*
X161860915Y-109989735D01*
X161832689Y-109934337D01*
X161842415Y-109872929D01*
X161860915Y-109847465D01*
X162081986Y-109626393D01*
X162083526Y-109624853D01*
X162105661Y-109598494D01*
X162158400Y-109565567D01*
X162220421Y-109569928D01*
G37*
%TD.AperFunction*%
%TA.AperFunction,NonConductor*%
G36*
X151477335Y-108474220D02*
G01*
X152367335Y-109364220D01*
X152395561Y-109419618D01*
X152396800Y-109435355D01*
X152396800Y-111067166D01*
X152377587Y-111126297D01*
X152327287Y-111162842D01*
X152265113Y-111162842D01*
X152247581Y-111155237D01*
X152168891Y-111111797D01*
X152168884Y-111111794D01*
X152165274Y-111109801D01*
X151936841Y-111028909D01*
X151932778Y-111028185D01*
X151932777Y-111028185D01*
X151883918Y-111019482D01*
X151698263Y-110986412D01*
X151694134Y-110986362D01*
X151694128Y-110986361D01*
X151578601Y-110984950D01*
X151455948Y-110983451D01*
X151451866Y-110984076D01*
X151451861Y-110984076D01*
X151421417Y-110988735D01*
X151360060Y-110978688D01*
X151316327Y-110934495D01*
X151305600Y-110889293D01*
X151305600Y-108545355D01*
X151324813Y-108486224D01*
X151375113Y-108449679D01*
X151437287Y-108449679D01*
X151477335Y-108474220D01*
G37*
%TD.AperFunction*%
%TA.AperFunction,NonConductor*%
G36*
X142653676Y-111106713D02*
G01*
X142690221Y-111157013D01*
X142690221Y-111219187D01*
X142665680Y-111259235D01*
X138558927Y-115365988D01*
X138503529Y-115394214D01*
X138442121Y-115384488D01*
X138398157Y-115340524D01*
X138390620Y-115320890D01*
X138353995Y-115184205D01*
X138353994Y-115184201D01*
X138352858Y-115179963D01*
X138351006Y-115175991D01*
X138351004Y-115175986D01*
X138257006Y-114974408D01*
X138255150Y-114970427D01*
X138122541Y-114781041D01*
X138076265Y-114734765D01*
X138048039Y-114679367D01*
X138046800Y-114663630D01*
X138046800Y-113658113D01*
X138048039Y-113642375D01*
X138049858Y-113630892D01*
X138050683Y-113625683D01*
X138046938Y-113554219D01*
X138046800Y-113548954D01*
X138046800Y-113526925D01*
X138044497Y-113505013D01*
X138044085Y-113499772D01*
X138040615Y-113433558D01*
X138040615Y-113433557D01*
X138040339Y-113428294D01*
X138038095Y-113419917D01*
X138035963Y-113411962D01*
X138033086Y-113396443D01*
X138031869Y-113384866D01*
X138031318Y-113379624D01*
X138009204Y-113311563D01*
X138007708Y-113306514D01*
X137990544Y-113242459D01*
X137989181Y-113237371D01*
X137986792Y-113232682D01*
X137986790Y-113232677D01*
X137981502Y-113222299D01*
X137975464Y-113207720D01*
X137971869Y-113196657D01*
X137971867Y-113196653D01*
X137970238Y-113191639D01*
X137934449Y-113129650D01*
X137931938Y-113125025D01*
X137901840Y-113065955D01*
X137901839Y-113065953D01*
X137899445Y-113061255D01*
X137888804Y-113048114D01*
X137879867Y-113035111D01*
X137874046Y-113025029D01*
X137871409Y-113020461D01*
X137823515Y-112967269D01*
X137820096Y-112963266D01*
X137807892Y-112948195D01*
X137807882Y-112948184D01*
X137806235Y-112946150D01*
X137790664Y-112930579D01*
X137787039Y-112926759D01*
X137742675Y-112877488D01*
X137739149Y-112873572D01*
X137734890Y-112870477D01*
X137734887Y-112870475D01*
X137725468Y-112863632D01*
X137713465Y-112853380D01*
X137560367Y-112700282D01*
X137532141Y-112644884D01*
X137541867Y-112583476D01*
X137560367Y-112558012D01*
X137953526Y-112164853D01*
X138003889Y-112104879D01*
X138091791Y-111944986D01*
X138142085Y-111769591D01*
X138148400Y-111694385D01*
X138148400Y-111391155D01*
X138167613Y-111332024D01*
X138177865Y-111320020D01*
X138366158Y-111131728D01*
X138421556Y-111103502D01*
X138482965Y-111113228D01*
X138508428Y-111131728D01*
X138539941Y-111163241D01*
X138729326Y-111295850D01*
X138781159Y-111320020D01*
X138934886Y-111391704D01*
X138934891Y-111391706D01*
X138938863Y-111393558D01*
X138943100Y-111394693D01*
X138943102Y-111394694D01*
X139157937Y-111452260D01*
X139157942Y-111452261D01*
X139162182Y-111453397D01*
X139392500Y-111473547D01*
X139622818Y-111453397D01*
X139627058Y-111452261D01*
X139627063Y-111452260D01*
X139841898Y-111394694D01*
X139841900Y-111394693D01*
X139846137Y-111393558D01*
X139850109Y-111391706D01*
X139850114Y-111391704D01*
X140003841Y-111320020D01*
X140055674Y-111295850D01*
X140245059Y-111163241D01*
X140291335Y-111116965D01*
X140346733Y-111088739D01*
X140362470Y-111087500D01*
X142594545Y-111087500D01*
X142653676Y-111106713D01*
G37*
%TD.AperFunction*%
%TA.AperFunction,NonConductor*%
G36*
X134890635Y-112690120D02*
G01*
X136136735Y-113936220D01*
X136164961Y-113991618D01*
X136166200Y-114007355D01*
X136166200Y-114663630D01*
X136146987Y-114722761D01*
X136136735Y-114734765D01*
X136090459Y-114781041D01*
X135957850Y-114970427D01*
X135955994Y-114974408D01*
X135861996Y-115175986D01*
X135861994Y-115175991D01*
X135860142Y-115179963D01*
X135859007Y-115184200D01*
X135859006Y-115184202D01*
X135802733Y-115394214D01*
X135800303Y-115403282D01*
X135780153Y-115633600D01*
X135800303Y-115863918D01*
X135801439Y-115868158D01*
X135801440Y-115868163D01*
X135858242Y-116080148D01*
X135860142Y-116087237D01*
X135861994Y-116091209D01*
X135861996Y-116091214D01*
X135888730Y-116148545D01*
X135957850Y-116296773D01*
X135960369Y-116300370D01*
X136042382Y-116417498D01*
X136060560Y-116476956D01*
X136040318Y-116535743D01*
X135989387Y-116571404D01*
X135959975Y-116575800D01*
X134819500Y-116575800D01*
X134760369Y-116556587D01*
X134723824Y-116506287D01*
X134718900Y-116475200D01*
X134718900Y-112761255D01*
X134738113Y-112702124D01*
X134788413Y-112665579D01*
X134850587Y-112665579D01*
X134890635Y-112690120D01*
G37*
%TD.AperFunction*%
%TA.AperFunction,NonConductor*%
G36*
X156885264Y-107569928D02*
G01*
X156910728Y-107588428D01*
X157056541Y-107734241D01*
X157245926Y-107866850D01*
X157334704Y-107908248D01*
X157451486Y-107962704D01*
X157451491Y-107962706D01*
X157455463Y-107964558D01*
X157459700Y-107965693D01*
X157459702Y-107965694D01*
X157674537Y-108023260D01*
X157674542Y-108023261D01*
X157678782Y-108024397D01*
X157909100Y-108044547D01*
X158139418Y-108024397D01*
X158143660Y-108023260D01*
X158143662Y-108023260D01*
X158178362Y-108013962D01*
X158213763Y-108004476D01*
X158275851Y-108007730D01*
X158324170Y-108046857D01*
X158340400Y-108101648D01*
X158340400Y-115659645D01*
X158321187Y-115718776D01*
X158310935Y-115730780D01*
X156794443Y-117247272D01*
X156739045Y-117275498D01*
X156677637Y-117265772D01*
X156632133Y-117218652D01*
X156545006Y-117031808D01*
X156543150Y-117027827D01*
X156410541Y-116838441D01*
X156247059Y-116674959D01*
X156057674Y-116542350D01*
X155937171Y-116486159D01*
X155852114Y-116446496D01*
X155852109Y-116446494D01*
X155848137Y-116444642D01*
X155843900Y-116443507D01*
X155843898Y-116443506D01*
X155629063Y-116385940D01*
X155629058Y-116385939D01*
X155624818Y-116384803D01*
X155394500Y-116364653D01*
X155164182Y-116384803D01*
X155159942Y-116385939D01*
X155159937Y-116385940D01*
X154945102Y-116443506D01*
X154945100Y-116443507D01*
X154940863Y-116444642D01*
X154936891Y-116446494D01*
X154936886Y-116446496D01*
X154871565Y-116476956D01*
X154731327Y-116542350D01*
X154636634Y-116608655D01*
X154545538Y-116672440D01*
X154545535Y-116672442D01*
X154541941Y-116674959D01*
X154495665Y-116721235D01*
X154440267Y-116749461D01*
X154424530Y-116750700D01*
X154378000Y-116750700D01*
X154318869Y-116731487D01*
X154282324Y-116681187D01*
X154277400Y-116650100D01*
X154277400Y-109587900D01*
X154296613Y-109528769D01*
X154346913Y-109492224D01*
X154378000Y-109487300D01*
X154398187Y-109487300D01*
X154413922Y-109488539D01*
X154430617Y-109491183D01*
X154435884Y-109490907D01*
X154502081Y-109487438D01*
X154507346Y-109487300D01*
X154529375Y-109487300D01*
X154551287Y-109484997D01*
X154556524Y-109484585D01*
X154588717Y-109482898D01*
X154622742Y-109481115D01*
X154622743Y-109481115D01*
X154628006Y-109480839D01*
X154633095Y-109479476D01*
X154633098Y-109479475D01*
X154644338Y-109476463D01*
X154659857Y-109473586D01*
X154671434Y-109472369D01*
X154676676Y-109471818D01*
X154701766Y-109463666D01*
X154744737Y-109449704D01*
X154749786Y-109448208D01*
X154797753Y-109435355D01*
X154818929Y-109429681D01*
X154823618Y-109427292D01*
X154823623Y-109427290D01*
X154834001Y-109422002D01*
X154848580Y-109415964D01*
X154859643Y-109412369D01*
X154859647Y-109412367D01*
X154864661Y-109410738D01*
X154926650Y-109374949D01*
X154931275Y-109372438D01*
X154990345Y-109342340D01*
X154990347Y-109342339D01*
X154995045Y-109339945D01*
X155008186Y-109329304D01*
X155021189Y-109320367D01*
X155031271Y-109314546D01*
X155035839Y-109311909D01*
X155089031Y-109264015D01*
X155093034Y-109260596D01*
X155108105Y-109248392D01*
X155108116Y-109248382D01*
X155110150Y-109246735D01*
X155125721Y-109231164D01*
X155129541Y-109227539D01*
X155178812Y-109183175D01*
X155182728Y-109179649D01*
X155192668Y-109165968D01*
X155202920Y-109153965D01*
X156768458Y-107588428D01*
X156823856Y-107560202D01*
X156885264Y-107569928D01*
G37*
%TD.AperFunction*%
%TA.AperFunction,NonConductor*%
G36*
X152368444Y-113780642D02*
G01*
X152395796Y-113836476D01*
X152396800Y-113850651D01*
X152396800Y-119521445D01*
X152377587Y-119580576D01*
X152327287Y-119617121D01*
X152265113Y-119617121D01*
X152225065Y-119592580D01*
X151335065Y-118702580D01*
X151306839Y-118647182D01*
X151305600Y-118631445D01*
X151305600Y-114028430D01*
X151324813Y-113969299D01*
X151375113Y-113932754D01*
X151409886Y-113927898D01*
X151465047Y-113929920D01*
X151626181Y-113935829D01*
X151866550Y-113905037D01*
X152098662Y-113835400D01*
X152251942Y-113760309D01*
X152313496Y-113751549D01*
X152368444Y-113780642D01*
G37*
%TD.AperFunction*%
%TA.AperFunction,NonConductor*%
G36*
X154483661Y-118650513D02*
G01*
X154495665Y-118660765D01*
X154541941Y-118707041D01*
X154731326Y-118839650D01*
X154912535Y-118924149D01*
X154922152Y-118928633D01*
X154967624Y-118971036D01*
X154979487Y-119032068D01*
X154950772Y-119090943D01*
X154449135Y-119592581D01*
X154393737Y-119620807D01*
X154332329Y-119611081D01*
X154288365Y-119567118D01*
X154277400Y-119521446D01*
X154277400Y-118731900D01*
X154296613Y-118672769D01*
X154346913Y-118636224D01*
X154378000Y-118631300D01*
X154424530Y-118631300D01*
X154483661Y-118650513D01*
G37*
%TD.AperFunction*%
%TA.AperFunction,NonConductor*%
G36*
X148659152Y-107996468D02*
G01*
X148689038Y-108004476D01*
X148759138Y-108023260D01*
X148759140Y-108023260D01*
X148763382Y-108024397D01*
X148993700Y-108044547D01*
X149224018Y-108024397D01*
X149228260Y-108023260D01*
X149228262Y-108023260D01*
X149262962Y-108013962D01*
X149298363Y-108004476D01*
X149360451Y-108007730D01*
X149408770Y-108046857D01*
X149425000Y-108101648D01*
X149425000Y-118980687D01*
X149423761Y-118996422D01*
X149421117Y-119013117D01*
X149421393Y-119018382D01*
X149424862Y-119084581D01*
X149425000Y-119089846D01*
X149425000Y-119111875D01*
X149425275Y-119114491D01*
X149427302Y-119133778D01*
X149427715Y-119139024D01*
X149431461Y-119210506D01*
X149432824Y-119215595D01*
X149432825Y-119215598D01*
X149435837Y-119226838D01*
X149438714Y-119242357D01*
X149440482Y-119259176D01*
X149442112Y-119264192D01*
X149462596Y-119327237D01*
X149464092Y-119332286D01*
X149482619Y-119401429D01*
X149485008Y-119406118D01*
X149485010Y-119406123D01*
X149490298Y-119416501D01*
X149496336Y-119431080D01*
X149499931Y-119442143D01*
X149501562Y-119447161D01*
X149537350Y-119509148D01*
X149539862Y-119513775D01*
X149572355Y-119577545D01*
X149582996Y-119590686D01*
X149591933Y-119603689D01*
X149600391Y-119618339D01*
X149603921Y-119622259D01*
X149648285Y-119671531D01*
X149651704Y-119675534D01*
X149663908Y-119690605D01*
X149663918Y-119690616D01*
X149665565Y-119692650D01*
X149681136Y-119708221D01*
X149684761Y-119712041D01*
X149732651Y-119765228D01*
X149736910Y-119768323D01*
X149736913Y-119768325D01*
X149746332Y-119775168D01*
X149758335Y-119785420D01*
X150895280Y-120922365D01*
X150923506Y-120977763D01*
X150913780Y-121039171D01*
X150869816Y-121083135D01*
X150824145Y-121094100D01*
X147138855Y-121094100D01*
X147079724Y-121074887D01*
X147067720Y-121064635D01*
X141486916Y-115483831D01*
X141476663Y-115471826D01*
X141469823Y-115462411D01*
X141466728Y-115458151D01*
X141413541Y-115410261D01*
X141409721Y-115406636D01*
X141394150Y-115391065D01*
X141392116Y-115389418D01*
X141392105Y-115389408D01*
X141377034Y-115377204D01*
X141373036Y-115373789D01*
X141366398Y-115367813D01*
X141335307Y-115313971D01*
X141341801Y-115252137D01*
X141362572Y-115221913D01*
X144162014Y-112422471D01*
X145254790Y-112422471D01*
X145255028Y-112426596D01*
X145267615Y-112644884D01*
X145268740Y-112664402D01*
X145322016Y-112900807D01*
X145413188Y-113125336D01*
X145415339Y-113128846D01*
X145415342Y-113128852D01*
X145481843Y-113237371D01*
X145539807Y-113331959D01*
X145698472Y-113515127D01*
X145701646Y-113517762D01*
X145851743Y-113642375D01*
X145884923Y-113669922D01*
X145888493Y-113672008D01*
X146074398Y-113780642D01*
X146094153Y-113792186D01*
X146320542Y-113878635D01*
X146324585Y-113879458D01*
X146324590Y-113879459D01*
X146479599Y-113910996D01*
X146558010Y-113926949D01*
X146800181Y-113935829D01*
X147040550Y-113905037D01*
X147272662Y-113835400D01*
X147490284Y-113728788D01*
X147493639Y-113726395D01*
X147684211Y-113590461D01*
X147684213Y-113590459D01*
X147687571Y-113588064D01*
X147842618Y-113433558D01*
X147856307Y-113419917D01*
X147856308Y-113419916D01*
X147859226Y-113417008D01*
X148000637Y-113220213D01*
X148088733Y-113041965D01*
X148106178Y-113006668D01*
X148106179Y-113006667D01*
X148108008Y-113002965D01*
X148109206Y-112999020D01*
X148109209Y-112999014D01*
X148177254Y-112775050D01*
X148178455Y-112771097D01*
X148203156Y-112583476D01*
X148209735Y-112533506D01*
X148209736Y-112533499D01*
X148210086Y-112530837D01*
X148210391Y-112518385D01*
X148211786Y-112461269D01*
X148211786Y-112461265D01*
X148211851Y-112458600D01*
X148191995Y-112217082D01*
X148188506Y-112203188D01*
X148133963Y-111986048D01*
X148132959Y-111982049D01*
X148036328Y-111759815D01*
X147904699Y-111556347D01*
X147741606Y-111377110D01*
X147551428Y-111226917D01*
X147435357Y-111162842D01*
X147342887Y-111111795D01*
X147342882Y-111111793D01*
X147339274Y-111109801D01*
X147110841Y-111028909D01*
X147106778Y-111028185D01*
X147106777Y-111028185D01*
X147057918Y-111019482D01*
X146872263Y-110986412D01*
X146868134Y-110986362D01*
X146868128Y-110986361D01*
X146752601Y-110984950D01*
X146629948Y-110983451D01*
X146625866Y-110984076D01*
X146625861Y-110984076D01*
X146479598Y-111006458D01*
X146390403Y-111020107D01*
X146386477Y-111021390D01*
X146386478Y-111021390D01*
X146184213Y-111087500D01*
X146160061Y-111095394D01*
X146128555Y-111111795D01*
X146030495Y-111162842D01*
X145945109Y-111207291D01*
X145941815Y-111209764D01*
X145941809Y-111209768D01*
X145778980Y-111332024D01*
X145751318Y-111352793D01*
X145748470Y-111355773D01*
X145748468Y-111355775D01*
X145714134Y-111391704D01*
X145583895Y-111527992D01*
X145581570Y-111531400D01*
X145581567Y-111531404D01*
X145476857Y-111684904D01*
X145447334Y-111728183D01*
X145345303Y-111947990D01*
X145280542Y-112181510D01*
X145280103Y-112185616D01*
X145280103Y-112185617D01*
X145276301Y-112221197D01*
X145254790Y-112422471D01*
X144162014Y-112422471D01*
X148561980Y-108022505D01*
X148617378Y-107994279D01*
X148659152Y-107996468D01*
G37*
%TD.AperFunction*%
%TA.AperFunction,NonConductor*%
G36*
X141418935Y-118075420D02*
G01*
X144808773Y-121465258D01*
X144836999Y-121520656D01*
X144827273Y-121582064D01*
X144808774Y-121607526D01*
X144777259Y-121639041D01*
X144774741Y-121642637D01*
X144774736Y-121642643D01*
X144707841Y-121738180D01*
X144658187Y-121775598D01*
X144596022Y-121776683D01*
X144554299Y-121751614D01*
X141276665Y-118473980D01*
X141248439Y-118418582D01*
X141247200Y-118402845D01*
X141247200Y-118146555D01*
X141266413Y-118087424D01*
X141316713Y-118050879D01*
X141378887Y-118050879D01*
X141418935Y-118075420D01*
G37*
%TD.AperFunction*%
%TA.AperFunction,NonConductor*%
G36*
X138593033Y-123709470D02*
G01*
X138605037Y-123719722D01*
X141191335Y-126306020D01*
X141219561Y-126361418D01*
X141220800Y-126377155D01*
X141220800Y-127254298D01*
X141236005Y-127443280D01*
X141296473Y-127689460D01*
X141395522Y-127922805D01*
X141397674Y-127926222D01*
X141445137Y-128001593D01*
X141460389Y-128061868D01*
X141437299Y-128119595D01*
X141384688Y-128152726D01*
X141360010Y-128155800D01*
X134819500Y-128155800D01*
X134760369Y-128136587D01*
X134723824Y-128086287D01*
X134718900Y-128055200D01*
X134718900Y-123790857D01*
X134738113Y-123731726D01*
X134788413Y-123695181D01*
X134819500Y-123690257D01*
X138533902Y-123690257D01*
X138593033Y-123709470D01*
G37*
%TD.AperFunction*%
%TA.AperFunction,NonConductor*%
G36*
X162220421Y-112109928D02*
G01*
X162268034Y-112149911D01*
X162283300Y-112203188D01*
X162283300Y-128055200D01*
X162264087Y-128114331D01*
X162213787Y-128150876D01*
X162182700Y-128155800D01*
X156934159Y-128155800D01*
X156875028Y-128136587D01*
X156838483Y-128086287D01*
X156838483Y-128024113D01*
X156845500Y-128007661D01*
X156942431Y-127826887D01*
X156944343Y-127823322D01*
X157026873Y-127583636D01*
X157070021Y-127333838D01*
X157071400Y-127303468D01*
X157071400Y-125602902D01*
X157056195Y-125413920D01*
X156995727Y-125167740D01*
X156896678Y-124934395D01*
X156761596Y-124719888D01*
X156593955Y-124529737D01*
X156398070Y-124368835D01*
X156332500Y-124330672D01*
X156270688Y-124294697D01*
X156178979Y-124241321D01*
X155942319Y-124150476D01*
X155694180Y-124098637D01*
X155440944Y-124087138D01*
X155436926Y-124087603D01*
X155436923Y-124087603D01*
X155193142Y-124115809D01*
X155193137Y-124115810D01*
X155189127Y-124116274D01*
X154945208Y-124185296D01*
X154715462Y-124292428D01*
X154659188Y-124330672D01*
X154509138Y-124432646D01*
X154509134Y-124432649D01*
X154505800Y-124434915D01*
X154502874Y-124437682D01*
X154502869Y-124437686D01*
X154408238Y-124527174D01*
X154321615Y-124609089D01*
X154319161Y-124612299D01*
X154319159Y-124612301D01*
X154304180Y-124631893D01*
X154253003Y-124667198D01*
X154190847Y-124665679D01*
X154148801Y-124637319D01*
X154144018Y-124631893D01*
X154053955Y-124529737D01*
X153858070Y-124368835D01*
X153792500Y-124330672D01*
X153730688Y-124294697D01*
X153638979Y-124241321D01*
X153402319Y-124150476D01*
X153154180Y-124098637D01*
X152900944Y-124087138D01*
X152896926Y-124087603D01*
X152896923Y-124087603D01*
X152653142Y-124115809D01*
X152653137Y-124115810D01*
X152649127Y-124116274D01*
X152405208Y-124185296D01*
X152175462Y-124292428D01*
X152119188Y-124330672D01*
X151969138Y-124432646D01*
X151969134Y-124432649D01*
X151965800Y-124434915D01*
X151962874Y-124437682D01*
X151962869Y-124437686D01*
X151868238Y-124527174D01*
X151781615Y-124609089D01*
X151779161Y-124612299D01*
X151779159Y-124612301D01*
X151764180Y-124631893D01*
X151713003Y-124667198D01*
X151650847Y-124665679D01*
X151608801Y-124637319D01*
X151604018Y-124631893D01*
X151513955Y-124529737D01*
X151318070Y-124368835D01*
X151252500Y-124330672D01*
X151190688Y-124294697D01*
X151098979Y-124241321D01*
X150862319Y-124150476D01*
X150614180Y-124098637D01*
X150360944Y-124087138D01*
X150356926Y-124087603D01*
X150356923Y-124087603D01*
X150113142Y-124115809D01*
X150113137Y-124115810D01*
X150109127Y-124116274D01*
X149865208Y-124185296D01*
X149861546Y-124187004D01*
X149861545Y-124187004D01*
X149837644Y-124198149D01*
X149775933Y-124205726D01*
X149723994Y-124178109D01*
X149659808Y-124113923D01*
X149631582Y-124058525D01*
X149630726Y-124051556D01*
X149614480Y-123865861D01*
X149614097Y-123861482D01*
X149579329Y-123731726D01*
X149555394Y-123642402D01*
X149555393Y-123642400D01*
X149554258Y-123638163D01*
X149552406Y-123634191D01*
X149552404Y-123634186D01*
X149458406Y-123432608D01*
X149456550Y-123428627D01*
X149323941Y-123239241D01*
X149231135Y-123146435D01*
X149202909Y-123091037D01*
X149212635Y-123029629D01*
X149256599Y-122985665D01*
X149302270Y-122974700D01*
X153940987Y-122974700D01*
X153956722Y-122975939D01*
X153973417Y-122978583D01*
X153978684Y-122978307D01*
X154044881Y-122974838D01*
X154050146Y-122974700D01*
X154072175Y-122974700D01*
X154094087Y-122972397D01*
X154099324Y-122971985D01*
X154131517Y-122970298D01*
X154165542Y-122968515D01*
X154165543Y-122968515D01*
X154170806Y-122968239D01*
X154175895Y-122966876D01*
X154175898Y-122966875D01*
X154187138Y-122963863D01*
X154202657Y-122960986D01*
X154214234Y-122959769D01*
X154219476Y-122959218D01*
X154244566Y-122951066D01*
X154287537Y-122937104D01*
X154292586Y-122935608D01*
X154310597Y-122930782D01*
X154361729Y-122917081D01*
X154366418Y-122914692D01*
X154366423Y-122914690D01*
X154376801Y-122909402D01*
X154391380Y-122903364D01*
X154402443Y-122899769D01*
X154402447Y-122899767D01*
X154407461Y-122898138D01*
X154469450Y-122862349D01*
X154474075Y-122859838D01*
X154533145Y-122829740D01*
X154533147Y-122829739D01*
X154537845Y-122827345D01*
X154550986Y-122816704D01*
X154563989Y-122807767D01*
X154574071Y-122801946D01*
X154578639Y-122799309D01*
X154631831Y-122751415D01*
X154635834Y-122747996D01*
X154650905Y-122735792D01*
X154650916Y-122735782D01*
X154652950Y-122734135D01*
X154668521Y-122718564D01*
X154672341Y-122714939D01*
X154721612Y-122670575D01*
X154725528Y-122667049D01*
X154735468Y-122653368D01*
X154745720Y-122641365D01*
X161030669Y-116356416D01*
X161042671Y-116346165D01*
X161056349Y-116336228D01*
X161104239Y-116283041D01*
X161107864Y-116279221D01*
X161123435Y-116263650D01*
X161125082Y-116261616D01*
X161125092Y-116261605D01*
X161137296Y-116246534D01*
X161140715Y-116242531D01*
X161185079Y-116193259D01*
X161188609Y-116189339D01*
X161197067Y-116174689D01*
X161206004Y-116161686D01*
X161216645Y-116148545D01*
X161245857Y-116091214D01*
X161249138Y-116084775D01*
X161251650Y-116080148D01*
X161287438Y-116018161D01*
X161289069Y-116013143D01*
X161292664Y-116002080D01*
X161298702Y-115987501D01*
X161303990Y-115977123D01*
X161303992Y-115977118D01*
X161306381Y-115972429D01*
X161324908Y-115903286D01*
X161326404Y-115898237D01*
X161346888Y-115835192D01*
X161348518Y-115830176D01*
X161350286Y-115813357D01*
X161353163Y-115797838D01*
X161356175Y-115786598D01*
X161356176Y-115786595D01*
X161357539Y-115781506D01*
X161361285Y-115710024D01*
X161361698Y-115704778D01*
X161363725Y-115685491D01*
X161364000Y-115682875D01*
X161364000Y-115660846D01*
X161364138Y-115655581D01*
X161367607Y-115589379D01*
X161367883Y-115584117D01*
X161367060Y-115578918D01*
X161367059Y-115578906D01*
X161365239Y-115567417D01*
X161364000Y-115551680D01*
X161364000Y-112876450D01*
X161383213Y-112817319D01*
X161415829Y-112788463D01*
X161490405Y-112747125D01*
X161490406Y-112747124D01*
X161494711Y-112744738D01*
X161552354Y-112696026D01*
X162083526Y-112164853D01*
X162105661Y-112138494D01*
X162158400Y-112105567D01*
X162220421Y-112109928D01*
G37*
%TD.AperFunction*%
M02*
