M48
; DRILL file {KiCad (6.0.0-0)} date Monday, April 25, 2022 at 03:43:28 PM
; FORMAT={-:-/ absolute / inch / decimal}
; #@! TF.CreationDate,2022-04-25T15:43:28-04:00
; #@! TF.GenerationSoftware,Kicad,Pcbnew,(6.0.0-0)
; #@! TF.FileFunction,MixedPlating,1,2
FMAT,2
INCH
; #@! TA.AperFunction,Plated,PTH,ViaDrill
T1C0.0240
; #@! TA.AperFunction,Plated,PTH,ComponentDrill
T2C0.0320
; #@! TA.AperFunction,Plated,PTH,ComponentDrill
T3C0.0400
%
G90
G05
T1
X5.3979Y-4.5525
X5.4519Y-3.9945
X5.4519Y-4.2375
X5.4699Y-3.7065
X5.4879Y-4.3365
X5.5059Y-4.0485
X5.5239Y-4.6065
X5.6499Y-3.8775
X5.7129Y-3.8145
X5.7399Y-4.8225
X5.7579Y-3.9315
X5.8119Y-3.3915
X5.8119Y-3.9135
X5.8389Y-4.8855
X5.8659Y-3.9855
X5.8659Y-4.0935
X5.8659Y-4.2015
X5.8749Y-3.7605
X5.9829Y-3.9855
X6.0189Y-3.8055
X6.0369Y-4.7505
X6.0639Y-4.1655
X6.0639Y-4.2375
X6.1089Y-3.9855
X6.1179Y-4.6335
X6.1449Y-3.9495
X6.2169Y-4.2015
T2
X5.7769Y-4.4275
X5.9669Y-4.4275
T3
X5.3719Y-3.4775
X5.3719Y-3.5775
X5.3719Y-3.6775
X5.3719Y-3.7775
X5.3719Y-3.8775
X5.3719Y-3.9775
X5.3719Y-4.0775
X5.3719Y-4.1775
X5.3719Y-4.2775
X5.3719Y-4.3775
X5.6219Y-4.9775
X5.6719Y-3.2775
X5.7219Y-4.9775
X5.7719Y-3.2775
X5.7719Y-3.4775
X5.7719Y-3.5775
X5.8219Y-4.9775
X5.8719Y-3.2775
X5.8719Y-3.4775
X5.8719Y-3.5775
X5.9219Y-4.9775
X5.9719Y-3.2775
X5.9719Y-3.4775
X5.9719Y-3.5775
X6.0219Y-4.9775
X6.0719Y-3.2775
X6.1219Y-4.9775
X6.3219Y-3.4775
X6.3219Y-3.5775
X6.3219Y-3.6775
X6.3219Y-3.7775
X6.3219Y-3.8775
X6.3219Y-3.9775
X6.3219Y-4.0775
X6.3219Y-4.1775
X6.3219Y-4.2775
X6.3219Y-4.3775
T0
M30
