%TF.GenerationSoftware,KiCad,Pcbnew,(6.0.0-0)*%
%TF.CreationDate,2022-03-04T09:47:11-05:00*%
%TF.ProjectId,Electronics Design - Modified ATtiny,456c6563-7472-46f6-9e69-637320446573,rev?*%
%TF.SameCoordinates,Original*%
%TF.FileFunction,Copper,L1,Top*%
%TF.FilePolarity,Positive*%
%FSLAX46Y46*%
G04 Gerber Fmt 4.6, Leading zero omitted, Abs format (unit mm)*
G04 Created by KiCad (PCBNEW (6.0.0-0)) date 2022-03-04 09:47:11*
%MOMM*%
%LPD*%
G01*
G04 APERTURE LIST*
%TA.AperFunction,SMDPad,CuDef*%
%ADD10R,2.000000X0.800000*%
%TD*%
%TA.AperFunction,SMDPad,CuDef*%
%ADD11R,2.000000X1.700000*%
%TD*%
%TA.AperFunction,SMDPad,CuDef*%
%ADD12R,1.500000X2.500000*%
%TD*%
%TA.AperFunction,SMDPad,CuDef*%
%ADD13R,2.500000X1.700000*%
%TD*%
%TA.AperFunction,Conductor*%
%ADD14C,0.400000*%
%TD*%
G04 APERTURE END LIST*
D10*
%TO.P,U1,1,VCC*%
%TO.N,Net-(C1-Pad1)*%
X203956000Y-37719000D03*
%TO.P,U1,2,TXD/PA6/DAC*%
%TO.N,unconnected-(U1-Pad2)*%
X203956000Y-38989000D03*
%TO.P,U1,3,RXD/PA7*%
%TO.N,unconnected-(U1-Pad3)*%
X203956000Y-40259000D03*
%TO.P,U1,4,PA1/SDA*%
%TO.N,Net-(U1-Pad4)*%
X203956000Y-41529000D03*
%TO.P,U1,5,PA2/SCL*%
%TO.N,Net-(U1-Pad5)*%
X209556000Y-41529000D03*
%TO.P,U1,6,~{RESET}/UPDI/PA0*%
%TO.N,Net-(U1-Pad6)*%
X209556000Y-40259000D03*
%TO.P,U1,7,PA3/SCK*%
%TO.N,unconnected-(U1-Pad7)*%
X209556000Y-38989000D03*
%TO.P,U1,8,GND*%
%TO.N,Net-(C1-Pad2)*%
X209556000Y-37719000D03*
%TD*%
D11*
%TO.P,C1,1*%
%TO.N,Net-(C1-Pad1)*%
X205010000Y-31242000D03*
%TO.P,C1,2*%
%TO.N,Net-(C1-Pad2)*%
X209010000Y-31242000D03*
%TD*%
%TO.P,R1,1*%
%TO.N,Net-(R1-Pad1)*%
X191040000Y-35560000D03*
%TO.P,R1,2*%
%TO.N,Net-(C1-Pad1)*%
X195040000Y-35560000D03*
%TD*%
%TO.P,D1,1,K*%
%TO.N,Net-(U1-Pad4)*%
X195040000Y-43180000D03*
%TO.P,D1,2,A*%
%TO.N,Net-(R1-Pad1)*%
X191040000Y-43180000D03*
%TD*%
D12*
%TO.P,SW1,1,1*%
%TO.N,Net-(U1-Pad5)*%
X210788000Y-46284000D03*
X210788000Y-53284000D03*
%TO.P,SW1,2,2*%
%TO.N,Net-(C1-Pad2)*%
X206788000Y-46284000D03*
X206788000Y-53284000D03*
%TD*%
D13*
%TO.P,J1,1,Pin_1*%
%TO.N,Net-(C1-Pad2)*%
X218934000Y-37836000D03*
%TO.P,J1,2,Pin_2*%
%TO.N,Net-(U1-Pad6)*%
X218934000Y-40376000D03*
%TO.P,J1,3,Pin_3*%
%TO.N,Net-(C1-Pad1)*%
X218934000Y-42916000D03*
%TD*%
D14*
%TO.N,Net-(C1-Pad2)*%
X212340000Y-31242000D02*
X218934000Y-37836000D01*
X209010000Y-31242000D02*
X209010000Y-36036000D01*
X209010000Y-31242000D02*
X209042000Y-31242000D01*
X206788000Y-53284000D02*
X206788000Y-46284000D01*
X206788000Y-39157978D02*
X208226978Y-37719000D01*
X208226978Y-37719000D02*
X209556000Y-37719000D01*
X209010000Y-36036000D02*
X209556000Y-36582000D01*
X209556000Y-36582000D02*
X209556000Y-37719000D01*
X206788000Y-46284000D02*
X206788000Y-39157978D01*
X209010000Y-31242000D02*
X209010000Y-30766000D01*
X209010000Y-31242000D02*
X212340000Y-31242000D01*
%TO.N,Net-(C1-Pad1)*%
X199644000Y-56896000D02*
X187706000Y-44958000D01*
X213360000Y-56896000D02*
X199644000Y-56896000D01*
X195040000Y-35560000D02*
X197072000Y-37592000D01*
X218934000Y-42916000D02*
X218934000Y-51322000D01*
X204978000Y-31242000D02*
X203956000Y-32264000D01*
X218934000Y-51322000D02*
X213360000Y-56896000D01*
X197104000Y-37592000D02*
X197231000Y-37719000D01*
X203956000Y-37719000D02*
X203956000Y-37078000D01*
X197231000Y-37719000D02*
X203956000Y-37719000D01*
X203956000Y-32264000D02*
X203956000Y-37719000D01*
X205010000Y-31242000D02*
X204978000Y-31242000D01*
X191770000Y-31242000D02*
X205010000Y-31242000D01*
X197072000Y-37592000D02*
X197104000Y-37592000D01*
X187706000Y-44958000D02*
X187706000Y-35306000D01*
X187706000Y-35306000D02*
X191770000Y-31242000D01*
%TO.N,Net-(R1-Pad1)*%
X191040000Y-43180000D02*
X191040000Y-35560000D01*
%TO.N,Net-(U1-Pad4)*%
X202305000Y-43180000D02*
X203956000Y-41529000D01*
X195040000Y-43180000D02*
X202305000Y-43180000D01*
%TO.N,Net-(U1-Pad6)*%
X218817000Y-40259000D02*
X218934000Y-40376000D01*
X209556000Y-40259000D02*
X218817000Y-40259000D01*
%TO.N,Net-(U1-Pad5)*%
X210788000Y-53284000D02*
X210788000Y-46284000D01*
X210788000Y-42761000D02*
X209556000Y-41529000D01*
X210788000Y-46284000D02*
X210788000Y-42761000D01*
%TD*%
M02*
