%TF.GenerationSoftware,KiCad,Pcbnew,(6.0.0-0)*%
%TF.CreationDate,2022-05-05T17:05:29-04:00*%
%TF.ProjectId,networking,6e657477-6f72-46b6-996e-672e6b696361,rev?*%
%TF.SameCoordinates,Original*%
%TF.FileFunction,Copper,L1,Top*%
%TF.FilePolarity,Positive*%
%FSLAX46Y46*%
G04 Gerber Fmt 4.6, Leading zero omitted, Abs format (unit mm)*
G04 Created by KiCad (PCBNEW (6.0.0-0)) date 2022-05-05 17:05:29*
%MOMM*%
%LPD*%
G01*
G04 APERTURE LIST*
%TA.AperFunction,SMDPad,CuDef*%
%ADD10R,2.500000X1.700000*%
%TD*%
%TA.AperFunction,SMDPad,CuDef*%
%ADD11R,2.000000X1.700000*%
%TD*%
%TA.AperFunction,SMDPad,CuDef*%
%ADD12R,1.700000X2.500000*%
%TD*%
%TA.AperFunction,SMDPad,CuDef*%
%ADD13R,1.000000X3.150000*%
%TD*%
%TA.AperFunction,SMDPad,CuDef*%
%ADD14R,2.000000X0.600000*%
%TD*%
%TA.AperFunction,Conductor*%
%ADD15C,0.400000*%
%TD*%
%TA.AperFunction,Conductor*%
%ADD16C,0.330000*%
%TD*%
%TA.AperFunction,Conductor*%
%ADD17C,0.250000*%
%TD*%
G04 APERTURE END LIST*
D10*
%TO.P,J2,1,GND*%
%TO.N,GND*%
X138684000Y-148590000D03*
%TO.P,J2,2,CTS*%
%TO.N,unconnected-(J2-Pad2)*%
X138684000Y-146050000D03*
%TO.P,J2,3,VCC*%
%TO.N,VCC*%
X138684000Y-143510000D03*
%TO.P,J2,4,TX*%
%TO.N,TXD*%
X138684000Y-140970000D03*
%TO.P,J2,5,RX*%
%TO.N,RXD*%
X138684000Y-138430000D03*
%TO.P,J2,6,RTS*%
%TO.N,unconnected-(J2-Pad6)*%
X138684000Y-135890000D03*
%TD*%
D11*
%TO.P,C1,1*%
%TO.N,GND*%
X153892000Y-131318000D03*
%TO.P,C1,2*%
%TO.N,VCC*%
X149892000Y-131318000D03*
%TD*%
D10*
%TO.P,J1,1,Pin_1*%
%TO.N,GND*%
X167146000Y-145044000D03*
%TO.P,J1,2,Pin_2*%
%TO.N,UPDI*%
X167146000Y-142504000D03*
%TO.P,J1,3,Pin_3*%
%TO.N,VCC*%
X167146000Y-139964000D03*
%TD*%
D12*
%TO.P,J4,1,Pin_1*%
%TO.N,VRx*%
X156972000Y-152908000D03*
%TO.P,J4,2,Pin_2*%
%TO.N,VRy*%
X154432000Y-152908000D03*
%TO.P,J4,3,Pin_3*%
%TO.N,GND*%
X151892000Y-152908000D03*
%TO.P,J4,4,Pin_4*%
%TO.N,VCC*%
X149352000Y-152908000D03*
%TD*%
D13*
%TO.P,J3,1,Pin_1*%
%TO.N,GND*%
X160020000Y-125461000D03*
%TO.P,J3,2,Pin_2*%
%TO.N,VCC*%
X160020000Y-120411000D03*
%TO.P,J3,3,Pin_3*%
%TO.N,CE*%
X162560000Y-125461000D03*
%TO.P,J3,4,Pin_4*%
%TO.N,CSN*%
X162560000Y-120411000D03*
%TO.P,J3,5,Pin_5*%
%TO.N,SCK*%
X165100000Y-125461000D03*
%TO.P,J3,6,Pin_6*%
%TO.N,MOSI*%
X165100000Y-120411000D03*
%TO.P,J3,7,Pin_7*%
%TO.N,MISO*%
X167640000Y-125461000D03*
%TO.P,J3,8,Pin_8*%
%TO.N,unconnected-(J3-Pad8)*%
X167640000Y-120411000D03*
%TD*%
D14*
%TO.P,U1,1,VCC*%
%TO.N,VCC*%
X149619000Y-137482000D03*
%TO.P,U1,2,PA4*%
%TO.N,CSN*%
X149619000Y-138752000D03*
%TO.P,U1,3,PA5*%
%TO.N,CE*%
X149619000Y-140022000D03*
%TO.P,U1,4,PA6/DAC*%
%TO.N,unconnected-(U1-Pad4)*%
X149619000Y-141292000D03*
%TO.P,U1,5,PA7*%
%TO.N,unconnected-(U1-Pad5)*%
X149619000Y-142562000D03*
%TO.P,U1,6,PB3/RXD*%
%TO.N,RXD*%
X149619000Y-143832000D03*
%TO.P,U1,7,PB2/TXD*%
%TO.N,TXD*%
X149619000Y-145102000D03*
%TO.P,U1,8,PB1/SDA*%
%TO.N,VRy*%
X154569000Y-145102000D03*
%TO.P,U1,9,PB0/SCL*%
%TO.N,VRx*%
X154569000Y-143832000D03*
%TO.P,U1,10,~{RESET}/UPDI/PA0*%
%TO.N,UPDI*%
X154569000Y-142562000D03*
%TO.P,U1,11,PA1*%
%TO.N,MOSI*%
X154569000Y-141292000D03*
%TO.P,U1,12,PA2*%
%TO.N,MISO*%
X154569000Y-140022000D03*
%TO.P,U1,13,PA3/SCK*%
%TO.N,SCK*%
X154569000Y-138752000D03*
%TO.P,U1,14,GND*%
%TO.N,GND*%
X154569000Y-137482000D03*
%TD*%
D15*
%TO.N,SCK*%
X165100000Y-125461000D02*
X165100000Y-129540000D01*
X165100000Y-129540000D02*
X155888000Y-138752000D01*
X155888000Y-138752000D02*
X154569000Y-138752000D01*
%TO.N,VRx*%
X156972000Y-152908000D02*
X156972000Y-144526000D01*
X156972000Y-144526000D02*
X156278000Y-143832000D01*
X156278000Y-143832000D02*
X154569000Y-143832000D01*
%TO.N,CE*%
X149619000Y-140022000D02*
X145864000Y-140022000D01*
X145864000Y-140022000D02*
X142240000Y-136398000D01*
X142240000Y-136398000D02*
X142240000Y-128778000D01*
X142240000Y-128778000D02*
X155194000Y-115824000D01*
D16*
X163830000Y-124191000D02*
X162560000Y-125461000D01*
D15*
X155194000Y-115824000D02*
X163830000Y-115824000D01*
D16*
X163830000Y-115824000D02*
X163830000Y-124191000D01*
D15*
%TO.N,MOSI*%
X165608000Y-117348000D02*
X165100000Y-117856000D01*
X165100000Y-117856000D02*
X165100000Y-120411000D01*
X170180000Y-117348000D02*
X165608000Y-117348000D01*
X170180000Y-128778000D02*
X170180000Y-117348000D01*
%TO.N,CSN*%
X149619000Y-138752000D02*
X146880000Y-138752000D01*
X157226000Y-117348000D02*
X162306000Y-117348000D01*
X146880000Y-138752000D02*
X144018000Y-135890000D01*
X144018000Y-135890000D02*
X144018000Y-130556000D01*
X162306000Y-117348000D02*
X162560000Y-117602000D01*
X144018000Y-130556000D02*
X157226000Y-117348000D01*
X162560000Y-117602000D02*
X162560000Y-120411000D01*
%TO.N,MOSI*%
X157666000Y-141292000D02*
X170180000Y-128778000D01*
X154569000Y-141292000D02*
X157666000Y-141292000D01*
%TO.N,MISO*%
X156650000Y-140022000D02*
X167640000Y-129032000D01*
X154569000Y-140022000D02*
X156650000Y-140022000D01*
X167640000Y-129032000D02*
X167640000Y-125461000D01*
D17*
%TO.N,SCK*%
X154569000Y-138752000D02*
X155269000Y-138752000D01*
D15*
%TO.N,GND*%
X153892000Y-131318000D02*
X153892000Y-130080000D01*
X153892000Y-130080000D02*
X158511000Y-125461000D01*
X158511000Y-125461000D02*
X160020000Y-125461000D01*
%TO.N,VCC*%
X149892000Y-128238000D02*
X157734000Y-120396000D01*
X149892000Y-131318000D02*
X149892000Y-128238000D01*
D17*
X157734000Y-120396000D02*
X157749000Y-120411000D01*
D15*
X157749000Y-120411000D02*
X160020000Y-120411000D01*
X136144000Y-152908000D02*
X143002000Y-152908000D01*
X170424000Y-139964000D02*
X167146000Y-139964000D01*
X143002000Y-152908000D02*
X149352000Y-152908000D01*
X143002000Y-152908000D02*
X147574000Y-157480000D01*
X170434000Y-150114000D02*
X170434000Y-139954000D01*
X147574000Y-157480000D02*
X163068000Y-157480000D01*
X163068000Y-157480000D02*
X170434000Y-150114000D01*
D17*
X170434000Y-139954000D02*
X170424000Y-139964000D01*
D15*
%TO.N,GND*%
X151892000Y-152908000D02*
X151892000Y-154432000D01*
X151892000Y-154432000D02*
X153162000Y-155702000D01*
X153162000Y-155702000D02*
X162560000Y-155702000D01*
X162560000Y-155702000D02*
X167146000Y-151116000D01*
X167146000Y-151116000D02*
X167146000Y-145044000D01*
X152654000Y-148590000D02*
X151892000Y-149352000D01*
X151892000Y-149352000D02*
X151892000Y-152908000D01*
X138684000Y-148590000D02*
X152654000Y-148590000D01*
%TO.N,VCC*%
X135890000Y-152654000D02*
X136144000Y-152908000D01*
X135890000Y-145034000D02*
X135890000Y-152654000D01*
D17*
X138684000Y-143510000D02*
X137414000Y-143510000D01*
D15*
X137414000Y-143510000D02*
X135890000Y-145034000D01*
D17*
%TO.N,GND*%
X154569000Y-137482000D02*
X153602000Y-137482000D01*
D16*
X152654000Y-138430000D02*
X152654000Y-148590000D01*
X153602000Y-137482000D02*
X152654000Y-138430000D01*
D17*
%TO.N,VCC*%
X149619000Y-137482000D02*
X150690000Y-137482000D01*
D15*
X151384000Y-146812000D02*
X145034000Y-146812000D01*
X141732000Y-143510000D02*
X138684000Y-143510000D01*
D16*
X150690000Y-137482000D02*
X151384000Y-138176000D01*
D15*
X145034000Y-146812000D02*
X141732000Y-143510000D01*
D16*
X151384000Y-138176000D02*
X151384000Y-146812000D01*
D15*
%TO.N,UPDI*%
X154569000Y-142562000D02*
X167088000Y-142562000D01*
D17*
X167088000Y-142562000D02*
X167146000Y-142504000D01*
%TO.N,VRx*%
X155269000Y-143832000D02*
X154569000Y-143832000D01*
D15*
%TO.N,VRy*%
X154569000Y-145102000D02*
X154569000Y-152771000D01*
D17*
X154569000Y-152771000D02*
X154432000Y-152908000D01*
D15*
%TO.N,TXD*%
X145864000Y-145102000D02*
X141732000Y-140970000D01*
X141732000Y-140970000D02*
X138684000Y-140970000D01*
X149619000Y-145102000D02*
X145864000Y-145102000D01*
%TO.N,RXD*%
X147134000Y-143832000D02*
X141732000Y-138430000D01*
X141732000Y-138430000D02*
X138684000Y-138430000D01*
X149619000Y-143832000D02*
X147134000Y-143832000D01*
%TO.N,GND*%
X154569000Y-137482000D02*
X154569000Y-131995000D01*
D17*
X154569000Y-131995000D02*
X153892000Y-131318000D01*
D15*
%TO.N,VCC*%
X149619000Y-137482000D02*
X149619000Y-131591000D01*
D17*
X149619000Y-131591000D02*
X149892000Y-131318000D01*
%TD*%
M02*
