%TF.GenerationSoftware,KiCad,Pcbnew,(6.0.0-0)*%
%TF.CreationDate,2022-06-01T12:26:00-04:00*%
%TF.ProjectId,satshakitFCv1,73617473-6861-46b6-9974-464376312e6b,rev?*%
%TF.SameCoordinates,Original*%
%TF.FileFunction,Copper,L1,Top*%
%TF.FilePolarity,Positive*%
%FSLAX46Y46*%
G04 Gerber Fmt 4.6, Leading zero omitted, Abs format (unit mm)*
G04 Created by KiCad (PCBNEW (6.0.0-0)) date 2022-06-01 12:26:00*
%MOMM*%
%LPD*%
G01*
G04 APERTURE LIST*
%TA.AperFunction,SMDPad,CuDef*%
%ADD10R,1.117600X1.803400*%
%TD*%
%TA.AperFunction,ComponentPad*%
%ADD11O,1.879600X3.759200*%
%TD*%
%TA.AperFunction,ComponentPad*%
%ADD12O,1.422400X2.844800*%
%TD*%
%TA.AperFunction,ComponentPad*%
%ADD13O,1.524000X3.048000*%
%TD*%
%TA.AperFunction,SMDPad,CuDef*%
%ADD14R,1.800000X1.600000*%
%TD*%
%TA.AperFunction,ComponentPad*%
%ADD15O,3.048000X1.524000*%
%TD*%
%TA.AperFunction,ComponentPad*%
%ADD16O,3.759200X1.879600*%
%TD*%
%TA.AperFunction,SMDPad,CuDef*%
%ADD17R,1.803000X1.600000*%
%TD*%
%TA.AperFunction,SMDPad,CuDef*%
%ADD18R,2.000000X5.500000*%
%TD*%
%TA.AperFunction,SMDPad,CuDef*%
%ADD19R,1.600000X1.800000*%
%TD*%
%TA.AperFunction,SMDPad,CuDef*%
%ADD20R,1.016000X0.406400*%
%TD*%
%TA.AperFunction,SMDPad,CuDef*%
%ADD21R,1.524000X0.355600*%
%TD*%
%TA.AperFunction,SMDPad,CuDef*%
%ADD22R,0.406400X1.016000*%
%TD*%
%TA.AperFunction,SMDPad,CuDef*%
%ADD23R,0.355600X1.524000*%
%TD*%
%TA.AperFunction,Conductor*%
%ADD24C,0.304800*%
%TD*%
G04 APERTURE END LIST*
D10*
%TO.P,C1,1*%
%TO.N,GND_B*%
X181816100Y-63066400D03*
%TO.P,C1,2*%
%TO.N,N$2*%
X184813300Y-63066400D03*
%TD*%
D11*
%TO.P,RC_3-6,1*%
%TO.N,R3*%
X185369900Y-79868800D03*
%TO.P,RC_3-6,2*%
%TO.N,R4*%
X187909900Y-79868800D03*
%TO.P,RC_3-6,3*%
%TO.N,R5*%
X190449900Y-79868800D03*
%TO.P,RC_3-6,4*%
%TO.N,R6*%
X192989900Y-79868800D03*
%TD*%
D10*
%TO.P,C2,1*%
%TO.N,GND_B*%
X181830400Y-72410400D03*
%TO.P,C2,2*%
%TO.N,N$9*%
X184827600Y-72410400D03*
%TD*%
D12*
%TO.P,RC1-2,1*%
%TO.N,R1*%
X190436500Y-50215800D03*
%TO.P,RC1-2,2*%
%TO.N,R2*%
X187896500Y-50215800D03*
%TD*%
D13*
%TO.P,B_POWER,1*%
%TO.N,GND_B*%
X213614500Y-61143200D03*
%TO.P,B_POWER,2*%
%TO.N,VCC_B*%
X216408500Y-61143200D03*
%TD*%
%TO.P,ISP_POWER,1*%
%TO.N,VCC_B*%
X216366900Y-56299200D03*
%TO.P,ISP_POWER,2*%
%TO.N,GND_B*%
X213572900Y-56299200D03*
%TD*%
D14*
%TO.P,C5,1*%
%TO.N,VCC_B*%
X211536000Y-68193300D03*
%TO.P,C5,2*%
%TO.N,GND_B*%
X211536000Y-65393300D03*
%TD*%
D11*
%TO.P,M12,1*%
%TO.N,MISO*%
X204017100Y-75570400D03*
%TD*%
D15*
%TO.P,SPI,1*%
%TO.N,MISO*%
X208740100Y-75643400D03*
%TO.P,SPI,2*%
%TO.N,MOSI*%
X208740100Y-78183400D03*
%TO.P,SPI,3*%
%TO.N,SCK*%
X208740100Y-80723400D03*
%TD*%
D11*
%TO.P,M10,1*%
%TO.N,M10*%
X198069878Y-79874410D03*
%TD*%
D16*
%TO.P,RST,1*%
%TO.N,N$3*%
X190823900Y-46299200D03*
%TD*%
D11*
%TO.P,M2,1*%
%TO.N,MA1*%
X206582300Y-54668800D03*
%TD*%
%TO.P,M11,1*%
%TO.N,MOSI*%
X200609700Y-79861000D03*
%TD*%
D13*
%TO.P,IMU,1*%
%TO.N,N/C*%
X216339100Y-46392000D03*
%TO.P,IMU,2*%
X213799100Y-46392000D03*
%TO.P,IMU,3*%
X211259100Y-46392000D03*
%TO.P,IMU,4*%
X208719100Y-46392000D03*
%TO.P,IMU,5*%
%TO.N,SDA*%
X206179100Y-46392000D03*
%TO.P,IMU,6*%
%TO.N,SCL*%
X203639100Y-46392000D03*
%TO.P,IMU,7*%
%TO.N,GND_B*%
X201099100Y-46392000D03*
%TO.P,IMU,8*%
%TO.N,VCC_B*%
X198559100Y-46392000D03*
%TD*%
D17*
%TO.P,LED_13,1*%
%TO.N,SCK*%
X214511203Y-80717400D03*
%TO.P,LED_13,2*%
%TO.N,N$27*%
X214511203Y-77873400D03*
%TD*%
D11*
%TO.P,M1,1*%
%TO.N,MA0*%
X209117100Y-54668800D03*
%TD*%
%TO.P,M3,1*%
%TO.N,M3*%
X187877106Y-55056513D03*
%TD*%
D18*
%TO.P,CRYSTAL,1*%
%TO.N,N$9*%
X187605700Y-72502700D03*
%TO.P,CRYSTAL,2*%
%TO.N,N$2*%
X187605700Y-63002700D03*
%TD*%
D14*
%TO.P,R3,1*%
%TO.N,GND_B*%
X214543200Y-72242700D03*
%TO.P,R3,2*%
%TO.N,N$27*%
X214543200Y-75042700D03*
%TD*%
D13*
%TO.P,RC_POWER,1*%
%TO.N,VCC_B*%
X216366900Y-51194800D03*
%TO.P,RC_POWER,2*%
%TO.N,GND_B*%
X213572900Y-51194800D03*
%TD*%
D14*
%TO.P,C3,1*%
%TO.N,VCC_B*%
X183014700Y-55698600D03*
%TO.P,C3,2*%
%TO.N,GND_B*%
X183014700Y-58498600D03*
%TD*%
D19*
%TO.P,R1,1*%
%TO.N,VCC_B*%
X182996300Y-46338900D03*
%TO.P,R1,2*%
%TO.N,N$3*%
X185796300Y-46338900D03*
%TD*%
D11*
%TO.P,M9,1*%
%TO.N,M9*%
X195528915Y-79877760D03*
%TD*%
D20*
%TO.P,MICRO,1*%
%TO.N,M3*%
X194868800Y-62986000D03*
D21*
%TO.P,MICRO,2*%
%TO.N,R2*%
X195122800Y-63786000D03*
%TO.P,MICRO,3*%
%TO.N,GND_B*%
X195122800Y-64586000D03*
%TO.P,MICRO,4*%
%TO.N,VCC_B*%
X195122800Y-65386000D03*
%TO.P,MICRO,5*%
%TO.N,GND_B*%
X195122800Y-66186000D03*
%TO.P,MICRO,6*%
%TO.N,VCC_B*%
X195122800Y-66986000D03*
%TO.P,MICRO,7*%
%TO.N,N$2*%
X195122800Y-67786000D03*
D20*
%TO.P,MICRO,8*%
%TO.N,N$9*%
X194868800Y-68586000D03*
D22*
%TO.P,MICRO,9*%
%TO.N,R3*%
X196488400Y-70205600D03*
D23*
%TO.P,MICRO,10*%
%TO.N,R4*%
X197288400Y-69951600D03*
%TO.P,MICRO,11*%
%TO.N,R5*%
X198088400Y-69951600D03*
%TO.P,MICRO,12*%
%TO.N,R6*%
X198888400Y-69951600D03*
%TO.P,MICRO,13*%
%TO.N,M9*%
X199688400Y-69951600D03*
%TO.P,MICRO,14*%
%TO.N,M10*%
X200488400Y-69951600D03*
%TO.P,MICRO,15*%
%TO.N,MOSI*%
X201288400Y-69951600D03*
D22*
%TO.P,MICRO,16*%
%TO.N,MISO*%
X202088400Y-70205600D03*
D20*
%TO.P,MICRO,17*%
%TO.N,SCK*%
X203708000Y-68586000D03*
D21*
%TO.P,MICRO,18*%
%TO.N,VCC_B*%
X203454000Y-67786000D03*
%TO.P,MICRO,19*%
%TO.N,N/C*%
X203454000Y-66986000D03*
%TO.P,MICRO,20*%
%TO.N,VCC_B*%
X203454000Y-66186000D03*
%TO.P,MICRO,21*%
%TO.N,GND_B*%
X203454000Y-65386000D03*
%TO.P,MICRO,22*%
%TO.N,N/C*%
X203454000Y-64586000D03*
%TO.P,MICRO,23*%
%TO.N,MA0*%
X203454000Y-63786000D03*
D20*
%TO.P,MICRO,24*%
%TO.N,MA1*%
X203708000Y-62986000D03*
D22*
%TO.P,MICRO,25*%
%TO.N,MA2*%
X202088400Y-61366400D03*
D23*
%TO.P,MICRO,26*%
%TO.N,N/C*%
X201288400Y-61620400D03*
%TO.P,MICRO,27*%
%TO.N,SDA*%
X200488400Y-61620400D03*
%TO.P,MICRO,28*%
%TO.N,SCL*%
X199688400Y-61620400D03*
%TO.P,MICRO,29*%
%TO.N,N$3*%
X198888400Y-61620400D03*
%TO.P,MICRO,30*%
%TO.N,RX*%
X198088400Y-61620400D03*
%TO.P,MICRO,31*%
%TO.N,TX*%
X197288400Y-61620400D03*
D22*
%TO.P,MICRO,32*%
%TO.N,R1*%
X196488400Y-61366400D03*
%TD*%
D14*
%TO.P,C4,1*%
%TO.N,VCC_B*%
X207981000Y-68166300D03*
%TO.P,C4,2*%
%TO.N,GND_B*%
X207981000Y-65366300D03*
%TD*%
D11*
%TO.P,M4,1*%
%TO.N,MA2*%
X204047500Y-54668800D03*
%TD*%
D13*
%TO.P,SERIAL,1*%
%TO.N,RX*%
X197180300Y-52056700D03*
%TO.P,SERIAL,2*%
%TO.N,TX*%
X194386300Y-52056700D03*
%TD*%
D24*
%TO.N,N$2*%
X187642500Y-63039500D02*
X187605700Y-63002700D01*
X187605700Y-63066400D02*
X187605700Y-63002700D01*
X187642500Y-65278000D02*
X187642500Y-63039500D01*
X184813300Y-63066400D02*
X187605700Y-63066400D01*
X190150500Y-67786000D02*
X187642500Y-65278000D01*
X195122800Y-67786000D02*
X190150500Y-67786000D01*
%TO.N,N$9*%
X184827600Y-72410400D02*
X187605700Y-72410400D01*
X187605700Y-72410400D02*
X187605700Y-72502700D01*
X187642500Y-70332600D02*
X187642500Y-72465900D01*
X194868800Y-68586000D02*
X189389100Y-68586000D01*
X189389100Y-68586000D02*
X187642500Y-70332600D01*
X187642500Y-72465900D02*
X187605700Y-72502700D01*
%TO.N,N$3*%
X191757300Y-46304200D02*
X190828900Y-46304200D01*
X190828900Y-46304200D02*
X190823900Y-46299200D01*
X198888400Y-61620400D02*
X198888400Y-50514300D01*
X195211700Y-49758600D02*
X191757300Y-46304200D01*
X198888400Y-50514300D02*
X198132700Y-49758600D01*
X185796300Y-46338900D02*
X185796300Y-46299200D01*
X198132700Y-49758600D02*
X195211700Y-49758600D01*
X185796300Y-46299200D02*
X190823900Y-46299200D01*
%TO.N,N$27*%
X214511203Y-75042700D02*
X214511203Y-77873400D01*
X214543200Y-75042700D02*
X214511203Y-75042700D01*
%TO.N,SCL*%
X203639100Y-49682400D02*
X203639100Y-46392000D01*
X199688400Y-50602200D02*
X200608200Y-49682400D01*
X200608200Y-49682400D02*
X203639100Y-49682400D01*
X199688400Y-61620400D02*
X199688400Y-50602200D01*
%TO.N,SDA*%
X206209900Y-46392000D02*
X206179100Y-46392000D01*
X201053700Y-50850800D02*
X206179100Y-50850800D01*
X200488400Y-51416100D02*
X201053700Y-50850800D01*
X206179100Y-50850800D02*
X206179100Y-46392000D01*
X200488400Y-61620400D02*
X200488400Y-51416100D01*
%TO.N,R1*%
X196488400Y-57893300D02*
X190461900Y-51866800D01*
X190461900Y-50215800D02*
X190436500Y-50215800D01*
X196488400Y-61366400D02*
X196488400Y-57893300D01*
X190461900Y-51866800D02*
X190461900Y-50215800D01*
%TO.N,R2*%
X196627500Y-63786000D02*
X196862700Y-63550800D01*
X196862700Y-63550800D02*
X196862700Y-63398400D01*
X195668900Y-59055000D02*
X187921900Y-51308000D01*
X195122800Y-63786000D02*
X196627500Y-63786000D01*
X196862700Y-63398400D02*
X195668900Y-62204600D01*
X195668900Y-62204600D02*
X195668900Y-59055000D01*
X187921900Y-51308000D02*
X187921900Y-50215800D01*
X187921900Y-50215800D02*
X187896500Y-50215800D01*
%TO.N,R3*%
X196488400Y-70205600D02*
X196488400Y-71824500D01*
X188328300Y-77089000D02*
X186677300Y-77089000D01*
X185381900Y-78384400D02*
X185381900Y-79856800D01*
X191985900Y-73431400D02*
X188328300Y-77089000D01*
X194881500Y-73431400D02*
X191985900Y-73431400D01*
X196488400Y-71824500D02*
X194881500Y-73431400D01*
X185381900Y-79856800D02*
X185369900Y-79868800D01*
X186677300Y-77089000D02*
X185381900Y-78384400D01*
%TO.N,R4*%
X192620900Y-74574400D02*
X188201300Y-78994000D01*
X188201300Y-79577400D02*
X187909900Y-79868800D01*
X188201300Y-78994000D02*
X188201300Y-79577400D01*
X195160900Y-74574400D02*
X192620900Y-74574400D01*
X197288400Y-72446900D02*
X195160900Y-74574400D01*
X197288400Y-69951600D02*
X197288400Y-72446900D01*
%TO.N,R5*%
X193306700Y-75615800D02*
X190614300Y-78308200D01*
X190614300Y-78308200D02*
X190614300Y-79704400D01*
X198088400Y-69951600D02*
X198088400Y-73094700D01*
X190614300Y-79704400D02*
X190449900Y-79868800D01*
X195567300Y-75615800D02*
X193306700Y-75615800D01*
X198088400Y-73094700D02*
X195567300Y-75615800D01*
%TO.N,MISO*%
X202088400Y-73641700D02*
X204017100Y-75570400D01*
X202088400Y-70205600D02*
X202088400Y-73641700D01*
X204090100Y-75643400D02*
X204017100Y-75570400D01*
X208740100Y-75643400D02*
X204090100Y-75643400D01*
%TO.N,MOSI*%
X200939900Y-79530800D02*
X200609700Y-79861000D01*
X201288400Y-69951600D02*
X201288400Y-79861000D01*
X205549500Y-78181200D02*
X208737900Y-78181200D01*
X204199900Y-79530800D02*
X200939900Y-79530800D01*
X204199900Y-79530800D02*
X205549500Y-78181200D01*
X201288400Y-79861000D02*
X200609700Y-79861000D01*
X208737900Y-78181200D02*
X208740100Y-78183400D01*
%TO.N,SCK*%
X207617100Y-72370400D02*
X209917100Y-72370400D01*
X211417100Y-80717400D02*
X208740100Y-80717400D01*
X205917100Y-68586000D02*
X205917100Y-70670400D01*
X203708000Y-68586000D02*
X205917100Y-68586000D01*
X209917100Y-72370400D02*
X211417100Y-73870400D01*
X208740100Y-80717400D02*
X208740100Y-80723400D01*
X211417100Y-73870400D02*
X211417100Y-80717400D01*
X214511203Y-80717400D02*
X211417100Y-80717400D01*
X205917100Y-70670400D02*
X207617100Y-72370400D01*
%TO.N,GND_B*%
X195122800Y-64586000D02*
X191039900Y-64586000D01*
X214543200Y-65393300D02*
X214543200Y-72242700D01*
X203454000Y-65386000D02*
X207981000Y-65386000D01*
X200113900Y-65379600D02*
X203447600Y-65379600D01*
X211536000Y-65366300D02*
X211536000Y-65393300D01*
X182638700Y-59276200D02*
X182460900Y-59098400D01*
X207981000Y-65386000D02*
X207981000Y-65366300D01*
X183037700Y-58521600D02*
X183014700Y-58498600D01*
X183037700Y-58521600D02*
X182460900Y-59098400D01*
X195122800Y-66192400D02*
X195122800Y-66186000D01*
X197421500Y-48717200D02*
X192417700Y-43713400D01*
X181816100Y-63066400D02*
X181830400Y-63066400D01*
X191039900Y-64586000D02*
X190893700Y-64439800D01*
X185229500Y-58521600D02*
X183037700Y-58521600D01*
X213614500Y-61143200D02*
X213572900Y-61101600D01*
X181816100Y-61503200D02*
X182638700Y-60680600D01*
X207981000Y-65366300D02*
X211536000Y-65366300D01*
X191960500Y-66192400D02*
X190893700Y-65125600D01*
X214543200Y-65393300D02*
X214543200Y-63248100D01*
X189623700Y-58521600D02*
X185229500Y-58521600D01*
X190893700Y-59791600D02*
X189623700Y-58521600D01*
X182638700Y-60680600D02*
X182638700Y-59276200D01*
X184416700Y-49479200D02*
X184416700Y-43713400D01*
X203447600Y-65379600D02*
X203454000Y-65386000D01*
X199320300Y-64586000D02*
X200113900Y-65379600D01*
X214543200Y-63248100D02*
X213626700Y-62331600D01*
X195122800Y-64586000D02*
X199320300Y-64586000D01*
X211536000Y-65393300D02*
X214543200Y-65393300D01*
X195122800Y-64586000D02*
X192951100Y-64586000D01*
X191960500Y-66192400D02*
X195122800Y-66192400D01*
X213572900Y-56299200D02*
X213572900Y-51194800D01*
X185229500Y-50292000D02*
X185229500Y-58521600D01*
X201099100Y-48717200D02*
X197421500Y-48717200D01*
X213626700Y-62331600D02*
X213626700Y-61155400D01*
X213572900Y-61101600D02*
X213572900Y-56299200D01*
X190893700Y-64439800D02*
X190893700Y-59791600D01*
X184416700Y-43713400D02*
X192417700Y-43713400D01*
X190893700Y-65125600D02*
X190893700Y-64439800D01*
X213626700Y-61155400D02*
X213614500Y-61143200D01*
X181816100Y-63066400D02*
X181816100Y-61503200D01*
X181830400Y-63066400D02*
X181830400Y-72410400D01*
X185229500Y-50292000D02*
X184416700Y-49479200D01*
X201099100Y-46392000D02*
X201099100Y-48717200D01*
%TO.N,VCC_B*%
X182996300Y-42722800D02*
X182996300Y-46338900D01*
X216366900Y-61101600D02*
X216366900Y-56299200D01*
X182996300Y-55698600D02*
X182996300Y-46338900D01*
X211509000Y-68166300D02*
X211536000Y-68193300D01*
X216366900Y-56299200D02*
X216366900Y-51194800D01*
X183014700Y-55698600D02*
X182996300Y-55698600D01*
X198559100Y-42722800D02*
X218706700Y-42722800D01*
X216408500Y-61143200D02*
X216408500Y-73660000D01*
X203454000Y-67786000D02*
X205803500Y-67786000D01*
X207981000Y-67786000D02*
X207981000Y-68166300D01*
X199504300Y-67767200D02*
X203435200Y-67767200D01*
X195122800Y-65386000D02*
X197123100Y-65386000D01*
X203435200Y-67767200D02*
X203454000Y-67786000D01*
X216408500Y-61143200D02*
X216366900Y-61101600D01*
X207981000Y-68166300D02*
X211509000Y-68166300D01*
X211536000Y-72432900D02*
X211536000Y-68193300D01*
X218706700Y-48260000D02*
X218706700Y-42722800D01*
X203454000Y-66186000D02*
X205803500Y-66186000D01*
X205803500Y-66186000D02*
X205803500Y-67786000D01*
X205803500Y-67786000D02*
X207981000Y-67786000D01*
X197123100Y-65386000D02*
X198723100Y-66986000D01*
X195122800Y-66986000D02*
X198723100Y-66986000D01*
X216366900Y-50599800D02*
X218706700Y-48260000D01*
X216366900Y-51194800D02*
X216366900Y-50599800D01*
X198559100Y-46392000D02*
X198559100Y-42722800D01*
X198723100Y-66986000D02*
X199504300Y-67767200D01*
X216408500Y-73660000D02*
X212763100Y-73660000D01*
X212763100Y-73660000D02*
X211536000Y-72432900D01*
X198559100Y-42722800D02*
X182996300Y-42722800D01*
%TO.N,R6*%
X198888400Y-73717100D02*
X195821300Y-76784200D01*
X194576700Y-76784200D02*
X193027300Y-78333600D01*
X195821300Y-76784200D02*
X194576700Y-76784200D01*
X193027300Y-79831400D02*
X192989900Y-79868800D01*
X198888400Y-69951600D02*
X198888400Y-73717100D01*
X193027300Y-78333600D02*
X193027300Y-79831400D01*
%TO.N,MA0*%
X209105500Y-61671200D02*
X209105500Y-54680400D01*
X206990700Y-63786000D02*
X209105500Y-61671200D01*
X209105500Y-54680400D02*
X209117100Y-54668800D01*
X203454000Y-63786000D02*
X206990700Y-63786000D01*
%TO.N,MA1*%
X206114300Y-62986000D02*
X206590900Y-62509400D01*
X206590900Y-62509400D02*
X206590900Y-54677400D01*
X203708000Y-62986000D02*
X206114300Y-62986000D01*
X206590900Y-54677400D02*
X206582300Y-54668800D01*
%TO.N,MA2*%
X202088400Y-61366400D02*
X202088400Y-56627900D01*
X202088400Y-56627900D02*
X204047500Y-54668800D01*
%TO.N,M3*%
X194868800Y-61455300D02*
X188582300Y-55168800D01*
X188582300Y-55168800D02*
X187989393Y-55168800D01*
X194868800Y-62986000D02*
X194868800Y-61455300D01*
X187989393Y-55168800D02*
X187877106Y-55056513D01*
%TO.N,M9*%
X199688400Y-74491900D02*
X195668900Y-78511400D01*
X199688400Y-69951600D02*
X199688400Y-74491900D01*
X195668900Y-79737775D02*
X195528915Y-79877760D01*
X195668900Y-78511400D02*
X195668900Y-79737775D01*
%TO.N,M10*%
X198069878Y-78677179D02*
X198069878Y-79874410D01*
X200488400Y-69951600D02*
X200488400Y-75876300D01*
X198031100Y-78333600D02*
X198031100Y-78638400D01*
X200488400Y-75876300D02*
X198031100Y-78333600D01*
X198031100Y-78638400D02*
X198069878Y-78677179D01*
%TO.N,RX*%
X197218300Y-52094700D02*
X197180300Y-52056700D01*
X197218300Y-54864000D02*
X197218300Y-52094700D01*
X198088400Y-61620400D02*
X198088400Y-55734100D01*
X198088400Y-55734100D02*
X197218300Y-54864000D01*
%TO.N,TX*%
X194373500Y-52069500D02*
X194386300Y-52056700D01*
X197288400Y-61620400D02*
X197288400Y-57245500D01*
X194373500Y-54330600D02*
X194373500Y-52069500D01*
X197288400Y-57245500D02*
X194373500Y-54330600D01*
%TD*%
M02*
