M48
; DRILL file {KiCad (6.0.0-0)} date Wednesday, June 01, 2022 at 12:26:04 PM
; FORMAT={-:-/ absolute / inch / decimal}
; #@! TF.CreationDate,2022-06-01T12:26:04-04:00
; #@! TF.GenerationSoftware,Kicad,Pcbnew,(6.0.0-0)
; #@! TF.FileFunction,MixedPlating,1,2
FMAT,2
INCH
; #@! TA.AperFunction,Plated,PTH,ComponentDrill
T1C0.0360
; #@! TA.AperFunction,Plated,PTH,ComponentDrill
T2C0.0400
%
G90
G05
T1
X7.3975Y-1.977
X7.4975Y-1.977
T2
X7.298Y-3.1444
X7.3967Y-2.1676
X7.398Y-3.1444
X7.498Y-3.1444
X7.5128Y-1.8228
X7.598Y-3.1444
X7.653Y-2.0495
X7.698Y-3.1448
X7.763Y-2.0495
X7.798Y-3.1447
X7.8173Y-1.8265
X7.898Y-3.1441
X7.9173Y-1.8265
X8.0173Y-1.8265
X8.0322Y-2.9752
X8.0334Y-2.1523
X8.1173Y-1.8265
X8.1332Y-2.1523
X8.2173Y-1.8265
X8.2181Y-2.9781
X8.2181Y-3.0781
X8.2181Y-3.1781
X8.233Y-2.1523
X8.3173Y-1.8265
X8.4084Y-2.0155
X8.4084Y-2.2165
X8.41Y-2.4072
X8.4173Y-1.8265
X8.5173Y-1.8265
X8.5184Y-2.0155
X8.5184Y-2.2165
X8.52Y-2.4072
T0
M30
